<svg width="96" height="96" viewBox="0 0 96 96" fill="none" xmlns="http://www.w3.org/2000/svg">
<g id="g135">
<g id="g137">
<g id="Group">
<g id="Clip path group">
<mask id="mask0_4_789" style="mask-type:luminance" maskUnits="userSpaceOnUse" x="0" y="0" width="96" height="96">
<g id="SVGID_2_">
<path id="Vector" d="M96 96H0V-3.05176e-05H96V96Z" fill="white"/>
</g>
</mask>
<g mask="url(#mask0_4_789)">
<g id="Group_2">
<path id="Vector_2" d="M81.882 39.1481H73.7261V27.758C73.7261 27.7439 73.7261 27.7439 73.7261 27.7299C73.7261 27.6736 73.7261 27.6314 73.7121 27.5752C73.7121 27.5611 73.7121 27.5471 73.7121 27.5189C73.7121 27.4627 73.698 27.3924 73.6839 27.3361C73.6839 27.3221 73.6699 27.2939 73.6699 27.2799C73.6558 27.2377 73.6558 27.1955 73.6418 27.1674C73.6277 27.1393 73.6277 27.1111 73.6136 27.0971C73.5996 27.0549 73.5855 27.0268 73.5714 26.9846C73.5574 26.9705 73.5574 26.9424 73.5433 26.9283C73.5152 26.8721 73.5011 26.8299 73.473 26.7737C73.459 26.7596 73.459 26.7455 73.4449 26.7174C73.4308 26.6752 73.4027 26.6471 73.3746 26.6049C73.3605 26.5908 73.3465 26.5627 73.3324 26.5487C73.3043 26.5065 73.2762 26.4784 73.248 26.4502C73.234 26.4362 73.2199 26.4221 73.2199 26.408C73.1777 26.3659 73.1496 26.3237 73.1074 26.2815L59.6081 12.6415C59.594 12.6275 59.594 12.6275 59.5799 12.6134C59.5378 12.5712 59.5096 12.5431 59.4674 12.515C59.4534 12.5009 59.4393 12.4868 59.4253 12.4728C59.3971 12.4447 59.355 12.4165 59.3268 12.4025C59.3128 12.3884 59.2846 12.3744 59.2706 12.3603C59.2284 12.3322 59.1862 12.3181 59.1581 12.29C59.144 12.2759 59.13 12.2759 59.1159 12.2619C59.0597 12.2337 59.0175 12.2056 58.9612 12.1915C58.9331 12.1775 58.919 12.1775 58.8909 12.1634C58.8628 12.1494 58.8206 12.1353 58.7925 12.1212C58.7644 12.1072 58.7362 12.1072 58.7222 12.0931C58.68 12.0791 58.6378 12.065 58.5956 12.065C58.5675 12.065 58.5534 12.0509 58.5253 12.0509C58.4691 12.0369 58.4128 12.0369 58.3566 12.0228C58.3425 12.0228 58.3144 12.0228 58.3003 12.0228C58.2581 12.0228 58.2019 12.0228 58.1456 12.0087C58.1316 12.0087 58.1175 12.0087 58.1175 12.0087H26.4784C24.1582 12.0087 22.2599 13.9071 22.2599 16.2273V39.1481H14.104C12.9369 39.1481 11.9948 40.0902 11.9948 41.2573V72.7558C11.9948 73.9229 12.9369 74.8651 14.104 74.8651H22.2599V79.7867C22.2599 82.1069 24.1582 84.0052 26.4784 84.0052H69.5076C71.8278 84.0052 73.7261 82.1069 73.7261 79.7867V74.8651H81.882C83.0491 74.8651 83.9913 73.9229 83.9913 72.7558V41.2573C83.9913 40.0902 83.0491 39.1481 81.882 39.1481ZM60.2268 19.2506L66.5687 25.6487H60.2268V19.2506ZM26.4784 16.2273H56.0082V27.758C56.0082 28.9251 56.9504 29.8673 58.1175 29.8673H69.5076V39.1481H26.4784V16.2273ZM69.5076 79.7867H26.4784V74.8651H69.5076V79.7867ZM79.7727 70.6465H16.2133V43.3666H79.7727V70.6465Z" fill="white"/>
<path id="Vector_3" d="M35.6186 47.0227H24.3692C23.202 47.0227 22.2599 47.9648 22.2599 49.132C22.2599 50.2991 23.202 51.2412 24.3692 51.2412H27.8846V64.8812C27.8846 66.0483 28.8268 66.9905 29.9939 66.9905C31.161 66.9905 32.1032 66.0483 32.1032 64.8812V51.2412H35.6186C36.7857 51.2412 37.7279 50.2991 37.7279 49.132C37.7279 47.9648 36.7857 47.0227 35.6186 47.0227Z" fill="white"/>
<path id="Vector_4" d="M50.3274 48.6116C50.3133 48.5975 50.3133 48.5694 50.2992 48.5554C49.9196 47.6273 49.0196 47.0226 48.0072 47.0226C46.9947 47.0226 46.1088 47.6273 45.7151 48.5554C45.701 48.5694 45.701 48.5835 45.701 48.6116L39.8372 64.1359C39.4294 65.2186 39.9779 66.442 41.0606 66.8498C41.2997 66.9482 41.5528 66.9904 41.8059 66.9904C42.6637 66.9904 43.4652 66.4701 43.7745 65.6264L44.5339 63.6156H51.4523L52.2116 65.6264C52.6194 66.7232 53.8428 67.2716 54.9256 66.8639C56.0224 66.4561 56.5708 65.2327 56.163 64.1499L50.3274 48.6116ZM46.1369 59.397L48.0072 54.4473L49.8633 59.397H46.1369Z" fill="white"/>
<path id="Vector_5" d="M69.9014 47.9086L65.9922 53.3786L62.083 47.9086C61.408 46.9664 60.0862 46.7415 59.1441 47.4164C58.2019 48.0914 57.9769 49.4132 58.6519 50.3553L63.4048 57.0066L58.6519 63.6578C57.9769 64.6 58.1879 65.9218 59.1441 66.5967C59.5097 66.8639 59.9456 66.9905 60.3674 66.9905C61.0284 66.9905 61.6752 66.6811 62.083 66.1046L65.9922 60.6345L69.9014 66.1046C70.3091 66.6811 70.956 66.9905 71.6169 66.9905C72.0388 66.9905 72.4747 66.8639 72.8403 66.5967C73.7824 65.9218 74.0074 64.6 73.3324 63.6578L68.5795 57.0066L73.3324 50.3553C74.0074 49.4132 73.7965 48.0914 72.8403 47.4164C71.8981 46.7415 70.5763 46.9524 69.9014 47.9086Z" fill="white"/>
<path id="Vector_6" d="M43.4933 21.1489H33.3688C32.2017 21.1489 31.2595 22.091 31.2595 23.2582C31.2595 24.4253 32.2017 25.3674 33.3688 25.3674H43.4933C44.6604 25.3674 45.6026 24.4253 45.6026 23.2582C45.6026 22.091 44.6604 21.1489 43.4933 21.1489Z" fill="white"/>
<path id="Vector_7" d="M43.4933 30.1484H33.3688C32.2017 30.1484 31.2595 31.0905 31.2595 32.2577C31.2595 33.4248 32.2017 34.3669 33.3688 34.3669H43.4933C44.6604 34.3669 45.6026 33.4248 45.6026 32.2577C45.6026 31.0905 44.6604 30.1484 43.4933 30.1484Z" fill="white"/>
</g>
</g>
</g>
</g>
</g>
</g>
</svg>
