<svg width="246" height="178" viewBox="0 0 246 178" fill="none" xmlns="http://www.w3.org/2000/svg">
<rect width="246" height="178" fill="white"/>
<path d="M31.9118 118.555V125.629C31.9118 127.155 32.0799 128.105 32.4161 128.474C32.8687 128.997 33.5541 129.263 34.4787 129.263H35.4097V129.922H25V129.263H25.9117C26.9397 129.263 27.6703 128.926 28.1165 128.26C28.3557 127.892 28.4721 127.012 28.4721 125.629V109.937C28.4721 108.411 28.3104 107.46 27.9871 107.092C27.5216 106.568 26.8298 106.303 25.9117 106.303H25V105.643H33.9032C36.0757 105.643 37.7891 105.87 39.0434 106.316C40.2978 106.762 41.3517 107.518 42.2116 108.579C43.0716 109.639 43.5048 110.9 43.5048 112.355C43.5048 114.34 42.8517 115.95 41.5457 117.191C40.2396 118.433 38.3904 119.053 36.0046 119.053C35.4162 119.053 34.789 119.014 34.1037 118.93C33.4183 118.846 32.6877 118.717 31.9118 118.555ZM31.9118 117.534C32.5454 117.657 33.108 117.741 33.5929 117.805C34.0843 117.864 34.4981 117.896 34.8472 117.896C36.0886 117.896 37.1619 117.417 38.0607 116.454C38.9594 115.497 39.412 114.249 39.412 112.717C39.412 111.663 39.1986 110.693 38.7654 109.788C38.3322 108.889 37.7244 108.21 36.9356 107.764C36.1468 107.318 35.2546 107.092 34.2459 107.092C33.6381 107.092 32.8558 107.208 31.8989 107.434V117.534H31.9118Z" fill="url(#paint0_linear_29_13)"/>
<path d="M55.7507 116.454L64.7057 125.357C66.1734 126.825 67.4277 127.827 68.4687 128.357C69.5097 128.888 70.5442 129.191 71.5852 129.263V129.922H60.031V129.263C60.7228 129.263 61.2207 129.146 61.5246 128.913C61.8284 128.681 61.9836 128.422 61.9836 128.138C61.9836 127.853 61.9254 127.594 61.8155 127.368C61.7056 127.142 61.3306 126.715 60.697 126.094L52.3174 117.805V125.629C52.3174 126.857 52.395 127.672 52.5502 128.066C52.6731 128.364 52.9187 128.622 53.3002 128.836C53.811 129.12 54.3541 129.269 54.9296 129.269H55.7572V129.928H45.3992V129.269H46.2591C47.2613 129.269 47.9919 128.978 48.4445 128.39C48.729 128.008 48.8712 127.09 48.8712 125.629V109.937C48.8712 108.708 48.7936 107.887 48.6385 107.486C48.5221 107.202 48.2764 106.949 47.9014 106.736C47.3777 106.452 46.8281 106.309 46.2526 106.309H45.3927V105.65H55.7442V106.309H54.9166C54.3541 106.309 53.811 106.445 53.2873 106.723C52.9187 106.917 52.6601 107.202 52.5179 107.583C52.3756 107.965 52.3045 108.753 52.3045 109.95V117.385C52.5437 117.159 53.3584 116.402 54.755 115.109C58.3047 111.863 60.4448 109.691 61.1819 108.605C61.5052 108.126 61.6668 107.712 61.6668 107.35C61.6668 107.079 61.544 106.833 61.2918 106.626C61.0396 106.419 60.6194 106.316 60.0181 106.316H59.462V105.656H68.3846V106.316C67.8609 106.329 67.3825 106.4 66.9493 106.529C66.5161 106.659 65.9923 106.917 65.3716 107.292C64.7509 107.667 63.988 108.275 63.0763 109.109C62.8112 109.348 61.6021 110.57 59.4426 112.782L55.7507 116.454Z" fill="url(#paint1_linear_29_13)"/>
<path d="M88.0985 105.081V113.48H87.439C87.2257 111.87 86.8377 110.583 86.2817 109.633C85.7256 108.676 84.9368 107.919 83.9088 107.357C82.8807 106.794 81.8204 106.516 80.7212 106.516C79.4798 106.516 78.4517 106.898 77.6371 107.654C76.8224 108.411 76.4215 109.277 76.4215 110.241C76.4215 110.978 76.6801 111.656 77.1909 112.264C77.928 113.157 79.6932 114.353 82.4734 115.846C84.7428 117.062 86.2881 117.999 87.1222 118.652C87.9498 119.305 88.5899 120.068 89.0361 120.954C89.4822 121.84 89.7085 122.765 89.7085 123.728C89.7085 125.564 88.9973 127.155 87.5683 128.487C86.1394 129.819 84.3032 130.485 82.0596 130.485C81.3548 130.485 80.6889 130.433 80.0682 130.323C79.6996 130.265 78.9302 130.045 77.7664 129.67C76.6026 129.295 75.8655 129.107 75.5551 129.107C75.2577 129.107 75.0185 129.198 74.8504 129.379C74.6758 129.56 74.5465 129.928 74.4624 130.491H73.8029V122.163H74.4624C74.7728 123.909 75.193 125.209 75.7168 126.075C76.2405 126.941 77.0487 127.659 78.1285 128.234C79.2082 128.81 80.3914 129.094 81.6846 129.094C83.1782 129.094 84.3549 128.7 85.2213 127.911C86.0877 127.122 86.5209 126.191 86.5209 125.118C86.5209 124.523 86.3593 123.915 86.0295 123.308C85.6998 122.7 85.189 122.131 84.4971 121.607C84.0316 121.245 82.7579 120.489 80.6824 119.325C78.6069 118.161 77.1263 117.23 76.2469 116.538C75.3676 115.846 74.7017 115.083 74.2491 114.243C73.7965 113.409 73.5702 112.491 73.5702 111.482C73.5702 109.736 74.2361 108.236 75.5745 106.975C76.9129 105.715 78.6134 105.087 80.6759 105.087C81.9626 105.087 83.3333 105.404 84.7752 106.038C85.4411 106.335 85.9131 106.484 86.1912 106.484C86.5015 106.484 86.7537 106.393 86.9541 106.206C87.1481 106.018 87.3097 105.65 87.4261 105.087H88.0985V105.081Z" fill="url(#paint2_linear_29_13)"/>
<path d="M121.882 123.211L122.47 123.334L120.395 129.922H101.586V129.263H102.498C103.526 129.263 104.256 128.926 104.702 128.26C104.954 127.879 105.077 126.993 105.077 125.609V109.937C105.077 108.417 104.909 107.473 104.573 107.092C104.107 106.568 103.416 106.303 102.498 106.303H101.586V105.643H112.584V106.303C111.291 106.29 110.392 106.406 109.868 106.659C109.351 106.911 108.996 107.228 108.802 107.609C108.608 107.99 108.517 108.902 108.517 110.35V125.609C108.517 126.599 108.614 127.284 108.802 127.653C108.944 127.905 109.164 128.092 109.461 128.209C109.758 128.331 110.69 128.39 112.254 128.39H114.026C115.888 128.39 117.194 128.254 117.951 127.976C118.707 127.698 119.392 127.213 120.013 126.515C120.64 125.816 121.254 124.717 121.882 123.211Z" fill="url(#paint3_linear_29_13)"/>
<path d="M130.927 106.962V116.564H136.268C137.651 116.564 138.576 116.357 139.042 115.937C139.662 115.387 140.011 114.417 140.083 113.034H140.742V121.484H140.083C139.914 120.301 139.746 119.545 139.578 119.208C139.365 118.788 139.009 118.465 138.524 118.226C138.033 117.986 137.283 117.87 136.268 117.87H130.927V125.875C130.927 126.948 130.972 127.601 131.069 127.834C131.166 128.066 131.334 128.254 131.574 128.39C131.813 128.525 132.266 128.597 132.932 128.597H137.05C138.421 128.597 139.423 128.5 140.044 128.312C140.664 128.118 141.266 127.743 141.835 127.187C142.572 126.45 143.335 125.331 144.111 123.838H144.828L142.733 129.928H124.015V129.269H124.875C125.451 129.269 125.994 129.133 126.505 128.855C126.886 128.661 127.145 128.377 127.281 127.995C127.416 127.614 127.487 126.831 127.487 125.648V109.872C127.487 108.333 127.332 107.383 127.022 107.027C126.595 106.549 125.877 106.309 124.875 106.309H124.015V105.65H142.733L143.005 110.971H142.307C142.055 109.691 141.777 108.818 141.473 108.34C141.169 107.861 140.716 107.499 140.121 107.247C139.643 107.066 138.802 106.975 137.593 106.975H130.927V106.962Z" fill="url(#paint4_linear_29_13)"/>
<path d="M168.176 105.081L168.803 112.749H168.176C167.542 110.835 166.728 109.4 165.725 108.43C164.284 107.034 162.422 106.335 160.159 106.335C157.068 106.335 154.714 107.557 153.104 110.008C151.753 112.07 151.081 114.534 151.081 117.385C151.081 119.7 151.527 121.814 152.426 123.728C153.324 125.642 154.495 127.038 155.943 127.931C157.391 128.816 158.885 129.263 160.411 129.263C161.303 129.263 162.169 129.146 163.01 128.92C163.844 128.694 164.652 128.357 165.428 127.918V120.896C165.428 119.68 165.338 118.879 165.15 118.504C164.963 118.129 164.678 117.844 164.29 117.644C163.902 117.45 163.217 117.346 162.24 117.346V116.667H171.642V117.346H171.195C170.264 117.346 169.624 117.657 169.282 118.277C169.042 118.717 168.92 119.59 168.92 120.896V128.331C167.549 129.069 166.191 129.612 164.853 129.961C163.514 130.304 162.027 130.478 160.391 130.478C155.697 130.478 152.135 128.972 149.697 125.965C147.867 123.709 146.956 121.103 146.956 118.154C146.956 116.014 147.466 113.971 148.494 112.012C149.71 109.684 151.385 107.893 153.512 106.639C155.29 105.598 157.391 105.081 159.816 105.081C160.702 105.081 161.503 105.152 162.228 105.294C162.952 105.437 163.973 105.753 165.299 106.245C165.965 106.497 166.417 106.62 166.644 106.62C166.87 106.62 167.064 106.516 167.226 106.309C167.387 106.102 167.484 105.689 167.523 105.081H168.176Z" fill="url(#paint5_linear_29_13)"/>
<path d="M188.937 121.795H179.536L177.887 125.629C177.48 126.573 177.28 127.278 177.28 127.743C177.28 128.112 177.454 128.441 177.81 128.719C178.159 128.997 178.922 129.185 180.092 129.269V129.929H172.443V129.269C173.458 129.088 174.112 128.855 174.415 128.571C175.023 127.995 175.702 126.831 176.439 125.079L184.98 105.087H185.607L194.065 125.293C194.743 126.916 195.364 127.969 195.92 128.454C196.476 128.939 197.246 129.211 198.241 129.269V129.929H188.659V129.269C189.629 129.224 190.282 129.062 190.618 128.784C190.961 128.513 191.129 128.176 191.129 127.782C191.129 127.258 190.89 126.424 190.411 125.293L188.937 121.795ZM188.433 120.469L184.314 110.654L180.086 120.469H188.433Z" fill="url(#paint6_linear_29_13)"/>
<path d="M219.675 123.211L220.263 123.334L218.188 129.922H199.379V129.263H200.291C201.319 129.263 202.05 128.926 202.496 128.26C202.748 127.879 202.871 126.993 202.871 125.609V109.937C202.871 108.417 202.703 107.473 202.366 107.092C201.901 106.568 201.209 106.303 200.291 106.303H199.379V105.643H210.377V106.303C209.084 106.29 208.186 106.406 207.662 106.659C207.145 106.911 206.789 107.228 206.595 107.609C206.401 107.99 206.31 108.902 206.31 110.35V125.609C206.31 126.599 206.407 127.284 206.595 127.653C206.737 127.905 206.957 128.092 207.254 128.209C207.552 128.331 208.483 128.39 210.048 128.39H211.819C213.681 128.39 214.987 128.254 215.744 127.976C216.494 127.704 217.186 127.213 217.806 126.515C218.427 125.816 219.048 124.717 219.675 123.211Z" fill="url(#paint7_linear_29_13)"/>
<path d="M51.9231 143.067H48.4122L47.7657 144.858H46.6536L49.5631 136.853H50.7787L53.6753 144.858H52.5697L51.9231 143.067ZM51.6257 142.213L50.1709 138.146L48.7161 142.213H51.6257Z" fill="#6B6D6B"/>
<path d="M59.7401 137.299C60.3802 137.629 60.878 138.095 61.2207 138.702C61.5634 139.31 61.738 140.028 61.738 140.849C61.738 141.67 61.5634 142.388 61.2207 142.989C60.878 143.597 60.3866 144.056 59.7401 144.373C59.1 144.69 58.337 144.851 57.4577 144.851H54.949V136.802H57.4577C58.337 136.808 59.0935 136.97 59.7401 137.299ZM59.8371 143.164C60.3866 142.614 60.6582 141.838 60.6582 140.849C60.6582 139.847 60.3802 139.064 59.8306 138.502C59.281 137.939 58.4857 137.661 57.4577 137.661H56.0029V143.991H57.4577C58.4987 143.991 59.2875 143.713 59.8371 143.164Z" fill="#6B6D6B"/>
<path d="M69.7683 136.808L66.7295 144.858H65.5139L62.475 136.808H63.5936L66.1217 143.752L68.6498 136.808H69.7683Z" fill="#6B6D6B"/>
<path d="M72.5292 144.412C71.9149 144.062 71.4235 143.571 71.0679 142.944C70.7123 142.317 70.5313 141.612 70.5313 140.823C70.5313 140.034 70.7123 139.33 71.0679 138.702C71.4235 138.075 71.9149 137.584 72.5292 137.235C73.1434 136.886 73.8288 136.711 74.5723 136.711C75.3288 136.711 76.0142 136.886 76.6284 137.235C77.2427 137.584 77.7276 138.069 78.0832 138.696C78.4388 139.323 78.6134 140.028 78.6134 140.823C78.6134 141.618 78.4388 142.323 78.0832 142.95C77.7276 143.571 77.2427 144.062 76.6284 144.412C76.0142 144.761 75.3288 144.935 74.5723 144.935C73.8288 144.935 73.1499 144.761 72.5292 144.412ZM76.0918 143.636C76.5444 143.371 76.8935 143.002 77.1521 142.517C77.4108 142.032 77.5401 141.47 77.5401 140.83C77.5401 140.183 77.4108 139.621 77.1521 139.136C76.8935 138.657 76.5444 138.282 76.0982 138.024C75.6521 137.758 75.1413 137.629 74.5723 137.629C74.0033 137.629 73.4926 137.758 73.0464 138.024C72.6003 138.289 72.2447 138.657 71.9925 139.136C71.7339 139.621 71.6046 140.183 71.6046 140.83C71.6046 141.47 71.7339 142.032 71.9925 142.517C72.2512 143.002 72.6068 143.377 73.0529 143.636C73.499 143.894 74.0098 144.03 74.5723 144.03C75.1348 144.024 75.6456 143.894 76.0918 143.636Z" fill="#6B6D6B"/>
<path d="M80.1457 138.709C80.5013 138.082 80.9863 137.59 81.594 137.235C82.2018 136.879 82.8872 136.705 83.6307 136.705C84.5101 136.705 85.273 136.918 85.9325 137.338C86.5855 137.758 87.064 138.36 87.3679 139.142H86.1006C85.8743 138.657 85.5575 138.282 85.1372 138.024C84.717 137.758 84.2126 137.629 83.6307 137.629C83.0682 137.629 82.5639 137.758 82.1177 138.024C81.6716 138.289 81.3225 138.657 81.0638 139.136C80.8117 139.621 80.6824 140.183 80.6824 140.83C80.6824 141.47 80.8117 142.032 81.0638 142.511C81.316 142.989 81.6716 143.364 82.1177 143.623C82.5639 143.881 83.0682 144.017 83.6307 144.017C84.2126 144.017 84.717 143.888 85.1372 143.629C85.5575 143.371 85.8808 143.002 86.1006 142.517H87.3614C87.064 143.287 86.5855 143.881 85.926 144.302C85.2665 144.722 84.5036 144.929 83.6243 144.929C82.8742 144.929 82.1953 144.754 81.5876 144.405C80.9733 144.056 80.4949 143.571 80.1393 142.944C79.7836 142.317 79.6091 141.618 79.6091 140.83C79.6091 140.041 79.7901 139.336 80.1457 138.709Z" fill="#6B6D6B"/>
<path d="M93.6784 143.067H90.1676L89.521 144.858H88.4089L91.3185 136.853H92.534L95.4306 144.858H94.325L93.6784 143.067ZM93.381 142.213L91.9262 138.146L90.4715 142.213H93.381Z" fill="#6B6D6B"/>
<path d="M101.664 136.808V137.661H99.4717V144.858H98.4177V137.661H96.213V136.808H101.664Z" fill="#6B6D6B"/>
<path d="M104.011 137.661V140.351H106.946V141.218H104.011V143.991H107.289V144.858H102.957V136.795H107.289V137.661H104.011Z" fill="#6B6D6B"/>
<path d="M110.011 144.657C109.59 144.47 109.261 144.205 109.021 143.875C108.782 143.539 108.659 143.151 108.653 142.711H109.771C109.81 143.086 109.965 143.409 110.237 143.662C110.509 143.92 110.909 144.05 111.433 144.05C111.931 144.05 112.325 143.927 112.616 143.675C112.907 143.422 113.05 143.106 113.05 142.711C113.05 142.401 112.965 142.155 112.797 141.961C112.629 141.767 112.416 141.625 112.164 141.521C111.912 141.424 111.569 141.315 111.136 141.198C110.606 141.062 110.179 140.92 109.862 140.784C109.545 140.649 109.267 140.429 109.041 140.131C108.815 139.834 108.698 139.433 108.698 138.935C108.698 138.496 108.808 138.108 109.034 137.771C109.261 137.435 109.571 137.17 109.978 136.989C110.379 136.802 110.845 136.711 111.368 136.711C112.125 136.711 112.739 136.899 113.224 137.28C113.703 137.655 113.974 138.159 114.039 138.78H112.881C112.843 138.47 112.681 138.198 112.397 137.965C112.112 137.733 111.737 137.616 111.265 137.616C110.825 137.616 110.47 137.733 110.192 137.959C109.914 138.185 109.778 138.502 109.778 138.909C109.778 139.2 109.862 139.44 110.024 139.627C110.192 139.815 110.392 139.95 110.638 140.047C110.884 140.144 111.22 140.254 111.659 140.377C112.19 140.526 112.616 140.668 112.94 140.81C113.263 140.952 113.541 141.172 113.774 141.47C114.006 141.767 114.123 142.168 114.123 142.679C114.123 143.073 114.019 143.442 113.812 143.784C113.606 144.134 113.295 144.412 112.888 144.625C112.481 144.838 111.996 144.948 111.446 144.948C110.903 144.935 110.424 144.845 110.011 144.657Z" fill="#6B6D6B"/>
<path d="M124.927 144.858L123.873 143.797C123.479 144.205 123.058 144.509 122.612 144.703C122.166 144.897 121.662 145 121.099 145C120.543 145 120.052 144.897 119.625 144.703C119.198 144.502 118.869 144.218 118.629 143.849C118.397 143.481 118.28 143.047 118.28 142.556C118.28 141.993 118.442 141.502 118.759 141.069C119.076 140.636 119.548 140.306 120.175 140.06C119.929 139.769 119.748 139.498 119.645 139.252C119.535 139.006 119.483 138.735 119.483 138.444C119.483 138.108 119.567 137.797 119.742 137.526C119.916 137.254 120.162 137.041 120.485 136.886C120.808 136.73 121.183 136.653 121.604 136.653C122.017 136.653 122.38 136.73 122.69 136.899C123 137.06 123.227 137.286 123.382 137.571C123.537 137.862 123.602 138.179 123.589 138.534H122.535C122.541 138.217 122.457 137.972 122.27 137.791C122.082 137.61 121.849 137.519 121.552 137.519C121.242 137.519 120.996 137.603 120.808 137.778C120.621 137.952 120.524 138.172 120.524 138.444C120.524 138.677 120.589 138.896 120.711 139.116C120.841 139.33 121.054 139.595 121.351 139.912L123.757 142.323L123.964 142L124.746 140.681H125.877L124.933 142.323C124.804 142.556 124.649 142.795 124.474 143.054L126.285 144.864H124.927V144.858ZM122.231 143.849C122.567 143.687 122.884 143.435 123.181 143.099L120.815 140.72C119.832 141.095 119.334 141.696 119.334 142.511C119.334 142.963 119.496 143.345 119.826 143.642C120.155 143.94 120.576 144.095 121.099 144.095C121.52 144.095 121.895 144.017 122.231 143.849Z" fill="#6B6D6B"/>
<path d="M135.123 143.067H131.612L130.966 144.858H129.86L132.77 136.853H133.985L136.882 144.858H135.77L135.123 143.067ZM134.826 142.213L133.371 138.146L131.916 142.213H134.826Z" fill="#6B6D6B"/>
<path d="M139.281 144.657C138.861 144.47 138.531 144.205 138.292 143.875C138.052 143.539 137.93 143.151 137.923 142.711H139.042C139.08 143.086 139.236 143.409 139.507 143.662C139.779 143.92 140.18 144.05 140.703 144.05C141.201 144.05 141.596 143.927 141.887 143.675C142.178 143.422 142.32 143.106 142.32 142.711C142.32 142.401 142.236 142.155 142.068 141.961C141.899 141.767 141.686 141.625 141.434 141.521C141.182 141.424 140.839 141.315 140.406 141.198C139.876 141.062 139.449 140.92 139.132 140.784C138.809 140.649 138.537 140.429 138.311 140.131C138.085 139.834 137.968 139.433 137.968 138.935C137.968 138.496 138.078 138.108 138.305 137.771C138.531 137.435 138.841 137.17 139.249 136.989C139.656 136.802 140.115 136.711 140.639 136.711C141.395 136.711 142.009 136.899 142.494 137.28C142.973 137.655 143.244 138.159 143.309 138.78H142.152C142.113 138.47 141.951 138.198 141.667 137.965C141.382 137.733 141.007 137.616 140.535 137.616C140.096 137.616 139.74 137.733 139.462 137.959C139.184 138.185 139.048 138.502 139.048 138.909C139.048 139.2 139.132 139.44 139.294 139.627C139.462 139.815 139.662 139.95 139.908 140.047C140.154 140.144 140.49 140.254 140.93 140.377C141.46 140.526 141.887 140.668 142.21 140.81C142.533 140.952 142.811 141.172 143.044 141.47C143.277 141.767 143.393 142.168 143.393 142.679C143.393 143.073 143.29 143.442 143.083 143.784C142.876 144.134 142.565 144.412 142.158 144.625C141.751 144.838 141.266 144.948 140.716 144.948C140.173 144.935 139.701 144.845 139.281 144.657Z" fill="#6B6D6B"/>
<path d="M146.057 144.657C145.637 144.47 145.307 144.205 145.068 143.875C144.828 143.539 144.706 143.151 144.699 142.711H145.818C145.856 143.086 146.012 143.409 146.283 143.662C146.555 143.92 146.956 144.05 147.479 144.05C147.977 144.05 148.372 143.927 148.663 143.675C148.953 143.422 149.096 143.106 149.096 142.711C149.096 142.401 149.012 142.155 148.844 141.961C148.675 141.767 148.462 141.625 148.21 141.521C147.958 141.424 147.615 141.315 147.182 141.198C146.652 141.062 146.225 140.92 145.908 140.784C145.585 140.649 145.313 140.429 145.087 140.131C144.861 139.834 144.744 139.433 144.744 138.935C144.744 138.496 144.854 138.108 145.081 137.771C145.307 137.435 145.617 137.17 146.025 136.989C146.432 136.802 146.891 136.711 147.415 136.711C148.171 136.711 148.785 136.899 149.27 137.28C149.749 137.655 150.02 138.159 150.085 138.78H148.928C148.889 138.47 148.727 138.198 148.443 137.965C148.158 137.733 147.783 137.616 147.311 137.616C146.872 137.616 146.516 137.733 146.238 137.959C145.96 138.185 145.824 138.502 145.824 138.909C145.824 139.2 145.908 139.44 146.07 139.627C146.238 139.815 146.438 139.95 146.684 140.047C146.93 140.144 147.266 140.254 147.706 140.377C148.236 140.526 148.663 140.668 148.986 140.81C149.309 140.952 149.587 141.172 149.82 141.47C150.053 141.767 150.169 142.168 150.169 142.679C150.169 143.073 150.066 143.442 149.859 143.784C149.652 144.134 149.341 144.412 148.934 144.625C148.527 144.838 148.042 144.948 147.492 144.948C146.956 144.935 146.477 144.845 146.057 144.657Z" fill="#6B6D6B"/>
<path d="M153.318 144.412C152.704 144.062 152.212 143.571 151.857 142.944C151.501 142.317 151.32 141.612 151.32 140.823C151.32 140.034 151.501 139.33 151.857 138.702C152.212 138.075 152.704 137.584 153.318 137.235C153.932 136.886 154.617 136.711 155.361 136.711C156.117 136.711 156.803 136.886 157.417 137.235C158.031 137.584 158.516 138.069 158.872 138.696C159.227 139.323 159.402 140.028 159.402 140.823C159.402 141.618 159.227 142.323 158.872 142.95C158.516 143.571 158.031 144.062 157.417 144.412C156.803 144.761 156.117 144.935 155.361 144.935C154.617 144.935 153.932 144.761 153.318 144.412ZM156.88 143.636C157.333 143.371 157.689 143.002 157.941 142.517C158.199 142.032 158.329 141.47 158.329 140.83C158.329 140.183 158.199 139.621 157.941 139.136C157.682 138.657 157.333 138.282 156.887 138.024C156.441 137.758 155.93 137.629 155.361 137.629C154.792 137.629 154.281 137.758 153.835 138.024C153.389 138.289 153.033 138.657 152.781 139.136C152.523 139.621 152.393 140.183 152.393 140.83C152.393 141.47 152.523 142.032 152.781 142.517C153.04 143.002 153.395 143.377 153.842 143.636C154.294 143.901 154.798 144.03 155.361 144.03C155.923 144.024 156.434 143.894 156.88 143.636Z" fill="#6B6D6B"/>
<path d="M160.928 138.709C161.283 138.082 161.768 137.59 162.376 137.235C162.99 136.879 163.669 136.705 164.413 136.705C165.292 136.705 166.055 136.918 166.715 137.338C167.368 137.758 167.846 138.36 168.144 139.142H166.883C166.656 138.657 166.34 138.282 165.919 138.024C165.499 137.758 164.995 137.629 164.413 137.629C163.85 137.629 163.346 137.758 162.9 138.024C162.454 138.289 162.105 138.657 161.852 139.136C161.6 139.621 161.471 140.183 161.471 140.83C161.471 141.47 161.6 142.032 161.852 142.511C162.105 142.989 162.454 143.364 162.9 143.623C163.346 143.881 163.85 144.017 164.413 144.017C165.001 144.017 165.499 143.888 165.919 143.629C166.34 143.371 166.663 143.002 166.883 142.517H168.144C167.846 143.287 167.368 143.881 166.715 144.302C166.062 144.722 165.292 144.929 164.413 144.929C163.663 144.929 162.984 144.754 162.376 144.405C161.762 144.056 161.283 143.571 160.928 142.944C160.572 142.317 160.398 141.618 160.398 140.83C160.398 140.041 160.579 139.336 160.928 138.709Z" fill="#6B6D6B"/>
<path d="M170.762 136.808V144.858H169.715V136.808H170.762Z" fill="#6B6D6B"/>
<path d="M177.312 143.067H173.801L173.154 144.858H172.049L174.958 136.853H176.174L179.07 144.858H177.958L177.312 143.067ZM177.008 142.213L175.553 138.146L174.098 142.213H177.008Z" fill="#6B6D6B"/>
<path d="M185.291 136.808V137.661H183.099V144.858H182.045V137.661H179.84V136.808H185.291Z" fill="#6B6D6B"/>
<path d="M187.638 137.661V140.351H190.573V141.218H187.638V143.991H190.916V144.858H186.584V136.795H190.916V137.661H187.638Z" fill="#6B6D6B"/>
<path d="M193.638 144.657C193.217 144.47 192.888 144.205 192.649 143.875C192.409 143.539 192.286 143.151 192.28 142.711H193.399C193.437 143.086 193.593 143.409 193.864 143.662C194.136 143.92 194.536 144.05 195.06 144.05C195.558 144.05 195.952 143.927 196.243 143.675C196.534 143.422 196.677 143.106 196.677 142.711C196.677 142.401 196.593 142.155 196.424 141.961C196.256 141.767 196.043 141.625 195.791 141.521C195.539 141.424 195.196 141.315 194.763 141.198C194.233 141.062 193.806 140.92 193.489 140.784C193.166 140.649 192.894 140.429 192.668 140.131C192.442 139.834 192.325 139.433 192.325 138.935C192.325 138.496 192.435 138.108 192.661 137.771C192.888 137.435 193.198 137.17 193.605 136.989C194.013 136.802 194.472 136.711 194.996 136.711C195.752 136.711 196.366 136.899 196.851 137.28C197.33 137.655 197.601 138.159 197.666 138.78H196.509C196.47 138.47 196.308 138.198 196.024 137.965C195.739 137.733 195.364 137.616 194.892 137.616C194.452 137.616 194.097 137.733 193.819 137.959C193.541 138.185 193.405 138.502 193.405 138.909C193.405 139.2 193.489 139.44 193.651 139.627C193.819 139.815 194.019 139.95 194.265 140.047C194.511 140.144 194.847 140.254 195.287 140.377C195.817 140.526 196.243 140.668 196.567 140.81C196.89 140.952 197.168 141.172 197.401 141.47C197.634 141.767 197.75 142.168 197.75 142.679C197.75 143.073 197.646 143.442 197.44 143.784C197.233 144.134 196.922 144.412 196.515 144.625C196.108 144.838 195.623 144.948 195.073 144.948C194.53 144.935 194.058 144.845 193.638 144.657Z" fill="#6B6D6B"/>
<path d="M149.678 64.2243H149.219L142.365 44.7432C142.805 44.6915 143.154 44.31 143.154 43.8574C143.154 43.4307 142.856 43.0751 142.455 42.9846V42.6742C142.656 42.5966 142.856 42.5126 143.05 42.4156C143.464 42.2087 143.975 41.8078 143.684 41.3617C143.225 40.6634 142.488 41.5298 142.009 41.7044C141.311 41.963 140.574 41.9436 139.843 41.866C138.13 41.6785 136.494 40.8315 134.852 40.353C131.664 39.4285 128.684 38.7108 125.367 38.7883C125.25 38.7883 124.235 38.8595 123.375 38.9759C123.369 38.9371 123.362 38.8983 123.349 38.8659C123.64 38.7108 123.815 38.5039 123.815 38.2711C123.815 38.0448 123.647 37.8444 123.375 37.6892C123.433 37.6051 123.466 37.5081 123.466 37.4112C123.466 37.159 123.259 36.9327 122.936 36.7969C123.175 36.3831 123.323 35.84 123.323 35.3809C123.323 34.715 123 34.4434 122.541 34.3594C123.039 34.1913 123.401 33.7193 123.401 33.1632C123.401 32.4649 122.839 31.9024 122.14 31.9024C121.442 31.9024 120.879 32.4649 120.879 33.1632C120.879 33.7193 121.242 34.1913 121.739 34.3594C121.287 34.4434 120.957 34.715 120.957 35.3809C120.957 35.8335 121.106 36.3831 121.345 36.7969C121.022 36.9392 120.815 37.159 120.815 37.4112C120.815 37.5081 120.847 37.6051 120.905 37.6892C120.634 37.8444 120.466 38.0448 120.466 38.2711C120.466 38.5233 120.679 38.7496 121.009 38.9047C121.002 38.9306 120.996 38.95 120.996 38.9759C120.136 38.8595 119.121 38.7883 119.004 38.7883C115.688 38.7108 112.707 39.4285 109.519 40.353C107.871 40.8315 106.241 41.6785 104.528 41.866C103.797 41.9501 103.054 41.963 102.362 41.7044C101.883 41.5233 101.146 40.6634 100.687 41.3617C100.396 41.8078 100.907 42.2087 101.321 42.4156C101.521 42.5126 101.722 42.6031 101.916 42.6742V42.9846C101.515 43.0751 101.217 43.4307 101.217 43.8574C101.217 44.3165 101.56 44.6915 102.006 44.7432L95.1525 64.2243H94.6935C94.3896 64.2243 94.1439 64.47 94.1439 64.7739C94.1439 65.0649 94.3702 65.2976 94.6482 65.317C94.8228 67.0951 98.0944 68.5046 102.11 68.5046C106.125 68.5046 109.403 67.0886 109.571 65.317C109.855 65.2976 110.075 65.0584 110.075 64.7739C110.075 64.47 109.83 64.2243 109.526 64.2243H109.067L102.22 44.7432C102.659 44.6915 103.008 44.31 103.008 43.8574C103.008 43.4307 102.711 43.0751 102.31 42.9846V42.81C107.024 44.2389 112.106 39.6483 121.183 41.7626C121.183 41.7626 122.121 42.2927 123.168 41.7626C132.246 39.6483 137.328 44.2389 142.042 42.81V42.9846C141.641 43.0751 141.343 43.4307 141.343 43.8574C141.343 44.3165 141.686 44.6915 142.132 44.7432L135.279 64.2243H134.819C134.516 64.2243 134.27 64.47 134.27 64.7739C134.27 65.0649 134.496 65.2976 134.774 65.317C134.949 67.0951 138.22 68.5046 142.236 68.5046C146.251 68.5046 149.522 67.0886 149.697 65.317C149.981 65.2976 150.201 65.0584 150.201 64.7739C150.227 64.47 149.981 64.2243 149.678 64.2243ZM101.922 64.2243H95.5857L101.922 46.198V64.2243ZM102.323 46.2045L108.659 64.2308H102.323V46.2045ZM102.62 43.8574C102.62 44.129 102.394 44.3553 102.123 44.3553C101.851 44.3553 101.625 44.129 101.625 43.8574C101.625 43.5859 101.851 43.3596 102.123 43.3596C102.394 43.3596 102.62 43.5794 102.62 43.8574ZM142.055 64.2243H135.718L142.055 46.198V64.2243ZM141.757 43.8574C141.757 43.5859 141.977 43.3596 142.255 43.3596C142.527 43.3596 142.753 43.5859 142.753 43.8574C142.753 44.129 142.527 44.3553 142.255 44.3553C141.983 44.3553 141.757 44.129 141.757 43.8574ZM142.455 64.2243V46.2045L148.792 64.2308H142.455V64.2243Z" fill="url(#paint8_linear_29_13)"/>
<path fill-rule="evenodd" clip-rule="evenodd" d="M123.75 93.016C124.714 87.6236 127.378 82.8842 131.076 78.5522C128.994 74.5565 127.494 70.3861 126.977 65.9248H127.242C127.63 65.9248 127.947 65.608 127.947 65.22V64.1403C127.947 63.7523 127.63 63.4355 127.242 63.4355H126.925V62.4721H128.069C128.457 62.4721 128.774 62.1553 128.774 61.7674V60.6876C128.774 60.2996 128.457 59.9828 128.069 59.9828H126.925V43.7669C125.949 43.8251 124.979 43.935 123.99 44.1549C123.421 44.3876 122.826 44.5105 122.205 44.5105C121.436 44.5105 120.808 44.323 120.401 44.1549C119.179 43.8833 117.989 43.7604 116.787 43.7281V59.9893H115.642C115.254 59.9893 114.944 60.3061 114.944 60.694V61.7738C114.944 62.1618 115.261 62.4786 115.642 62.4786H116.787V63.442H116.464C116.076 63.442 115.765 63.7588 115.765 64.1467V65.2265C115.765 65.6144 116.082 65.9312 116.464 65.9312H116.742C116.211 70.6577 114.795 74.7892 112.81 78.5393C116.929 83.02 119.153 87.8951 120.007 93.0548C119.716 93.197 119.509 93.4944 119.509 93.8436C119.509 94.3285 119.903 94.7229 120.388 94.7229C120.86 94.7229 121.229 94.3544 121.261 93.8888H121.274V76.438C120.718 76.1987 120.336 75.6492 120.336 75.0026C120.336 74.1427 121.035 73.4444 121.895 73.4444C122.755 73.4444 123.453 74.1427 123.453 75.0026C123.453 75.6298 123.084 76.1664 122.554 76.4186V93.8306V93.8759H122.561C122.586 94.335 122.962 94.71 123.434 94.71C123.918 94.71 124.313 94.3156 124.313 93.8306C124.313 93.4621 124.08 93.1453 123.75 93.016Z" fill="url(#paint9_linear_29_13)"/>
<path d="M160.34 74.8539C157.941 76.5285 157.553 78.3518 157.488 78.8561C157.107 79.0824 156.751 79.2764 156.428 79.4574C156.939 78.6104 157.417 77.7505 157.857 76.8647C158.594 75.3647 159.227 73.8129 159.764 72.2353C159.822 72.0607 159.88 71.8861 159.939 71.7116C160.352 70.412 160.96 69.177 161.762 68.0714C161.814 68.0003 161.872 67.9227 161.924 67.8516C168.648 64.1661 165.564 56.6659 165.564 56.6659C165.667 58.3212 164.064 59.5884 162.422 62.6079C161.025 65.1812 161.49 66.9852 161.665 67.4636C161.322 67.9938 160.999 68.4593 160.721 68.8473C160.831 68.3623 160.934 67.8774 161.025 67.3925C161.342 65.7567 161.523 64.095 161.6 62.4333L161.626 61.8126C161.639 61.6057 161.646 61.3988 161.639 61.1919V59.944C161.633 59.5302 161.6 59.1164 161.587 58.6962C161.575 58.4893 161.575 58.2824 161.555 58.0755L161.497 57.4548C161.458 57.0409 161.484 56.6271 161.562 56.2263L162.04 53.8534C166.941 47.9567 161.316 42.1117 161.316 42.1117C162.021 43.6182 160.993 45.3769 160.579 48.7972C160.223 51.7003 161.322 53.2068 161.659 53.5947C161.523 54.2801 161.374 54.8879 161.251 55.3728L161.199 54.9849C161.154 54.5711 161.057 54.1702 160.98 53.7629L160.863 53.1551C160.824 52.9482 160.786 52.7477 160.734 52.5473C160.534 51.7456 160.352 50.9309 160.094 50.1485L159.913 49.5537L159.822 49.2563L159.719 48.9653L159.299 47.795C159.034 47.1161 158.755 46.4437 158.465 45.7713C157.934 44.5751 157.605 43.2949 157.527 41.9889C157.508 41.685 157.488 41.3875 157.456 41.0966C160.094 33.9003 152.833 30.2795 152.833 30.2795C154.003 31.4627 153.628 33.4671 154.378 36.8228C155.018 39.6806 156.557 40.7281 157.003 40.9802C157.146 41.9565 157.223 42.7777 157.262 43.3466C157.249 43.3273 157.243 43.3079 157.23 43.282L156.939 42.7389C156.842 42.5578 156.725 42.3833 156.622 42.2087L155.982 41.1483L155.29 40.1203C155.173 39.9522 155.064 39.7776 154.941 39.6095L154.572 39.1116C154.191 38.5814 153.79 38.0707 153.37 37.5728C152.788 36.8357 151.992 35.7753 151.301 35.0059C150.977 34.6438 150.693 34.2494 150.486 33.8098C147.466 27.4411 140.083 29.2321 140.083 29.2321C141.738 29.3355 142.798 31.0813 145.591 33.0921C147.803 34.6762 149.548 34.5857 150.188 34.4757C150.266 34.5016 150.357 34.5275 150.434 34.5533L151.281 35.4391C152.387 36.6547 153.441 37.909 154.365 39.2668L154.721 39.7647C154.837 39.9328 154.941 40.1073 155.051 40.2819L155.71 41.3164L155.988 41.8014C155.251 41.1806 154.514 40.6375 153.783 40.1655C149.801 33.6158 142.443 37.0297 142.443 37.0297C144.091 36.8551 145.43 38.3939 148.52 39.9004C151.152 41.1806 152.93 40.6311 153.402 40.4436C154.456 41.0643 155.335 41.6656 155.839 42.0277C156.156 42.2604 156.428 42.5514 156.609 42.907V42.9134L156.887 43.463C157.65 44.9113 158.264 46.4308 158.82 47.9631L159.202 49.127L159.299 49.4179L159.383 49.7153L159.544 50.3037C159.777 51.0861 159.939 51.8878 160.113 52.6831C160.159 52.8835 160.197 53.084 160.23 53.2844V53.2973C159.732 52.5344 159.215 51.8361 158.678 51.2024C156.79 43.7734 148.753 44.8855 148.753 44.8855C150.382 45.2023 151.21 47.0644 153.725 49.4115C155.865 51.4093 157.727 51.4029 158.238 51.3576C158.814 51.9848 159.286 52.5473 159.635 52.9805C160.12 53.5818 160.437 54.306 160.508 55.0754C160.508 55.0819 160.508 55.0819 160.508 55.0883L160.643 56.3039L160.676 56.6077L160.695 56.9116L160.734 57.5194L160.773 58.1272C160.786 58.3276 160.786 58.5345 160.792 58.735C160.799 59.1423 160.812 59.5496 160.812 59.9505L160.779 61.166C160.779 61.3665 160.766 61.5734 160.747 61.7738L160.702 62.3816C160.637 63.2609 160.54 64.1338 160.417 65.0067C160.243 64.276 160.042 63.5777 159.816 62.9247C160.702 55.3081 152.801 53.4848 152.801 53.4848C154.21 54.3642 154.32 56.4008 155.833 59.485C157.12 62.1165 158.865 62.776 159.35 62.9118C159.538 63.3838 159.699 63.8234 159.835 64.2114C160.171 65.1618 160.243 66.1899 160.023 67.1791C160.023 67.1856 160.023 67.1921 160.016 67.1921C159.667 68.7761 159.24 70.3408 158.678 71.8538C158.122 73.3732 157.462 74.8539 156.719 76.2828C156.499 76.6966 156.266 77.1039 156.027 77.5113C156.163 76.6513 156.24 75.8237 156.273 75.0349C159.887 68.2783 153.201 63.6747 153.201 63.6747C154.191 65.0067 153.544 66.9399 153.822 70.3667C154.055 73.2827 155.439 74.5371 155.839 74.8474C155.839 74.9573 155.839 75.0672 155.839 75.1772C155.827 77.0328 155.258 78.8497 154.184 80.3626C154.178 80.3691 154.171 80.3756 154.171 80.3885C153.24 81.7075 152.193 82.936 151.094 84.1127C150.809 84.3972 150.544 84.7011 150.253 84.9791L149.38 85.8132C149.367 85.8003 149.367 85.8067 149.354 85.7938C149.619 85.3218 149.859 84.8563 150.072 84.3908C156.027 79.5609 151.643 72.7331 151.643 72.7331C152.038 74.3431 150.693 75.8755 149.619 79.1471C148.708 81.9273 149.49 83.6149 149.742 84.061C149.568 84.4813 149.4 84.8692 149.238 85.2119C148.85 86.0524 148.281 86.8024 147.55 87.3714C147.544 87.3714 147.544 87.3779 147.538 87.3779C146.283 88.3801 144.971 89.3176 143.587 90.1258C142.785 90.6043 141.964 91.0439 141.124 91.4642C141.473 91.1086 141.796 90.7465 142.093 90.3844C147.796 87.7529 145.695 81.4424 145.695 81.4424C145.682 82.8002 144.305 83.7442 142.792 86.1236C141.505 88.1473 141.783 89.6473 141.899 90.0482C141.712 90.2939 141.537 90.5202 141.369 90.7271C140.826 91.4125 140.121 91.9556 139.32 92.2983C139.313 92.2983 139.313 92.3047 139.307 92.3047C137.833 92.9254 136.32 93.4427 134.781 93.8694L134.761 93.8759H134.755C134.341 93.9923 134.031 94.3673 134.018 94.8005C133.998 95.544 134.684 96.016 135.33 95.8221C136.947 95.3307 138.531 94.7358 140.07 94.044C141.609 93.3457 143.089 92.531 144.512 91.6388C145.372 91.1021 146.199 90.5202 147.007 89.906C148.1 89.0719 149.413 88.574 150.783 88.4577C157.941 91.2056 161.671 83.9963 161.671 83.9963C160.475 85.1472 158.471 84.7464 155.102 85.4447C152.238 86.0395 151.165 87.5654 150.906 88.0051C150.214 88.0956 149.607 88.1538 149.109 88.1861C149.561 87.7852 150.007 87.3714 150.447 86.9576L151.333 86.0654C151.63 85.7744 151.902 85.4511 152.186 85.1408C153.305 83.8864 154.359 82.5804 155.29 81.1838C155.309 81.1579 155.329 81.1256 155.348 81.0997C155.807 80.4144 156.428 79.8648 157.158 79.4962C157.275 79.438 157.398 79.3734 157.514 79.3087C165.176 79.0242 165.771 70.9292 165.771 70.9292C165.156 72.468 163.165 72.8883 160.34 74.8539Z" fill="url(#paint10_linear_29_13)"/>
<path d="M84.3161 74.8539C86.7148 76.5285 87.1028 78.3518 87.1674 78.8561C87.5489 79.0824 87.9045 79.2764 88.2278 79.4574C87.717 78.6104 87.2385 77.7505 86.7989 76.8647C86.0618 75.3647 85.4282 73.8129 84.8915 72.2353C84.8333 72.0607 84.7751 71.8861 84.7169 71.7116C84.2967 70.412 83.6954 69.177 82.8936 68.0714C82.8419 68.0003 82.7837 67.9227 82.732 67.8516C76.0077 64.1661 79.0918 56.6659 79.0918 56.6659C78.9883 58.3212 80.5918 59.5884 82.2341 62.6079C83.6307 65.1812 83.1652 66.9852 82.9906 67.4636C83.3333 67.9938 83.6566 68.4593 83.9346 68.8473C83.8247 68.3623 83.7212 67.8774 83.6307 67.3925C83.3139 65.7567 83.1328 64.095 83.0552 62.4333L83.0294 61.8126C83.0165 61.6057 83.01 61.3988 83.0165 61.1919V59.944C83.0229 59.5302 83.0552 59.1164 83.0682 58.6962C83.0811 58.4893 83.0811 58.2824 83.1005 58.0755L83.1587 57.4548C83.1975 57.0409 83.1716 56.6271 83.094 56.2263L82.6156 53.8534C77.7146 47.9567 83.3397 42.1117 83.3397 42.1117C82.635 43.6182 83.663 45.3769 84.0768 48.7972C84.4324 51.7003 83.3333 53.2068 82.9971 53.5947C83.1328 54.2801 83.2815 54.8879 83.4044 55.3728L83.4561 54.9849C83.5014 54.5711 83.5984 54.1702 83.676 53.7629L83.7923 53.1551C83.8311 52.9482 83.8699 52.7477 83.9216 52.5473C84.1221 51.7456 84.3031 50.9309 84.5618 50.1485L84.7428 49.5537L84.8333 49.2563L84.9368 48.9653L85.357 47.795C85.6221 47.1161 85.9001 46.4437 86.1911 45.7713C86.7213 44.5751 87.051 43.2949 87.1286 41.9889C87.148 41.685 87.1674 41.3875 87.1997 41.0966C84.5617 33.9003 91.8227 30.2795 91.8227 30.2795C90.6524 31.4627 91.0274 33.4671 90.2774 36.8228C89.6373 39.6806 88.0985 40.7281 87.6523 40.9802C87.5101 41.9565 87.439 42.7777 87.3937 43.3466C87.4066 43.3273 87.4131 43.3079 87.426 43.282L87.717 42.7389C87.814 42.5578 87.9304 42.3833 88.0338 42.2087L88.6739 41.1483L89.3658 40.1203C89.4821 39.9522 89.592 39.7776 89.7149 39.6095L90.0834 39.1116C90.4649 38.5814 90.8658 38.0707 91.2861 37.5728C91.868 36.8357 92.6632 35.7753 93.3551 35.0059C93.6784 34.6438 93.9628 34.2494 94.1697 33.8098C97.1892 27.4411 104.573 29.2321 104.573 29.2321C102.918 29.3355 101.857 31.0813 99.0643 33.0921C96.853 34.6762 95.1073 34.5857 94.4672 34.4757C94.3896 34.5016 94.2991 34.5275 94.2215 34.5533L93.3745 35.4391C92.2688 36.6547 91.2149 37.909 90.2903 39.2668L89.9347 39.7647C89.8183 39.9328 89.7149 40.1073 89.605 40.2819L88.9455 41.3164L88.6675 41.8014C89.4045 41.1806 90.1416 40.6375 90.8722 40.1655C94.8551 33.6158 102.213 37.0297 102.213 37.0297C100.564 36.8551 99.2259 38.3939 96.1353 39.9004C93.5038 41.1806 91.7257 40.6311 91.2537 40.4436C90.1998 41.0643 89.3205 41.6656 88.8162 42.0277C88.4993 42.2604 88.2278 42.5514 88.0468 42.907V42.9134L87.7687 43.463C87.0058 44.9113 86.3915 46.4308 85.8355 47.9631L85.454 49.127L85.357 49.4179L85.2794 49.7153L85.1178 50.3037C84.885 51.0861 84.7234 51.8878 84.5488 52.6831C84.5036 52.8835 84.4648 53.084 84.4324 53.2844V53.2973C84.9303 52.5344 85.4475 51.8361 85.9842 51.2024C87.8722 43.7734 95.909 44.8855 95.909 44.8855C94.2797 45.2023 93.4521 47.0644 90.9369 49.4115C88.7968 51.4093 86.9347 51.4029 86.4239 51.3576C85.8484 51.9848 85.3764 52.5473 85.0273 52.9805C84.5424 53.5818 84.2255 54.306 84.1544 55.0754C84.1544 55.0819 84.1544 55.0819 84.1544 55.0883L84.0186 56.3039L83.9863 56.6077L83.9669 56.9116L83.9281 57.5194L83.8893 58.1272C83.8764 58.3276 83.8764 58.5345 83.8699 58.735C83.8505 59.1358 83.8376 59.5367 83.8376 59.944L83.8699 61.1596C83.8699 61.36 83.8829 61.5669 83.9023 61.7674L83.9475 62.3751C84.0122 63.2545 84.1092 64.1273 84.232 65.0002C84.4066 64.2696 84.607 63.5713 84.8333 62.9182C83.9475 55.3017 91.8486 53.4784 91.8486 53.4784C90.439 54.3577 90.3291 56.3944 88.8162 59.4785C87.5295 62.11 85.7838 62.7695 85.2988 62.9053C85.1113 63.3773 84.9497 63.817 84.8139 64.2049C84.4777 65.1554 84.4066 66.1834 84.6264 67.1727C84.6264 67.1791 84.6264 67.1856 84.6329 67.1856C84.982 68.7697 85.4088 70.3344 85.9713 71.8473C86.5273 73.3668 87.1868 74.8474 87.9304 76.2763C88.1502 76.6901 88.383 77.0975 88.6222 77.5048C88.4864 76.6449 88.4088 75.8173 88.3765 75.0285C84.7622 68.2718 91.4477 63.6683 91.4477 63.6683C90.4584 65.0002 91.105 66.9334 90.827 70.3602C90.5942 73.2763 89.2106 74.5306 88.8097 74.841C88.8097 74.9509 88.8097 75.0608 88.8097 75.1707C88.8226 77.0263 89.3916 78.8432 90.4649 80.3562C90.4714 80.3626 90.4778 80.3691 90.4778 80.382C91.4089 81.701 92.4563 82.9295 93.5555 84.1063C93.84 84.3908 94.1051 84.6946 94.396 84.9727L95.2689 85.8067C95.2818 85.7938 95.2754 85.8003 95.2948 85.7873C95.0297 85.3153 94.7904 84.8498 94.5771 84.3843C88.6222 79.5544 93.0059 72.7267 93.0059 72.7267C92.6115 74.3366 93.9564 75.869 95.0297 79.1406C95.9413 81.9209 95.159 83.6084 94.9068 84.0545C95.0814 84.4748 95.2495 84.8627 95.4112 85.2054C95.7991 86.046 96.3681 86.796 97.0987 87.365C97.1052 87.365 97.1052 87.3714 97.1116 87.3714C98.366 88.3736 99.6785 89.3111 101.062 90.1193C101.864 90.5978 102.685 91.0375 103.526 91.4577C103.176 91.1021 102.853 90.74 102.556 90.378C96.853 87.7464 98.9543 81.4359 98.9543 81.4359C98.9673 82.7937 100.344 83.7377 101.857 86.1171C103.144 88.1408 102.866 89.6409 102.75 90.0418C102.937 90.2874 103.112 90.5137 103.28 90.7206C103.823 91.406 104.528 91.9491 105.329 92.2918C105.336 92.2918 105.336 92.2983 105.342 92.2983C106.817 92.919 108.33 93.4362 109.868 93.863L109.888 93.8694H109.894C110.308 93.9858 110.618 94.3608 110.631 94.794C110.651 95.5376 109.965 96.0096 109.319 95.8156C107.702 95.3242 106.118 94.7294 104.579 94.0375C103.041 93.3392 101.56 92.5246 100.138 91.6323C99.2776 91.0957 98.45 90.5137 97.6418 89.8995C96.5491 89.0654 95.2366 88.5676 93.8659 88.4512C86.7084 91.1991 82.9777 83.9899 82.9777 83.9899C84.1738 85.1408 86.1782 84.7399 89.5468 85.4382C92.4111 86.033 93.4844 87.5589 93.743 87.9986C94.4348 88.0891 95.0426 88.1473 95.5405 88.1796C95.0879 87.7788 94.6417 87.365 94.2021 86.9512L93.3163 86.0589C93.0189 85.7679 92.7473 85.4447 92.4628 85.1343C91.3442 83.88 90.2903 82.5739 89.3593 81.1773C89.3399 81.1514 89.3205 81.1191 89.3011 81.0933C88.842 80.4079 88.2213 79.8583 87.4907 79.4898C87.3679 79.4316 87.2515 79.3669 87.1351 79.3023C79.4474 79.0372 78.8461 70.9421 78.8461 70.9421C79.4991 72.468 81.497 72.8883 84.3161 74.8539Z" fill="url(#paint11_linear_29_13)"/>
<defs>
<linearGradient id="paint0_linear_29_13" x1="34.2508" y1="72.4617" x2="34.2508" y2="138.656" gradientUnits="userSpaceOnUse">
<stop stop-color="#FAE894"/>
<stop offset="0.8939" stop-color="#977A1C"/>
</linearGradient>
<linearGradient id="paint1_linear_29_13" x1="58.4925" y1="72.4617" x2="58.4925" y2="138.656" gradientUnits="userSpaceOnUse">
<stop stop-color="#FAE894"/>
<stop offset="0.8939" stop-color="#977A1C"/>
</linearGradient>
<linearGradient id="paint2_linear_29_13" x1="81.643" y1="72.4617" x2="81.643" y2="138.656" gradientUnits="userSpaceOnUse">
<stop stop-color="#FAE894"/>
<stop offset="0.8939" stop-color="#977A1C"/>
</linearGradient>
<linearGradient id="paint3_linear_29_13" x1="112.028" y1="72.4617" x2="112.028" y2="138.656" gradientUnits="userSpaceOnUse">
<stop stop-color="#FAE894"/>
<stop offset="0.8939" stop-color="#977A1C"/>
</linearGradient>
<linearGradient id="paint4_linear_29_13" x1="134.417" y1="72.4617" x2="134.417" y2="138.656" gradientUnits="userSpaceOnUse">
<stop stop-color="#FAE894"/>
<stop offset="0.8939" stop-color="#977A1C"/>
</linearGradient>
<linearGradient id="paint5_linear_29_13" x1="159.295" y1="72.4617" x2="159.295" y2="138.656" gradientUnits="userSpaceOnUse">
<stop stop-color="#FAE894"/>
<stop offset="0.8939" stop-color="#977A1C"/>
</linearGradient>
<linearGradient id="paint6_linear_29_13" x1="185.337" y1="72.4617" x2="185.337" y2="138.656" gradientUnits="userSpaceOnUse">
<stop stop-color="#FAE894"/>
<stop offset="0.8939" stop-color="#977A1C"/>
</linearGradient>
<linearGradient id="paint7_linear_29_13" x1="209.821" y1="72.4617" x2="209.821" y2="138.656" gradientUnits="userSpaceOnUse">
<stop stop-color="#FAE894"/>
<stop offset="0.8939" stop-color="#977A1C"/>
</linearGradient>
<linearGradient id="paint8_linear_29_13" x1="68.8147" y1="7.04279" x2="161.405" y2="92.7067" gradientUnits="userSpaceOnUse">
<stop stop-color="#FAE894"/>
<stop offset="0.6341" stop-color="#977A1C"/>
<stop offset="1" stop-color="#FAE894"/>
</linearGradient>
<linearGradient id="paint9_linear_29_13" x1="63.0209" y1="13.3051" x2="155.611" y2="98.969" gradientUnits="userSpaceOnUse">
<stop stop-color="#FAE894"/>
<stop offset="0.6341" stop-color="#977A1C"/>
<stop offset="1" stop-color="#FAE894"/>
</linearGradient>
<linearGradient id="paint10_linear_29_13" x1="75.5656" y1="-0.253794" x2="168.155" y2="85.4101" gradientUnits="userSpaceOnUse">
<stop stop-color="#FAE894"/>
<stop offset="0.6341" stop-color="#977A1C"/>
<stop offset="1" stop-color="#FAE894"/>
</linearGradient>
<linearGradient id="paint11_linear_29_13" x1="55.4232" y1="21.517" x2="148.013" y2="107.181" gradientUnits="userSpaceOnUse">
<stop stop-color="#FAE894"/>
<stop offset="0.6341" stop-color="#977A1C"/>
<stop offset="1" stop-color="#FAE894"/>
</linearGradient>
</defs>
</svg>
