<svg width="275" height="178" viewBox="0 0 275 178" fill="none" xmlns="http://www.w3.org/2000/svg">
<rect width="275" height="105" fill="#FFD500"/>
<rect x="15" width="246" height="178" fill="white"/>
<path d="M46.9118 118.555V125.629C46.9118 127.155 47.0799 128.105 47.4161 128.474C47.8687 128.997 48.5541 129.263 49.4787 129.263H50.4097V129.922H40V129.263H40.9117C41.9397 129.263 42.6703 128.926 43.1165 128.26C43.3557 127.892 43.4721 127.012 43.4721 125.629V109.937C43.4721 108.411 43.3104 107.46 42.9871 107.092C42.5216 106.568 41.8298 106.303 40.9117 106.303H40V105.643H48.9032C51.0757 105.643 52.7891 105.87 54.0434 106.316C55.2978 106.762 56.3517 107.518 57.2116 108.579C58.0716 109.639 58.5048 110.9 58.5048 112.355C58.5048 114.34 57.8517 115.95 56.5457 117.191C55.2396 118.433 53.3904 119.053 51.0046 119.053C50.4162 119.053 49.789 119.014 49.1037 118.93C48.4183 118.846 47.6877 118.717 46.9118 118.555ZM46.9118 117.534C47.5454 117.657 48.108 117.741 48.5929 117.805C49.0843 117.864 49.4981 117.896 49.8472 117.896C51.0886 117.896 52.1619 117.417 53.0607 116.454C53.9594 115.497 54.412 114.249 54.412 112.717C54.412 111.663 54.1986 110.693 53.7654 109.788C53.3322 108.889 52.7244 108.21 51.9356 107.764C51.1468 107.318 50.2546 107.092 49.2459 107.092C48.6381 107.092 47.8558 107.208 46.8989 107.434V117.534H46.9118Z" fill="url(#paint0_linear_203_5)"/>
<path d="M70.7507 116.454L79.7057 125.357C81.1734 126.825 82.4277 127.827 83.4687 128.357C84.5097 128.888 85.5442 129.191 86.5852 129.263V129.922H75.031V129.263C75.7228 129.263 76.2207 129.146 76.5246 128.913C76.8284 128.681 76.9836 128.422 76.9836 128.138C76.9836 127.853 76.9254 127.594 76.8155 127.368C76.7056 127.142 76.3306 126.715 75.697 126.094L67.3174 117.805V125.629C67.3174 126.857 67.395 127.672 67.5502 128.066C67.6731 128.364 67.9187 128.622 68.3002 128.836C68.811 129.12 69.3541 129.269 69.9296 129.269H70.7572V129.928H60.3992V129.269H61.2591C62.2613 129.269 62.9919 128.978 63.4445 128.39C63.729 128.008 63.8712 127.09 63.8712 125.629V109.937C63.8712 108.708 63.7936 107.887 63.6385 107.486C63.5221 107.202 63.2764 106.949 62.9014 106.736C62.3777 106.452 61.8281 106.309 61.2526 106.309H60.3927V105.65H70.7442V106.309H69.9166C69.3541 106.309 68.811 106.445 68.2873 106.723C67.9187 106.917 67.6601 107.202 67.5179 107.583C67.3756 107.965 67.3045 108.753 67.3045 109.95V117.385C67.5437 117.159 68.3584 116.402 69.755 115.109C73.3047 111.863 75.4448 109.691 76.1819 108.605C76.5052 108.126 76.6668 107.712 76.6668 107.35C76.6668 107.079 76.544 106.833 76.2918 106.626C76.0396 106.419 75.6194 106.316 75.0181 106.316H74.462V105.656H83.3846V106.316C82.8609 106.329 82.3825 106.4 81.9493 106.529C81.5161 106.659 80.9923 106.917 80.3716 107.292C79.7509 107.667 78.988 108.275 78.0763 109.109C77.8112 109.348 76.6021 110.57 74.4426 112.782L70.7507 116.454Z" fill="url(#paint1_linear_203_5)"/>
<path d="M103.099 105.081V113.48H102.439C102.226 111.87 101.838 110.583 101.282 109.633C100.726 108.676 99.9368 107.919 98.9088 107.357C97.8807 106.794 96.8204 106.516 95.7212 106.516C94.4798 106.516 93.4517 106.898 92.6371 107.654C91.8224 108.411 91.4215 109.277 91.4215 110.241C91.4215 110.978 91.6801 111.656 92.1909 112.264C92.928 113.157 94.6932 114.353 97.4734 115.846C99.7428 117.062 101.288 117.999 102.122 118.652C102.95 119.305 103.59 120.068 104.036 120.954C104.482 121.84 104.708 122.765 104.708 123.728C104.708 125.564 103.997 127.155 102.568 128.487C101.139 129.819 99.3032 130.485 97.0596 130.485C96.3548 130.485 95.6889 130.433 95.0682 130.323C94.6996 130.265 93.9302 130.045 92.7664 129.67C91.6026 129.295 90.8655 129.107 90.5551 129.107C90.2577 129.107 90.0185 129.198 89.8504 129.379C89.6758 129.56 89.5465 129.928 89.4624 130.491H88.8029V122.163H89.4624C89.7728 123.909 90.193 125.209 90.7168 126.075C91.2405 126.941 92.0487 127.659 93.1285 128.234C94.2082 128.81 95.3914 129.094 96.6846 129.094C98.1782 129.094 99.3549 128.7 100.221 127.911C101.088 127.122 101.521 126.191 101.521 125.118C101.521 124.523 101.359 123.915 101.03 123.308C100.7 122.7 100.189 122.131 99.4971 121.607C99.0316 121.245 97.7579 120.489 95.6824 119.325C93.6069 118.161 92.1263 117.23 91.2469 116.538C90.3676 115.846 89.7017 115.083 89.2491 114.243C88.7965 113.409 88.5702 112.491 88.5702 111.482C88.5702 109.736 89.2361 108.236 90.5745 106.975C91.9129 105.715 93.6134 105.087 95.6759 105.087C96.9626 105.087 98.3333 105.404 99.7752 106.038C100.441 106.335 100.913 106.484 101.191 106.484C101.502 106.484 101.754 106.393 101.954 106.206C102.148 106.018 102.31 105.65 102.426 105.087H103.099V105.081Z" fill="url(#paint2_linear_203_5)"/>
<path d="M136.882 123.211L137.47 123.334L135.395 129.922H116.586V129.263H117.498C118.526 129.263 119.256 128.926 119.702 128.26C119.954 127.879 120.077 126.993 120.077 125.609V109.937C120.077 108.417 119.909 107.473 119.573 107.092C119.107 106.568 118.416 106.303 117.498 106.303H116.586V105.643H127.584V106.303C126.291 106.29 125.392 106.406 124.868 106.659C124.351 106.911 123.996 107.228 123.802 107.609C123.608 107.99 123.517 108.902 123.517 110.35V125.609C123.517 126.599 123.614 127.284 123.802 127.653C123.944 127.905 124.164 128.092 124.461 128.209C124.758 128.331 125.69 128.39 127.254 128.39H129.026C130.888 128.39 132.194 128.254 132.951 127.976C133.707 127.698 134.392 127.213 135.013 126.515C135.64 125.816 136.254 124.717 136.882 123.211Z" fill="url(#paint3_linear_203_5)"/>
<path d="M145.927 106.962V116.564H151.268C152.651 116.564 153.576 116.357 154.042 115.937C154.662 115.387 155.011 114.417 155.083 113.034H155.742V121.484H155.083C154.914 120.301 154.746 119.545 154.578 119.208C154.365 118.788 154.009 118.465 153.524 118.226C153.033 117.986 152.283 117.87 151.268 117.87H145.927V125.875C145.927 126.948 145.972 127.601 146.069 127.834C146.166 128.066 146.334 128.254 146.574 128.39C146.813 128.525 147.266 128.597 147.932 128.597H152.05C153.421 128.597 154.423 128.5 155.044 128.312C155.664 128.118 156.266 127.743 156.835 127.187C157.572 126.45 158.335 125.331 159.111 123.838H159.828L157.733 129.928H139.015V129.269H139.875C140.451 129.269 140.994 129.133 141.505 128.855C141.886 128.661 142.145 128.377 142.281 127.995C142.416 127.614 142.487 126.831 142.487 125.648V109.872C142.487 108.333 142.332 107.383 142.022 107.027C141.595 106.549 140.877 106.309 139.875 106.309H139.015V105.65H157.733L158.005 110.971H157.307C157.055 109.691 156.777 108.818 156.473 108.34C156.169 107.861 155.716 107.499 155.121 107.247C154.643 107.066 153.802 106.975 152.593 106.975H145.927V106.962Z" fill="url(#paint4_linear_203_5)"/>
<path d="M183.176 105.081L183.803 112.749H183.176C182.542 110.835 181.728 109.4 180.725 108.43C179.284 107.034 177.422 106.335 175.159 106.335C172.068 106.335 169.714 107.557 168.104 110.008C166.753 112.07 166.081 114.534 166.081 117.385C166.081 119.7 166.527 121.814 167.426 123.728C168.324 125.642 169.495 127.038 170.943 127.931C172.391 128.816 173.885 129.263 175.411 129.263C176.303 129.263 177.169 129.146 178.01 128.92C178.844 128.694 179.652 128.357 180.428 127.918V120.896C180.428 119.68 180.338 118.879 180.15 118.504C179.963 118.129 179.678 117.844 179.29 117.644C178.902 117.45 178.217 117.346 177.24 117.346V116.667H186.642V117.346H186.195C185.264 117.346 184.624 117.657 184.282 118.277C184.042 118.717 183.92 119.59 183.92 120.896V128.331C182.549 129.069 181.191 129.612 179.853 129.961C178.514 130.304 177.027 130.478 175.391 130.478C170.697 130.478 167.135 128.972 164.697 125.965C162.867 123.709 161.956 121.103 161.956 118.154C161.956 116.014 162.466 113.971 163.494 112.012C164.71 109.684 166.385 107.893 168.512 106.639C170.29 105.598 172.391 105.081 174.816 105.081C175.702 105.081 176.503 105.152 177.228 105.294C177.952 105.437 178.973 105.753 180.299 106.245C180.965 106.497 181.417 106.62 181.644 106.62C181.87 106.62 182.064 106.516 182.226 106.309C182.387 106.102 182.484 105.689 182.523 105.081H183.176Z" fill="url(#paint5_linear_203_5)"/>
<path d="M203.937 121.795H194.536L192.887 125.629C192.48 126.573 192.28 127.278 192.28 127.743C192.28 128.112 192.454 128.441 192.81 128.719C193.159 128.997 193.922 129.185 195.092 129.269V129.929H187.443V129.269C188.458 129.088 189.112 128.855 189.415 128.571C190.023 127.995 190.702 126.831 191.439 125.079L199.98 105.087H200.607L209.065 125.293C209.743 126.916 210.364 127.969 210.92 128.454C211.476 128.939 212.246 129.211 213.241 129.269V129.929H203.659V129.269C204.629 129.224 205.282 129.062 205.618 128.784C205.961 128.513 206.129 128.176 206.129 127.782C206.129 127.258 205.89 126.424 205.411 125.293L203.937 121.795ZM203.433 120.469L199.314 110.654L195.086 120.469H203.433Z" fill="url(#paint6_linear_203_5)"/>
<path d="M234.675 123.211L235.263 123.334L233.188 129.922H214.379V129.263H215.291C216.319 129.263 217.05 128.926 217.496 128.26C217.748 127.879 217.871 126.993 217.871 125.609V109.937C217.871 108.417 217.703 107.473 217.366 107.092C216.901 106.568 216.209 106.303 215.291 106.303H214.379V105.643H225.377V106.303C224.084 106.29 223.186 106.406 222.662 106.659C222.145 106.911 221.789 107.228 221.595 107.609C221.401 107.99 221.31 108.902 221.31 110.35V125.609C221.31 126.599 221.407 127.284 221.595 127.653C221.737 127.905 221.957 128.092 222.254 128.209C222.552 128.331 223.483 128.39 225.048 128.39H226.819C228.681 128.39 229.987 128.254 230.744 127.976C231.494 127.704 232.186 127.213 232.806 126.515C233.427 125.816 234.048 124.717 234.675 123.211Z" fill="url(#paint7_linear_203_5)"/>
<path d="M66.9231 143.067H63.4122L62.7657 144.858H61.6536L64.5631 136.853H65.7787L68.6753 144.858H67.5697L66.9231 143.067ZM66.6257 142.213L65.1709 138.146L63.7161 142.213H66.6257Z" fill="#6B6D6B"/>
<path d="M74.7401 137.299C75.3802 137.629 75.878 138.095 76.2207 138.702C76.5634 139.31 76.738 140.028 76.738 140.849C76.738 141.67 76.5634 142.388 76.2207 142.989C75.878 143.597 75.3866 144.056 74.7401 144.373C74.1 144.69 73.337 144.851 72.4577 144.851H69.949V136.802H72.4577C73.337 136.808 74.0935 136.97 74.7401 137.299ZM74.8371 143.164C75.3866 142.614 75.6582 141.838 75.6582 140.849C75.6582 139.847 75.3802 139.064 74.8306 138.502C74.281 137.939 73.4857 137.661 72.4577 137.661H71.0029V143.991H72.4577C73.4987 143.991 74.2875 143.713 74.8371 143.164Z" fill="#6B6D6B"/>
<path d="M84.7683 136.808L81.7295 144.858H80.5139L77.475 136.808H78.5936L81.1217 143.752L83.6498 136.808H84.7683Z" fill="#6B6D6B"/>
<path d="M87.5292 144.412C86.9149 144.062 86.4235 143.571 86.0679 142.944C85.7123 142.317 85.5313 141.612 85.5313 140.823C85.5313 140.034 85.7123 139.33 86.0679 138.702C86.4235 138.075 86.9149 137.584 87.5292 137.235C88.1434 136.886 88.8288 136.711 89.5723 136.711C90.3288 136.711 91.0142 136.886 91.6284 137.235C92.2427 137.584 92.7276 138.069 93.0832 138.696C93.4388 139.323 93.6134 140.028 93.6134 140.823C93.6134 141.618 93.4388 142.323 93.0832 142.95C92.7276 143.571 92.2427 144.062 91.6284 144.412C91.0142 144.761 90.3288 144.935 89.5723 144.935C88.8288 144.935 88.1499 144.761 87.5292 144.412ZM91.0918 143.636C91.5444 143.371 91.8935 143.002 92.1521 142.517C92.4108 142.032 92.5401 141.47 92.5401 140.83C92.5401 140.183 92.4108 139.621 92.1521 139.136C91.8935 138.657 91.5444 138.282 91.0982 138.024C90.6521 137.758 90.1413 137.629 89.5723 137.629C89.0033 137.629 88.4926 137.758 88.0464 138.024C87.6003 138.289 87.2447 138.657 86.9925 139.136C86.7339 139.621 86.6046 140.183 86.6046 140.83C86.6046 141.47 86.7339 142.032 86.9925 142.517C87.2512 143.002 87.6068 143.377 88.0529 143.636C88.499 143.894 89.0098 144.03 89.5723 144.03C90.1348 144.024 90.6456 143.894 91.0918 143.636Z" fill="#6B6D6B"/>
<path d="M95.1457 138.709C95.5013 138.082 95.9863 137.59 96.594 137.235C97.2018 136.879 97.8872 136.705 98.6307 136.705C99.5101 136.705 100.273 136.918 100.932 137.338C101.586 137.758 102.064 138.36 102.368 139.142H101.101C100.874 138.657 100.557 138.282 100.137 138.024C99.717 137.758 99.2126 137.629 98.6307 137.629C98.0682 137.629 97.5639 137.758 97.1177 138.024C96.6716 138.289 96.3225 138.657 96.0638 139.136C95.8117 139.621 95.6824 140.183 95.6824 140.83C95.6824 141.47 95.8117 142.032 96.0638 142.511C96.316 142.989 96.6716 143.364 97.1177 143.623C97.5639 143.881 98.0682 144.017 98.6307 144.017C99.2126 144.017 99.717 143.888 100.137 143.629C100.557 143.371 100.881 143.002 101.101 142.517H102.361C102.064 143.287 101.586 143.881 100.926 144.302C100.267 144.722 99.5036 144.929 98.6243 144.929C97.8742 144.929 97.1953 144.754 96.5876 144.405C95.9733 144.056 95.4949 143.571 95.1393 142.944C94.7836 142.317 94.6091 141.618 94.6091 140.83C94.6091 140.041 94.7901 139.336 95.1457 138.709Z" fill="#6B6D6B"/>
<path d="M108.678 143.067H105.168L104.521 144.858H103.409L106.318 136.853H107.534L110.431 144.858H109.325L108.678 143.067ZM108.381 142.213L106.926 138.146L105.471 142.213H108.381Z" fill="#6B6D6B"/>
<path d="M116.664 136.808V137.661H114.472V144.858H113.418V137.661H111.213V136.808H116.664Z" fill="#6B6D6B"/>
<path d="M119.011 137.661V140.351H121.946V141.218H119.011V143.991H122.289V144.858H117.957V136.795H122.289V137.661H119.011Z" fill="#6B6D6B"/>
<path d="M125.011 144.657C124.59 144.47 124.261 144.205 124.021 143.875C123.782 143.539 123.659 143.151 123.653 142.711H124.771C124.81 143.086 124.965 143.409 125.237 143.662C125.509 143.92 125.909 144.05 126.433 144.05C126.931 144.05 127.325 143.927 127.616 143.675C127.907 143.422 128.05 143.106 128.05 142.711C128.05 142.401 127.965 142.155 127.797 141.961C127.629 141.767 127.416 141.625 127.164 141.521C126.912 141.424 126.569 141.315 126.136 141.198C125.606 141.062 125.179 140.92 124.862 140.784C124.545 140.649 124.267 140.429 124.041 140.131C123.815 139.834 123.698 139.433 123.698 138.935C123.698 138.496 123.808 138.108 124.034 137.771C124.261 137.435 124.571 137.17 124.978 136.989C125.379 136.802 125.845 136.711 126.368 136.711C127.125 136.711 127.739 136.899 128.224 137.28C128.703 137.655 128.974 138.159 129.039 138.78H127.881C127.843 138.47 127.681 138.198 127.397 137.965C127.112 137.733 126.737 137.616 126.265 137.616C125.825 137.616 125.47 137.733 125.192 137.959C124.914 138.185 124.778 138.502 124.778 138.909C124.778 139.2 124.862 139.44 125.024 139.627C125.192 139.815 125.392 139.95 125.638 140.047C125.884 140.144 126.22 140.254 126.659 140.377C127.19 140.526 127.616 140.668 127.94 140.81C128.263 140.952 128.541 141.172 128.774 141.47C129.006 141.767 129.123 142.168 129.123 142.679C129.123 143.073 129.019 143.442 128.812 143.784C128.606 144.134 128.295 144.412 127.888 144.625C127.481 144.838 126.996 144.948 126.446 144.948C125.903 144.935 125.424 144.845 125.011 144.657Z" fill="#6B6D6B"/>
<path d="M139.927 144.858L138.873 143.797C138.479 144.205 138.058 144.509 137.612 144.703C137.166 144.897 136.662 145 136.099 145C135.543 145 135.052 144.897 134.625 144.703C134.198 144.502 133.869 144.218 133.629 143.849C133.397 143.481 133.28 143.047 133.28 142.556C133.28 141.993 133.442 141.502 133.759 141.069C134.076 140.636 134.548 140.306 135.175 140.06C134.929 139.769 134.748 139.498 134.645 139.252C134.535 139.006 134.483 138.735 134.483 138.444C134.483 138.108 134.567 137.797 134.742 137.526C134.916 137.254 135.162 137.041 135.485 136.886C135.808 136.73 136.183 136.653 136.604 136.653C137.017 136.653 137.38 136.73 137.69 136.899C138 137.06 138.227 137.286 138.382 137.571C138.537 137.862 138.602 138.179 138.589 138.534H137.535C137.541 138.217 137.457 137.972 137.27 137.791C137.082 137.61 136.849 137.519 136.552 137.519C136.242 137.519 135.996 137.603 135.808 137.778C135.621 137.952 135.524 138.172 135.524 138.444C135.524 138.677 135.589 138.896 135.711 139.116C135.841 139.33 136.054 139.595 136.351 139.912L138.757 142.323L138.964 142L139.746 140.681H140.877L139.933 142.323C139.804 142.556 139.649 142.795 139.474 143.054L141.285 144.864H139.927V144.858ZM137.231 143.849C137.567 143.687 137.884 143.435 138.181 143.099L135.815 140.72C134.832 141.095 134.334 141.696 134.334 142.511C134.334 142.963 134.496 143.345 134.826 143.642C135.155 143.94 135.576 144.095 136.099 144.095C136.52 144.095 136.895 144.017 137.231 143.849Z" fill="#6B6D6B"/>
<path d="M150.123 143.067H146.612L145.966 144.858H144.86L147.77 136.853H148.985L151.882 144.858H150.77L150.123 143.067ZM149.826 142.213L148.371 138.146L146.916 142.213H149.826Z" fill="#6B6D6B"/>
<path d="M154.281 144.657C153.861 144.47 153.531 144.205 153.292 143.875C153.052 143.539 152.93 143.151 152.923 142.711H154.042C154.08 143.086 154.236 143.409 154.507 143.662C154.779 143.92 155.18 144.05 155.703 144.05C156.201 144.05 156.596 143.927 156.887 143.675C157.178 143.422 157.32 143.106 157.32 142.711C157.32 142.401 157.236 142.155 157.068 141.961C156.899 141.767 156.686 141.625 156.434 141.521C156.182 141.424 155.839 141.315 155.406 141.198C154.876 141.062 154.449 140.92 154.132 140.784C153.809 140.649 153.537 140.429 153.311 140.131C153.085 139.834 152.968 139.433 152.968 138.935C152.968 138.496 153.078 138.108 153.305 137.771C153.531 137.435 153.841 137.17 154.249 136.989C154.656 136.802 155.115 136.711 155.639 136.711C156.395 136.711 157.009 136.899 157.494 137.28C157.973 137.655 158.244 138.159 158.309 138.78H157.152C157.113 138.47 156.951 138.198 156.667 137.965C156.382 137.733 156.007 137.616 155.535 137.616C155.096 137.616 154.74 137.733 154.462 137.959C154.184 138.185 154.048 138.502 154.048 138.909C154.048 139.2 154.132 139.44 154.294 139.627C154.462 139.815 154.662 139.95 154.908 140.047C155.154 140.144 155.49 140.254 155.93 140.377C156.46 140.526 156.887 140.668 157.21 140.81C157.533 140.952 157.811 141.172 158.044 141.47C158.277 141.767 158.393 142.168 158.393 142.679C158.393 143.073 158.29 143.442 158.083 143.784C157.876 144.134 157.565 144.412 157.158 144.625C156.751 144.838 156.266 144.948 155.716 144.948C155.173 144.935 154.701 144.845 154.281 144.657Z" fill="#6B6D6B"/>
<path d="M161.057 144.657C160.637 144.47 160.307 144.205 160.068 143.875C159.828 143.539 159.706 143.151 159.699 142.711H160.818C160.856 143.086 161.012 143.409 161.283 143.662C161.555 143.92 161.956 144.05 162.479 144.05C162.977 144.05 163.372 143.927 163.663 143.675C163.953 143.422 164.096 143.106 164.096 142.711C164.096 142.401 164.012 142.155 163.844 141.961C163.675 141.767 163.462 141.625 163.21 141.521C162.958 141.424 162.615 141.315 162.182 141.198C161.652 141.062 161.225 140.92 160.908 140.784C160.585 140.649 160.313 140.429 160.087 140.131C159.861 139.834 159.744 139.433 159.744 138.935C159.744 138.496 159.854 138.108 160.081 137.771C160.307 137.435 160.617 137.17 161.025 136.989C161.432 136.802 161.891 136.711 162.415 136.711C163.171 136.711 163.785 136.899 164.27 137.28C164.749 137.655 165.02 138.159 165.085 138.78H163.928C163.889 138.47 163.727 138.198 163.443 137.965C163.158 137.733 162.783 137.616 162.311 137.616C161.872 137.616 161.516 137.733 161.238 137.959C160.96 138.185 160.824 138.502 160.824 138.909C160.824 139.2 160.908 139.44 161.07 139.627C161.238 139.815 161.438 139.95 161.684 140.047C161.93 140.144 162.266 140.254 162.706 140.377C163.236 140.526 163.663 140.668 163.986 140.81C164.309 140.952 164.587 141.172 164.82 141.47C165.053 141.767 165.169 142.168 165.169 142.679C165.169 143.073 165.066 143.442 164.859 143.784C164.652 144.134 164.341 144.412 163.934 144.625C163.527 144.838 163.042 144.948 162.492 144.948C161.956 144.935 161.477 144.845 161.057 144.657Z" fill="#6B6D6B"/>
<path d="M168.318 144.412C167.704 144.062 167.212 143.571 166.857 142.944C166.501 142.317 166.32 141.612 166.32 140.823C166.32 140.034 166.501 139.33 166.857 138.702C167.212 138.075 167.704 137.584 168.318 137.235C168.932 136.886 169.617 136.711 170.361 136.711C171.117 136.711 171.803 136.886 172.417 137.235C173.031 137.584 173.516 138.069 173.872 138.696C174.227 139.323 174.402 140.028 174.402 140.823C174.402 141.618 174.227 142.323 173.872 142.95C173.516 143.571 173.031 144.062 172.417 144.412C171.803 144.761 171.117 144.935 170.361 144.935C169.617 144.935 168.932 144.761 168.318 144.412ZM171.88 143.636C172.333 143.371 172.689 143.002 172.941 142.517C173.199 142.032 173.329 141.47 173.329 140.83C173.329 140.183 173.199 139.621 172.941 139.136C172.682 138.657 172.333 138.282 171.887 138.024C171.441 137.758 170.93 137.629 170.361 137.629C169.792 137.629 169.281 137.758 168.835 138.024C168.389 138.289 168.033 138.657 167.781 139.136C167.523 139.621 167.393 140.183 167.393 140.83C167.393 141.47 167.523 142.032 167.781 142.517C168.04 143.002 168.395 143.377 168.842 143.636C169.294 143.901 169.798 144.03 170.361 144.03C170.923 144.024 171.434 143.894 171.88 143.636Z" fill="#6B6D6B"/>
<path d="M175.928 138.709C176.283 138.082 176.768 137.59 177.376 137.235C177.99 136.879 178.669 136.705 179.413 136.705C180.292 136.705 181.055 136.918 181.715 137.338C182.368 137.758 182.846 138.36 183.144 139.142H181.883C181.656 138.657 181.34 138.282 180.919 138.024C180.499 137.758 179.995 137.629 179.413 137.629C178.85 137.629 178.346 137.758 177.9 138.024C177.454 138.289 177.105 138.657 176.852 139.136C176.6 139.621 176.471 140.183 176.471 140.83C176.471 141.47 176.6 142.032 176.852 142.511C177.105 142.989 177.454 143.364 177.9 143.623C178.346 143.881 178.85 144.017 179.413 144.017C180.001 144.017 180.499 143.888 180.919 143.629C181.34 143.371 181.663 143.002 181.883 142.517H183.144C182.846 143.287 182.368 143.881 181.715 144.302C181.062 144.722 180.292 144.929 179.413 144.929C178.663 144.929 177.984 144.754 177.376 144.405C176.762 144.056 176.283 143.571 175.928 142.944C175.572 142.317 175.398 141.618 175.398 140.83C175.398 140.041 175.579 139.336 175.928 138.709Z" fill="#6B6D6B"/>
<path d="M185.762 136.808V144.858H184.715V136.808H185.762Z" fill="#6B6D6B"/>
<path d="M192.312 143.067H188.801L188.154 144.858H187.049L189.958 136.853H191.174L194.07 144.858H192.958L192.312 143.067ZM192.008 142.213L190.553 138.146L189.098 142.213H192.008Z" fill="#6B6D6B"/>
<path d="M200.291 136.808V137.661H198.099V144.858H197.045V137.661H194.84V136.808H200.291Z" fill="#6B6D6B"/>
<path d="M202.638 137.661V140.351H205.573V141.218H202.638V143.991H205.916V144.858H201.584V136.795H205.916V137.661H202.638Z" fill="#6B6D6B"/>
<path d="M208.638 144.657C208.217 144.47 207.888 144.205 207.649 143.875C207.409 143.539 207.286 143.151 207.28 142.711H208.399C208.437 143.086 208.593 143.409 208.864 143.662C209.136 143.92 209.536 144.05 210.06 144.05C210.558 144.05 210.952 143.927 211.243 143.675C211.534 143.422 211.677 143.106 211.677 142.711C211.677 142.401 211.593 142.155 211.424 141.961C211.256 141.767 211.043 141.625 210.791 141.521C210.539 141.424 210.196 141.315 209.763 141.198C209.233 141.062 208.806 140.92 208.489 140.784C208.166 140.649 207.894 140.429 207.668 140.131C207.442 139.834 207.325 139.433 207.325 138.935C207.325 138.496 207.435 138.108 207.661 137.771C207.888 137.435 208.198 137.17 208.605 136.989C209.013 136.802 209.472 136.711 209.996 136.711C210.752 136.711 211.366 136.899 211.851 137.28C212.33 137.655 212.601 138.159 212.666 138.78H211.509C211.47 138.47 211.308 138.198 211.024 137.965C210.739 137.733 210.364 137.616 209.892 137.616C209.452 137.616 209.097 137.733 208.819 137.959C208.541 138.185 208.405 138.502 208.405 138.909C208.405 139.2 208.489 139.44 208.651 139.627C208.819 139.815 209.019 139.95 209.265 140.047C209.511 140.144 209.847 140.254 210.287 140.377C210.817 140.526 211.243 140.668 211.567 140.81C211.89 140.952 212.168 141.172 212.401 141.47C212.634 141.767 212.75 142.168 212.75 142.679C212.75 143.073 212.646 143.442 212.44 143.784C212.233 144.134 211.922 144.412 211.515 144.625C211.108 144.838 210.623 144.948 210.073 144.948C209.53 144.935 209.058 144.845 208.638 144.657Z" fill="#6B6D6B"/>
<path d="M164.678 64.2243H164.219L157.365 44.7432C157.805 44.6915 158.154 44.31 158.154 43.8574C158.154 43.4307 157.856 43.0751 157.455 42.9846V42.6742C157.656 42.5966 157.856 42.5126 158.05 42.4156C158.464 42.2087 158.975 41.8078 158.684 41.3617C158.225 40.6634 157.488 41.5298 157.009 41.7044C156.311 41.963 155.574 41.9436 154.843 41.866C153.13 41.6785 151.494 40.8315 149.852 40.353C146.664 39.4285 143.684 38.7108 140.367 38.7883C140.25 38.7883 139.235 38.8595 138.375 38.9759C138.369 38.9371 138.362 38.8983 138.349 38.8659C138.64 38.7108 138.815 38.5039 138.815 38.2711C138.815 38.0448 138.647 37.8444 138.375 37.6892C138.433 37.6051 138.466 37.5081 138.466 37.4112C138.466 37.159 138.259 36.9327 137.936 36.7969C138.175 36.3831 138.323 35.84 138.323 35.3809C138.323 34.715 138 34.4434 137.541 34.3594C138.039 34.1913 138.401 33.7193 138.401 33.1632C138.401 32.4649 137.839 31.9024 137.14 31.9024C136.442 31.9024 135.879 32.4649 135.879 33.1632C135.879 33.7193 136.242 34.1913 136.739 34.3594C136.287 34.4434 135.957 34.715 135.957 35.3809C135.957 35.8335 136.106 36.3831 136.345 36.7969C136.022 36.9392 135.815 37.159 135.815 37.4112C135.815 37.5081 135.847 37.6051 135.905 37.6892C135.634 37.8444 135.466 38.0448 135.466 38.2711C135.466 38.5233 135.679 38.7496 136.009 38.9047C136.002 38.9306 135.996 38.95 135.996 38.9759C135.136 38.8595 134.121 38.7883 134.004 38.7883C130.688 38.7108 127.707 39.4285 124.519 40.353C122.871 40.8315 121.241 41.6785 119.528 41.866C118.797 41.9501 118.054 41.963 117.362 41.7044C116.883 41.5233 116.146 40.6634 115.687 41.3617C115.396 41.8078 115.907 42.2087 116.321 42.4156C116.521 42.5126 116.722 42.6031 116.916 42.6742V42.9846C116.515 43.0751 116.217 43.4307 116.217 43.8574C116.217 44.3165 116.56 44.6915 117.006 44.7432L110.153 64.2243H109.693C109.39 64.2243 109.144 64.47 109.144 64.7739C109.144 65.0649 109.37 65.2976 109.648 65.317C109.823 67.0951 113.094 68.5046 117.11 68.5046C121.125 68.5046 124.403 67.0886 124.571 65.317C124.855 65.2976 125.075 65.0584 125.075 64.7739C125.075 64.47 124.83 64.2243 124.526 64.2243H124.067L117.22 44.7432C117.659 44.6915 118.008 44.31 118.008 43.8574C118.008 43.4307 117.711 43.0751 117.31 42.9846V42.81C122.024 44.2389 127.106 39.6483 136.183 41.7626C136.183 41.7626 137.121 42.2927 138.168 41.7626C147.246 39.6483 152.328 44.2389 157.042 42.81V42.9846C156.641 43.0751 156.343 43.4307 156.343 43.8574C156.343 44.3165 156.686 44.6915 157.132 44.7432L150.279 64.2243H149.819C149.516 64.2243 149.27 64.47 149.27 64.7739C149.27 65.0649 149.496 65.2976 149.774 65.317C149.949 67.0951 153.22 68.5046 157.236 68.5046C161.251 68.5046 164.522 67.0886 164.697 65.317C164.981 65.2976 165.201 65.0584 165.201 64.7739C165.227 64.47 164.981 64.2243 164.678 64.2243ZM116.922 64.2243H110.586L116.922 46.198V64.2243ZM117.323 46.2045L123.659 64.2308H117.323V46.2045ZM117.62 43.8574C117.62 44.129 117.394 44.3553 117.123 44.3553C116.851 44.3553 116.625 44.129 116.625 43.8574C116.625 43.5859 116.851 43.3596 117.123 43.3596C117.394 43.3596 117.62 43.5794 117.62 43.8574ZM157.055 64.2243H150.718L157.055 46.198V64.2243ZM156.757 43.8574C156.757 43.5859 156.977 43.3596 157.255 43.3596C157.527 43.3596 157.753 43.5859 157.753 43.8574C157.753 44.129 157.527 44.3553 157.255 44.3553C156.983 44.3553 156.757 44.129 156.757 43.8574ZM157.455 64.2243V46.2045L163.792 64.2308H157.455V64.2243Z" fill="url(#paint8_linear_203_5)"/>
<path fill-rule="evenodd" clip-rule="evenodd" d="M138.75 93.016C139.714 87.6236 142.378 82.8842 146.076 78.5522C143.994 74.5565 142.494 70.3861 141.977 65.9248H142.242C142.63 65.9248 142.947 65.608 142.947 65.22V64.1403C142.947 63.7523 142.63 63.4355 142.242 63.4355H141.925V62.4721H143.069C143.457 62.4721 143.774 62.1553 143.774 61.7674V60.6876C143.774 60.2996 143.457 59.9828 143.069 59.9828H141.925V43.7669C140.949 43.8251 139.979 43.935 138.99 44.1549C138.421 44.3876 137.826 44.5105 137.205 44.5105C136.436 44.5105 135.808 44.323 135.401 44.1549C134.179 43.8833 132.989 43.7604 131.787 43.7281V59.9893H130.642C130.254 59.9893 129.944 60.3061 129.944 60.694V61.7738C129.944 62.1618 130.261 62.4786 130.642 62.4786H131.787V63.442H131.464C131.076 63.442 130.765 63.7588 130.765 64.1467V65.2265C130.765 65.6144 131.082 65.9312 131.464 65.9312H131.742C131.211 70.6577 129.795 74.7892 127.81 78.5393C131.929 83.02 134.153 87.8951 135.007 93.0548C134.716 93.197 134.509 93.4944 134.509 93.8436C134.509 94.3285 134.903 94.7229 135.388 94.7229C135.86 94.7229 136.229 94.3544 136.261 93.8888H136.274V76.438C135.718 76.1987 135.336 75.6492 135.336 75.0026C135.336 74.1427 136.035 73.4444 136.895 73.4444C137.755 73.4444 138.453 74.1427 138.453 75.0026C138.453 75.6298 138.084 76.1664 137.554 76.4186V93.8306V93.8759H137.561C137.586 94.335 137.962 94.71 138.434 94.71C138.918 94.71 139.313 94.3156 139.313 93.8306C139.313 93.4621 139.08 93.1453 138.75 93.016Z" fill="url(#paint9_linear_203_5)"/>
<path d="M175.34 74.8539C172.941 76.5285 172.553 78.3518 172.488 78.8561C172.107 79.0824 171.751 79.2764 171.428 79.4574C171.939 78.6104 172.417 77.7505 172.857 76.8647C173.594 75.3647 174.227 73.8129 174.764 72.2353C174.822 72.0607 174.88 71.8861 174.939 71.7116C175.352 70.412 175.96 69.177 176.762 68.0714C176.814 68.0003 176.872 67.9227 176.924 67.8516C183.648 64.1661 180.564 56.6659 180.564 56.6659C180.667 58.3212 179.064 59.5884 177.422 62.6079C176.025 65.1812 176.49 66.9852 176.665 67.4636C176.322 67.9938 175.999 68.4593 175.721 68.8473C175.831 68.3623 175.934 67.8774 176.025 67.3925C176.342 65.7567 176.523 64.095 176.6 62.4333L176.626 61.8126C176.639 61.6057 176.646 61.3988 176.639 61.1919V59.944C176.633 59.5302 176.6 59.1164 176.587 58.6962C176.575 58.4893 176.575 58.2824 176.555 58.0755L176.497 57.4548C176.458 57.0409 176.484 56.6271 176.562 56.2263L177.04 53.8534C181.941 47.9567 176.316 42.1117 176.316 42.1117C177.021 43.6182 175.993 45.3769 175.579 48.7972C175.223 51.7003 176.322 53.2068 176.659 53.5947C176.523 54.2801 176.374 54.8879 176.251 55.3728L176.199 54.9849C176.154 54.5711 176.057 54.1702 175.98 53.7629L175.863 53.1551C175.824 52.9482 175.786 52.7477 175.734 52.5473C175.534 51.7456 175.352 50.9309 175.094 50.1485L174.913 49.5537L174.822 49.2563L174.719 48.9653L174.299 47.795C174.034 47.1161 173.755 46.4437 173.465 45.7713C172.934 44.5751 172.605 43.2949 172.527 41.9889C172.508 41.685 172.488 41.3875 172.456 41.0966C175.094 33.9003 167.833 30.2795 167.833 30.2795C169.003 31.4627 168.628 33.4671 169.378 36.8228C170.018 39.6806 171.557 40.7281 172.003 40.9802C172.146 41.9565 172.223 42.7777 172.262 43.3466C172.249 43.3273 172.243 43.3079 172.23 43.282L171.939 42.7389C171.842 42.5578 171.725 42.3833 171.622 42.2087L170.982 41.1483L170.29 40.1203C170.173 39.9522 170.064 39.7776 169.941 39.6095L169.572 39.1116C169.191 38.5814 168.79 38.0707 168.37 37.5728C167.788 36.8357 166.992 35.7753 166.301 35.0059C165.977 34.6438 165.693 34.2494 165.486 33.8098C162.466 27.4411 155.083 29.2321 155.083 29.2321C156.738 29.3355 157.798 31.0813 160.591 33.0921C162.803 34.6762 164.548 34.5857 165.188 34.4757C165.266 34.5016 165.357 34.5275 165.434 34.5533L166.281 35.4391C167.387 36.6547 168.441 37.909 169.365 39.2668L169.721 39.7647C169.837 39.9328 169.941 40.1073 170.051 40.2819L170.71 41.3164L170.988 41.8014C170.251 41.1806 169.514 40.6375 168.783 40.1655C164.801 33.6158 157.443 37.0297 157.443 37.0297C159.091 36.8551 160.43 38.3939 163.52 39.9004C166.152 41.1806 167.93 40.6311 168.402 40.4436C169.456 41.0643 170.335 41.6656 170.839 42.0277C171.156 42.2604 171.428 42.5514 171.609 42.907V42.9134L171.887 43.463C172.65 44.9113 173.264 46.4308 173.82 47.9631L174.202 49.127L174.299 49.4179L174.383 49.7153L174.544 50.3037C174.777 51.0861 174.939 51.8878 175.113 52.6831C175.159 52.8835 175.197 53.084 175.23 53.2844V53.2973C174.732 52.5344 174.215 51.8361 173.678 51.2024C171.79 43.7734 163.753 44.8855 163.753 44.8855C165.382 45.2023 166.21 47.0644 168.725 49.4115C170.865 51.4093 172.727 51.4029 173.238 51.3576C173.814 51.9848 174.286 52.5473 174.635 52.9805C175.12 53.5818 175.437 54.306 175.508 55.0754C175.508 55.0819 175.508 55.0819 175.508 55.0883L175.643 56.3039L175.676 56.6077L175.695 56.9116L175.734 57.5194L175.773 58.1272C175.786 58.3276 175.786 58.5345 175.792 58.735C175.799 59.1423 175.812 59.5496 175.812 59.9505L175.779 61.166C175.779 61.3665 175.766 61.5734 175.747 61.7738L175.702 62.3816C175.637 63.2609 175.54 64.1338 175.417 65.0067C175.243 64.276 175.042 63.5777 174.816 62.9247C175.702 55.3081 167.801 53.4848 167.801 53.4848C169.21 54.3642 169.32 56.4008 170.833 59.485C172.12 62.1165 173.865 62.776 174.35 62.9118C174.538 63.3838 174.699 63.8234 174.835 64.2114C175.171 65.1618 175.243 66.1899 175.023 67.1791C175.023 67.1856 175.023 67.1921 175.016 67.1921C174.667 68.7761 174.24 70.3408 173.678 71.8538C173.122 73.3732 172.462 74.8539 171.719 76.2828C171.499 76.6966 171.266 77.1039 171.027 77.5113C171.163 76.6513 171.24 75.8237 171.273 75.0349C174.887 68.2783 168.201 63.6747 168.201 63.6747C169.191 65.0067 168.544 66.9399 168.822 70.3667C169.055 73.2827 170.439 74.5371 170.839 74.8474C170.839 74.9573 170.839 75.0672 170.839 75.1772C170.827 77.0328 170.258 78.8497 169.184 80.3626C169.178 80.3691 169.171 80.3756 169.171 80.3885C168.24 81.7075 167.193 82.936 166.094 84.1127C165.809 84.3972 165.544 84.7011 165.253 84.9791L164.38 85.8132C164.367 85.8003 164.367 85.8067 164.354 85.7938C164.619 85.3218 164.859 84.8563 165.072 84.3908C171.027 79.5609 166.643 72.7331 166.643 72.7331C167.038 74.3431 165.693 75.8755 164.619 79.1471C163.708 81.9273 164.49 83.6149 164.742 84.061C164.568 84.4813 164.4 84.8692 164.238 85.2119C163.85 86.0524 163.281 86.8024 162.55 87.3714C162.544 87.3714 162.544 87.3779 162.538 87.3779C161.283 88.3801 159.971 89.3176 158.587 90.1258C157.785 90.6043 156.964 91.0439 156.124 91.4642C156.473 91.1086 156.796 90.7465 157.093 90.3844C162.796 87.7529 160.695 81.4424 160.695 81.4424C160.682 82.8002 159.305 83.7442 157.792 86.1236C156.505 88.1473 156.783 89.6473 156.899 90.0482C156.712 90.2939 156.537 90.5202 156.369 90.7271C155.826 91.4125 155.121 91.9556 154.32 92.2983C154.313 92.2983 154.313 92.3047 154.307 92.3047C152.833 92.9254 151.32 93.4427 149.781 93.8694L149.761 93.8759H149.755C149.341 93.9923 149.031 94.3673 149.018 94.8005C148.998 95.544 149.684 96.016 150.33 95.8221C151.947 95.3307 153.531 94.7358 155.07 94.044C156.609 93.3457 158.089 92.531 159.512 91.6388C160.372 91.1021 161.199 90.5202 162.007 89.906C163.1 89.0719 164.413 88.574 165.783 88.4577C172.941 91.2056 176.671 83.9963 176.671 83.9963C175.475 85.1472 173.471 84.7464 170.102 85.4447C167.238 86.0395 166.165 87.5654 165.906 88.0051C165.214 88.0956 164.607 88.1538 164.109 88.1861C164.561 87.7852 165.007 87.3714 165.447 86.9576L166.333 86.0654C166.63 85.7744 166.902 85.4511 167.186 85.1408C168.305 83.8864 169.359 82.5804 170.29 81.1838C170.309 81.1579 170.329 81.1256 170.348 81.0997C170.807 80.4144 171.428 79.8648 172.158 79.4962C172.275 79.438 172.398 79.3734 172.514 79.3087C180.176 79.0242 180.771 70.9292 180.771 70.9292C180.156 72.468 178.165 72.8883 175.34 74.8539Z" fill="url(#paint10_linear_203_5)"/>
<path d="M99.3161 74.8539C101.715 76.5285 102.103 78.3518 102.167 78.8561C102.549 79.0824 102.905 79.2764 103.228 79.4574C102.717 78.6104 102.239 77.7505 101.799 76.8647C101.062 75.3647 100.428 73.8129 99.8915 72.2353C99.8333 72.0607 99.7751 71.8861 99.7169 71.7116C99.2967 70.412 98.6954 69.177 97.8936 68.0714C97.8419 68.0003 97.7837 67.9227 97.732 67.8516C91.0077 64.1661 94.0918 56.6659 94.0918 56.6659C93.9883 58.3212 95.5918 59.5884 97.2341 62.6079C98.6307 65.1812 98.1652 66.9852 97.9906 67.4636C98.3333 67.9938 98.6566 68.4593 98.9346 68.8473C98.8247 68.3623 98.7212 67.8774 98.6307 67.3925C98.3139 65.7567 98.1328 64.095 98.0552 62.4333L98.0294 61.8126C98.0165 61.6057 98.01 61.3988 98.0165 61.1919V59.944C98.0229 59.5302 98.0552 59.1164 98.0682 58.6962C98.0811 58.4893 98.0811 58.2824 98.1005 58.0755L98.1587 57.4548C98.1975 57.0409 98.1716 56.6271 98.094 56.2263L97.6156 53.8534C92.7146 47.9567 98.3397 42.1117 98.3397 42.1117C97.635 43.6182 98.663 45.3769 99.0768 48.7972C99.4324 51.7003 98.3333 53.2068 97.9971 53.5947C98.1328 54.2801 98.2815 54.8879 98.4044 55.3728L98.4561 54.9849C98.5014 54.5711 98.5984 54.1702 98.676 53.7629L98.7923 53.1551C98.8311 52.9482 98.8699 52.7477 98.9216 52.5473C99.1221 51.7456 99.3031 50.9309 99.5618 50.1485L99.7428 49.5537L99.8333 49.2563L99.9368 48.9653L100.357 47.795C100.622 47.1161 100.9 46.4437 101.191 45.7713C101.721 44.5751 102.051 43.2949 102.129 41.9889C102.148 41.685 102.167 41.3875 102.2 41.0966C99.5617 33.9003 106.823 30.2795 106.823 30.2795C105.652 31.4627 106.027 33.4671 105.277 36.8228C104.637 39.6806 103.098 40.7281 102.652 40.9802C102.51 41.9565 102.439 42.7777 102.394 43.3466C102.407 43.3273 102.413 43.3079 102.426 43.282L102.717 42.7389C102.814 42.5578 102.93 42.3833 103.034 42.2087L103.674 41.1483L104.366 40.1203C104.482 39.9522 104.592 39.7776 104.715 39.6095L105.083 39.1116C105.465 38.5814 105.866 38.0707 106.286 37.5728C106.868 36.8357 107.663 35.7753 108.355 35.0059C108.678 34.6438 108.963 34.2494 109.17 33.8098C112.189 27.4411 119.573 29.2321 119.573 29.2321C117.918 29.3355 116.857 31.0813 114.064 33.0921C111.853 34.6762 110.107 34.5857 109.467 34.4757C109.39 34.5016 109.299 34.5275 109.221 34.5533L108.374 35.4391C107.269 36.6547 106.215 37.909 105.29 39.2668L104.935 39.7647C104.818 39.9328 104.715 40.1073 104.605 40.2819L103.945 41.3164L103.667 41.8014C104.405 41.1806 105.142 40.6375 105.872 40.1655C109.855 33.6158 117.213 37.0297 117.213 37.0297C115.564 36.8551 114.226 38.3939 111.135 39.9004C108.504 41.1806 106.726 40.6311 106.254 40.4436C105.2 41.0643 104.32 41.6656 103.816 42.0277C103.499 42.2604 103.228 42.5514 103.047 42.907V42.9134L102.769 43.463C102.006 44.9113 101.392 46.4308 100.835 47.9631L100.454 49.127L100.357 49.4179L100.279 49.7153L100.118 50.3037C99.885 51.0861 99.7234 51.8878 99.5488 52.6831C99.5036 52.8835 99.4648 53.084 99.4324 53.2844V53.2973C99.9303 52.5344 100.448 51.8361 100.984 51.2024C102.872 43.7734 110.909 44.8855 110.909 44.8855C109.28 45.2023 108.452 47.0644 105.937 49.4115C103.797 51.4093 101.935 51.4029 101.424 51.3576C100.848 51.9848 100.376 52.5473 100.027 52.9805C99.5424 53.5818 99.2255 54.306 99.1544 55.0754C99.1544 55.0819 99.1544 55.0819 99.1544 55.0883L99.0186 56.3039L98.9863 56.6077L98.9669 56.9116L98.9281 57.5194L98.8893 58.1272C98.8764 58.3276 98.8764 58.5345 98.8699 58.735C98.8505 59.1358 98.8376 59.5367 98.8376 59.944L98.8699 61.1596C98.8699 61.36 98.8829 61.5669 98.9023 61.7674L98.9475 62.3751C99.0122 63.2545 99.1092 64.1273 99.232 65.0002C99.4066 64.2696 99.607 63.5713 99.8333 62.9182C98.9475 55.3017 106.849 53.4784 106.849 53.4784C105.439 54.3577 105.329 56.3944 103.816 59.4785C102.529 62.11 100.784 62.7695 100.299 62.9053C100.111 63.3773 99.9497 63.817 99.8139 64.2049C99.4777 65.1554 99.4066 66.1834 99.6264 67.1727C99.6264 67.1791 99.6264 67.1856 99.6329 67.1856C99.982 68.7697 100.409 70.3344 100.971 71.8473C101.527 73.3668 102.187 74.8474 102.93 76.2763C103.15 76.6901 103.383 77.0975 103.622 77.5048C103.486 76.6449 103.409 75.8173 103.376 75.0285C99.7622 68.2718 106.448 63.6683 106.448 63.6683C105.458 65.0002 106.105 66.9334 105.827 70.3602C105.594 73.2763 104.211 74.5306 103.81 74.841C103.81 74.9509 103.81 75.0608 103.81 75.1707C103.823 77.0263 104.392 78.8432 105.465 80.3562C105.471 80.3626 105.478 80.3691 105.478 80.382C106.409 81.701 107.456 82.9295 108.556 84.1063C108.84 84.3908 109.105 84.6946 109.396 84.9727L110.269 85.8067C110.282 85.7938 110.275 85.8003 110.295 85.7873C110.03 85.3153 109.79 84.8498 109.577 84.3843C103.622 79.5544 108.006 72.7267 108.006 72.7267C107.612 74.3366 108.956 75.869 110.03 79.1406C110.941 81.9209 110.159 83.6084 109.907 84.0545C110.081 84.4748 110.25 84.8627 110.411 85.2054C110.799 86.046 111.368 86.796 112.099 87.365C112.105 87.365 112.105 87.3714 112.112 87.3714C113.366 88.3736 114.678 89.3111 116.062 90.1193C116.864 90.5978 117.685 91.0375 118.526 91.4577C118.176 91.1021 117.853 90.74 117.556 90.378C111.853 87.7464 113.954 81.4359 113.954 81.4359C113.967 82.7937 115.344 83.7377 116.857 86.1171C118.144 88.1408 117.866 89.6409 117.75 90.0418C117.937 90.2874 118.112 90.5137 118.28 90.7206C118.823 91.406 119.528 91.9491 120.329 92.2918C120.336 92.2918 120.336 92.2983 120.342 92.2983C121.817 92.919 123.33 93.4362 124.868 93.863L124.888 93.8694H124.894C125.308 93.9858 125.618 94.3608 125.631 94.794C125.651 95.5376 124.965 96.0096 124.319 95.8156C122.702 95.3242 121.118 94.7294 119.579 94.0375C118.041 93.3392 116.56 92.5246 115.138 91.6323C114.278 91.0957 113.45 90.5137 112.642 89.8995C111.549 89.0654 110.237 88.5676 108.866 88.4512C101.708 91.1991 97.9777 83.9899 97.9777 83.9899C99.1738 85.1408 101.178 84.7399 104.547 85.4382C107.411 86.033 108.484 87.5589 108.743 87.9986C109.435 88.0891 110.043 88.1473 110.54 88.1796C110.088 87.7788 109.642 87.365 109.202 86.9512L108.316 86.0589C108.019 85.7679 107.747 85.4447 107.463 85.1343C106.344 83.88 105.29 82.5739 104.359 81.1773C104.34 81.1514 104.32 81.1191 104.301 81.0933C103.842 80.4079 103.221 79.8583 102.491 79.4898C102.368 79.4316 102.251 79.3669 102.135 79.3023C94.4474 79.0372 93.8461 70.9421 93.8461 70.9421C94.4991 72.468 96.497 72.8883 99.3161 74.8539Z" fill="url(#paint11_linear_203_5)"/>
<defs>
<linearGradient id="paint0_linear_203_5" x1="49.2508" y1="72.4617" x2="49.2508" y2="138.656" gradientUnits="userSpaceOnUse">
<stop stop-color="#FAE894"/>
<stop offset="0.8939" stop-color="#977A1C"/>
</linearGradient>
<linearGradient id="paint1_linear_203_5" x1="73.4925" y1="72.4617" x2="73.4925" y2="138.656" gradientUnits="userSpaceOnUse">
<stop stop-color="#FAE894"/>
<stop offset="0.8939" stop-color="#977A1C"/>
</linearGradient>
<linearGradient id="paint2_linear_203_5" x1="96.643" y1="72.4617" x2="96.643" y2="138.656" gradientUnits="userSpaceOnUse">
<stop stop-color="#FAE894"/>
<stop offset="0.8939" stop-color="#977A1C"/>
</linearGradient>
<linearGradient id="paint3_linear_203_5" x1="127.028" y1="72.4617" x2="127.028" y2="138.656" gradientUnits="userSpaceOnUse">
<stop stop-color="#FAE894"/>
<stop offset="0.8939" stop-color="#977A1C"/>
</linearGradient>
<linearGradient id="paint4_linear_203_5" x1="149.417" y1="72.4617" x2="149.417" y2="138.656" gradientUnits="userSpaceOnUse">
<stop stop-color="#FAE894"/>
<stop offset="0.8939" stop-color="#977A1C"/>
</linearGradient>
<linearGradient id="paint5_linear_203_5" x1="174.295" y1="72.4617" x2="174.295" y2="138.656" gradientUnits="userSpaceOnUse">
<stop stop-color="#FAE894"/>
<stop offset="0.8939" stop-color="#977A1C"/>
</linearGradient>
<linearGradient id="paint6_linear_203_5" x1="200.337" y1="72.4617" x2="200.337" y2="138.656" gradientUnits="userSpaceOnUse">
<stop stop-color="#FAE894"/>
<stop offset="0.8939" stop-color="#977A1C"/>
</linearGradient>
<linearGradient id="paint7_linear_203_5" x1="224.821" y1="72.4617" x2="224.821" y2="138.656" gradientUnits="userSpaceOnUse">
<stop stop-color="#FAE894"/>
<stop offset="0.8939" stop-color="#977A1C"/>
</linearGradient>
<linearGradient id="paint8_linear_203_5" x1="83.8147" y1="7.04279" x2="176.405" y2="92.7067" gradientUnits="userSpaceOnUse">
<stop stop-color="#FAE894"/>
<stop offset="0.6341" stop-color="#977A1C"/>
<stop offset="1" stop-color="#FAE894"/>
</linearGradient>
<linearGradient id="paint9_linear_203_5" x1="78.0209" y1="13.3051" x2="170.611" y2="98.969" gradientUnits="userSpaceOnUse">
<stop stop-color="#FAE894"/>
<stop offset="0.6341" stop-color="#977A1C"/>
<stop offset="1" stop-color="#FAE894"/>
</linearGradient>
<linearGradient id="paint10_linear_203_5" x1="90.5656" y1="-0.253794" x2="183.155" y2="85.4101" gradientUnits="userSpaceOnUse">
<stop stop-color="#FAE894"/>
<stop offset="0.6341" stop-color="#977A1C"/>
<stop offset="1" stop-color="#FAE894"/>
</linearGradient>
<linearGradient id="paint11_linear_203_5" x1="70.4232" y1="21.517" x2="163.013" y2="107.181" gradientUnits="userSpaceOnUse">
<stop stop-color="#FAE894"/>
<stop offset="0.6341" stop-color="#977A1C"/>
<stop offset="1" stop-color="#FAE894"/>
</linearGradient>
</defs>
</svg>
