<svg width="104" height="67" viewBox="0 0 104 67" fill="none" xmlns="http://www.w3.org/2000/svg">
<rect width="104" height="40" fill="#FFD500"/>
<rect x="6" width="92" height="67" fill="white"/>
<path d="M17.6139 44.8355V47.5105C17.6139 48.0876 17.6775 48.4471 17.8046 48.5864C17.9758 48.7845 18.235 48.8847 18.5847 48.8847H18.9368V49.1342H15V48.8847H15.3448C15.7336 48.8847 16.0099 48.7576 16.1786 48.5057C16.2691 48.3664 16.3131 48.0338 16.3131 47.5105V41.576C16.3131 40.999 16.2519 40.6395 16.1297 40.5001C15.9536 40.3021 15.692 40.2018 15.3448 40.2018H15V39.9524H18.367C19.1886 39.9524 19.8366 40.038 20.311 40.2067C20.7853 40.3754 21.1839 40.6615 21.5091 41.0625C21.8343 41.4636 21.9982 41.9404 21.9982 42.4905C21.9982 43.2412 21.7512 43.8501 21.2573 44.3196C20.7633 44.789 20.064 45.0238 19.1617 45.0238C18.9392 45.0238 18.702 45.0091 18.4428 44.9773C18.1837 44.9455 17.9073 44.8966 17.6139 44.8355ZM17.6139 44.4491C17.8535 44.4956 18.0663 44.5274 18.2497 44.5518C18.4355 44.5739 18.592 44.5861 18.724 44.5861C19.1935 44.5861 19.5994 44.4051 19.9393 44.0408C20.2792 43.6789 20.4504 43.207 20.4504 42.6275C20.4504 42.2289 20.3697 41.8621 20.2058 41.5198C20.042 41.1799 19.8122 40.9232 19.5138 40.7544C19.2155 40.5857 18.8781 40.5001 18.4966 40.5001C18.2668 40.5001 17.9709 40.5442 17.609 40.6297V44.4491H17.6139Z" fill="url(#paint0_linear_203_6)"/>
<path d="M26.6294 44.0408L30.016 47.4078C30.571 47.9629 31.0454 48.3419 31.4391 48.5424C31.8328 48.7429 32.224 48.8578 32.6177 48.8847V49.1342H28.2481V48.8847C28.5097 48.8847 28.698 48.8407 28.8129 48.7527C28.9279 48.6647 28.9865 48.5669 28.9865 48.4593C28.9865 48.3517 28.9645 48.2539 28.923 48.1683C28.8814 48.0827 28.7396 47.9213 28.4999 47.6866L25.331 44.5518V47.5105C25.331 47.9751 25.3603 48.2832 25.419 48.4324C25.4655 48.5449 25.5584 48.6427 25.7026 48.7234C25.8958 48.8309 26.1012 48.8872 26.3188 48.8872H26.6318V49.1366H22.7146V48.8872H23.0398C23.4188 48.8872 23.6951 48.7771 23.8663 48.5546C23.9739 48.4104 24.0277 48.0632 24.0277 47.5105V41.576C24.0277 41.1114 23.9983 40.8009 23.9396 40.6493C23.8956 40.5417 23.8027 40.4463 23.6609 40.3657C23.4628 40.2581 23.255 40.2043 23.0374 40.2043H22.7122V39.9549H26.6269V40.2043H26.3139C26.1012 40.2043 25.8958 40.2556 25.6977 40.3608C25.5584 40.4341 25.4606 40.5417 25.4068 40.686C25.353 40.8302 25.3261 41.1286 25.3261 41.5809V44.3929C25.4165 44.3073 25.7246 44.0212 26.2528 43.5322C27.5952 42.3047 28.4046 41.4831 28.6833 41.0723C28.8056 40.8914 28.8667 40.7349 28.8667 40.598C28.8667 40.4953 28.8203 40.4023 28.7249 40.3241C28.6295 40.2458 28.4706 40.2067 28.2432 40.2067H28.0329V39.9573H31.4073V40.2067C31.2092 40.2116 31.0283 40.2385 30.8645 40.2874C30.7006 40.3363 30.5026 40.4341 30.2678 40.5759C30.0331 40.7178 29.7446 40.9476 29.3998 41.263C29.2995 41.3535 28.8423 41.8157 28.0256 42.6519L26.6294 44.0408Z" fill="url(#paint1_linear_203_6)"/>
<path d="M38.8628 39.7397V42.916H38.6134C38.5327 42.3071 38.386 41.8206 38.1757 41.4611C37.9654 41.0992 37.6671 40.8131 37.2783 40.6004C36.8895 40.3877 36.4885 40.2825 36.0728 40.2825C35.6033 40.2825 35.2145 40.4268 34.9064 40.7129C34.5983 40.999 34.4467 41.3266 34.4467 41.691C34.4467 41.9697 34.5445 42.2265 34.7377 42.4563C35.0165 42.7937 35.684 43.2461 36.7354 43.8109C37.5937 44.2706 38.1781 44.6252 38.4935 44.8722C38.8065 45.1191 39.0486 45.4077 39.2173 45.7427C39.386 46.0776 39.4716 46.4273 39.4716 46.7916C39.4716 47.4861 39.2027 48.0876 38.6623 48.5913C38.1219 49.095 37.4274 49.3469 36.579 49.3469C36.3124 49.3469 36.0606 49.3273 35.8258 49.2857C35.6865 49.2637 35.3955 49.1806 34.9553 49.0388C34.5152 48.897 34.2365 48.8261 34.1191 48.8261C34.0066 48.8261 33.9161 48.8603 33.8526 48.9287C33.7865 48.9972 33.7376 49.1366 33.7058 49.3493H33.4564V46.1999H33.7058C33.8232 46.8601 33.9822 47.3516 34.1802 47.6793C34.3783 48.0069 34.6839 48.2783 35.0923 48.496C35.5006 48.7136 35.9481 48.8212 36.4371 48.8212C37.002 48.8212 37.447 48.672 37.7747 48.3737C38.1023 48.0754 38.2661 47.7233 38.2661 47.3174C38.2661 47.0924 38.205 46.8626 38.0803 46.6327C37.9556 46.4029 37.7624 46.1877 37.5008 45.9896C37.3247 45.8527 36.843 45.5666 36.0581 45.1265C35.2732 44.6863 34.7133 44.3342 34.3807 44.0726C34.0482 43.8109 33.7963 43.5224 33.6252 43.2045C33.454 42.8891 33.3684 42.5419 33.3684 42.1604C33.3684 41.5002 33.6203 40.9329 34.1264 40.4561C34.6326 39.9793 35.2757 39.7421 36.0557 39.7421C36.5423 39.7421 37.0607 39.8619 37.6059 40.1016C37.8578 40.2141 38.0363 40.2703 38.1414 40.2703C38.2588 40.2703 38.3542 40.2361 38.43 40.1651C38.5033 40.0942 38.5645 39.9549 38.6085 39.7421H38.8628V39.7397Z" fill="url(#paint2_linear_203_6)"/>
<path d="M51.6389 46.596L51.8614 46.6425L51.0765 49.1342H43.9634V48.8847H44.3082C44.6969 48.8847 44.9732 48.7576 45.142 48.5057C45.2373 48.3615 45.2838 48.0265 45.2838 47.5032V41.576C45.2838 41.0014 45.2202 40.6444 45.0931 40.5001C44.917 40.3021 44.6554 40.2018 44.3082 40.2018H43.9634V39.9524H48.1227V40.2018C47.6336 40.1969 47.2937 40.241 47.0957 40.3363C46.9001 40.4317 46.7656 40.5515 46.6922 40.6958C46.6189 40.84 46.5846 41.1848 46.5846 41.7325V47.5032C46.5846 47.8773 46.6213 48.1365 46.6922 48.2759C46.746 48.3712 46.8292 48.4422 46.9416 48.4862C47.0541 48.5326 47.4062 48.5546 47.998 48.5546H48.6679C49.3722 48.5546 49.8661 48.5033 50.1522 48.3981C50.4383 48.293 50.6975 48.1096 50.9322 47.8455C51.1694 47.5814 51.4017 47.1658 51.6389 46.596Z" fill="url(#paint3_linear_203_6)"/>
<path d="M55.0597 40.4512V44.0824H57.0795C57.6027 44.0824 57.9524 44.0041 58.1284 43.8452C58.3632 43.6373 58.4952 43.2706 58.5221 42.7473H58.7715V45.9432H58.5221C58.4586 45.4957 58.395 45.2096 58.3314 45.0825C58.2507 44.9235 58.1162 44.8013 57.9328 44.7108C57.747 44.6203 57.4634 44.5763 57.0795 44.5763H55.0597V47.6035C55.0597 48.0094 55.0768 48.2563 55.1135 48.3443C55.1502 48.4324 55.2138 48.5033 55.3042 48.5546C55.3947 48.606 55.5659 48.6329 55.8177 48.6329H57.3753C57.8937 48.6329 58.2727 48.5962 58.5075 48.5253C58.7422 48.4519 58.9696 48.3101 59.1848 48.0998C59.4635 47.8211 59.7521 47.3981 60.0455 46.8332H60.3169L59.5247 49.1366H52.4458V48.8872H52.771C52.9886 48.8872 53.194 48.8358 53.3872 48.7307C53.5315 48.6573 53.6293 48.5497 53.6806 48.4055C53.732 48.2612 53.7589 47.9653 53.7589 47.5179V41.5516C53.7589 40.9696 53.7002 40.6102 53.5828 40.4757C53.4214 40.2947 53.15 40.2043 52.771 40.2043H52.4458V39.9549H59.5247L59.6274 41.9673H59.3633C59.2679 41.4831 59.1628 41.153 59.0478 40.9721C58.9329 40.7911 58.7618 40.6542 58.5368 40.5588C58.3559 40.4904 58.038 40.4561 57.5807 40.4561H55.0597V40.4512Z" fill="url(#paint4_linear_203_6)"/>
<path d="M69.1467 39.7397L69.3839 42.6397H69.1467C68.9071 41.9159 68.599 41.3731 68.22 41.0063C67.6747 40.4781 66.9705 40.2141 66.1147 40.2141C64.9459 40.2141 64.0558 40.6762 63.447 41.6029C62.9359 42.3829 62.6816 43.3146 62.6816 44.3929C62.6816 45.2683 62.8503 46.0679 63.1902 46.7916C63.5301 47.5154 63.9727 48.0436 64.5204 48.381C65.0681 48.716 65.633 48.8847 66.21 48.8847C66.5475 48.8847 66.8751 48.8407 67.193 48.7551C67.5084 48.6696 67.8141 48.5424 68.1075 48.3761V45.7206C68.1075 45.2609 68.0733 44.9577 68.0024 44.8159C67.9315 44.6741 67.8239 44.5665 67.6772 44.4907C67.5305 44.4174 67.2713 44.3782 66.902 44.3782V44.1215H70.4574V44.3782H70.2886C69.9365 44.3782 69.6945 44.4956 69.5649 44.7303C69.4744 44.8966 69.4279 45.2267 69.4279 45.7206V48.5326C68.9095 48.8114 68.3961 49.0168 67.8899 49.1488C67.3837 49.2784 66.8213 49.3444 66.2027 49.3444C64.4275 49.3444 63.0802 48.7747 62.1583 47.6377C61.4664 46.7843 61.1216 45.7989 61.1216 44.6839C61.1216 43.8745 61.3148 43.1018 61.7035 42.3609C62.1632 41.4807 62.7965 40.8033 63.601 40.329C64.2734 39.9353 65.0681 39.7397 65.9851 39.7397C66.3201 39.7397 66.6233 39.7666 66.8971 39.8204C67.171 39.8742 67.5574 39.994 68.0586 40.1798C68.3105 40.2752 68.4816 40.3216 68.5672 40.3216C68.6528 40.3216 68.7262 40.2825 68.7873 40.2043C68.8484 40.126 68.8851 39.9695 68.8998 39.7397H69.1467Z" fill="url(#paint5_linear_203_6)"/>
<path d="M76.9982 46.0605H73.4429L72.8194 47.5105C72.6653 47.8675 72.5895 48.1341 72.5895 48.3101C72.5895 48.4495 72.6555 48.5742 72.79 48.6794C72.9221 48.7845 73.2106 48.8554 73.6532 48.8872V49.1366H70.7605V48.8872C71.1444 48.8187 71.3914 48.7307 71.5063 48.6231C71.7361 48.4055 71.9929 47.9654 72.2716 47.3027L75.5017 39.7421H75.7389L78.9373 47.3834C79.194 47.9971 79.4287 48.3957 79.639 48.5791C79.8493 48.7625 80.1403 48.8652 80.5169 48.8872V49.1366H76.8931V48.8872C77.2598 48.8701 77.5068 48.8089 77.634 48.7038C77.7636 48.6011 77.8271 48.474 77.8271 48.3248C77.8271 48.1267 77.7367 47.8113 77.5557 47.3834L76.9982 46.0605ZM76.8075 45.5593L75.2499 41.8475L73.6507 45.5593H76.8075Z" fill="url(#paint6_linear_203_6)"/>
<path d="M88.6227 46.596L88.8453 46.6425L88.0604 49.1342H80.9473V48.8847H81.292C81.6808 48.8847 81.9571 48.7576 82.1258 48.5057C82.2212 48.3615 82.2677 48.0265 82.2677 47.5032V41.576C82.2677 41.0014 82.2041 40.6444 82.0769 40.5001C81.9009 40.3021 81.6393 40.2018 81.292 40.2018H80.9473V39.9524H85.1065V40.2018C84.6175 40.1969 84.2776 40.241 84.0796 40.3363C83.884 40.4317 83.7495 40.5515 83.6761 40.6958C83.6027 40.84 83.5685 41.1848 83.5685 41.7325V47.5032C83.5685 47.8773 83.6052 48.1365 83.6761 48.2759C83.7299 48.3712 83.813 48.4422 83.9255 48.4862C84.038 48.5326 84.3901 48.5546 84.9818 48.5546H85.6518C86.356 48.5546 86.85 48.5033 87.1361 48.3981C87.4197 48.2954 87.6813 48.1096 87.9161 47.8455C88.1508 47.5814 88.3856 47.1658 88.6227 46.596Z" fill="url(#paint7_linear_203_6)"/>
<path d="M25.1818 54.1053H23.8541L23.6095 54.7826H23.189L24.2893 51.7554H24.749L25.8445 54.7826H25.4263L25.1818 54.1053ZM25.0693 53.7825L24.5192 52.2445L23.969 53.7825H25.0693Z" fill="#6B6D6B"/>
<path d="M28.1381 51.9241C28.3801 52.0488 28.5684 52.2249 28.698 52.4547C28.8276 52.6846 28.8936 52.956 28.8936 53.2665C28.8936 53.5771 28.8276 53.8485 28.698 54.0759C28.5684 54.3058 28.3826 54.4794 28.1381 54.5992C27.896 54.719 27.6075 54.7801 27.2749 54.7801H26.3262V51.7359H27.2749C27.6075 51.7383 27.8935 51.7994 28.1381 51.9241ZM28.1747 54.1419C28.3826 53.9341 28.4853 53.6407 28.4853 53.2665C28.4853 52.8875 28.3801 52.5917 28.1723 52.3789C27.9645 52.1662 27.6637 52.0611 27.2749 52.0611H26.7247V54.4549H27.2749C27.6686 54.4549 27.9669 54.3498 28.1747 54.1419Z" fill="#6B6D6B"/>
<path d="M31.9305 51.7383L30.7813 54.7826H30.3216L29.1724 51.7383H29.5954L30.5515 54.3644L31.5075 51.7383H31.9305Z" fill="#6B6D6B"/>
<path d="M32.9746 54.6139C32.7423 54.4818 32.5564 54.296 32.4219 54.0588C32.2875 53.8216 32.219 53.5551 32.219 53.2568C32.219 52.9585 32.2875 52.6919 32.4219 52.4548C32.5564 52.2176 32.7423 52.0317 32.9746 51.8997C33.2069 51.7677 33.466 51.7016 33.7472 51.7016C34.0333 51.7016 34.2925 51.7677 34.5248 51.8997C34.7571 52.0317 34.9405 52.2151 35.075 52.4523C35.2095 52.6895 35.2755 52.956 35.2755 53.2568C35.2755 53.5576 35.2095 53.8241 35.075 54.0613C34.9405 54.296 34.7571 54.4818 34.5248 54.6139C34.2925 54.7459 34.0333 54.8119 33.7472 54.8119C33.466 54.8119 33.2093 54.7459 32.9746 54.6139ZM34.3219 54.3205C34.493 54.2202 34.6251 54.0808 34.7229 53.8974C34.8207 53.714 34.8696 53.5013 34.8696 53.2592C34.8696 53.0147 34.8207 52.802 34.7229 52.6186C34.6251 52.4377 34.493 52.2958 34.3243 52.198C34.1556 52.0978 33.9624 52.0489 33.7472 52.0489C33.5321 52.0489 33.3389 52.0978 33.1702 52.198C33.0015 52.2983 32.867 52.4377 32.7716 52.6186C32.6738 52.802 32.6249 53.0147 32.6249 53.2592C32.6249 53.5013 32.6738 53.714 32.7716 53.8974C32.8694 54.0808 33.0039 54.2226 33.1726 54.3205C33.3413 54.4183 33.5345 54.4696 33.7472 54.4696C33.96 54.4672 34.1531 54.4183 34.3219 54.3205Z" fill="#6B6D6B"/>
<path d="M35.8551 52.4572C35.9895 52.22 36.1729 52.0342 36.4028 51.8997C36.6326 51.7652 36.8918 51.6992 37.173 51.6992C37.5056 51.6992 37.7941 51.7799 38.0435 51.9388C38.2905 52.0978 38.4714 52.3252 38.5863 52.621H38.1071C38.0215 52.4376 37.9017 52.2958 37.7427 52.198C37.5838 52.0978 37.3931 52.0489 37.173 52.0489C36.9603 52.0489 36.7696 52.0978 36.6008 52.198C36.4321 52.2983 36.3001 52.4376 36.2023 52.6186C36.1069 52.802 36.058 53.0147 36.058 53.2592C36.058 53.5013 36.1069 53.714 36.2023 53.895C36.2976 54.0759 36.4321 54.2177 36.6008 54.3156C36.7696 54.4134 36.9603 54.4647 37.173 54.4647C37.3931 54.4647 37.5838 54.4158 37.7427 54.318C37.9017 54.2202 38.0239 54.0808 38.1071 53.8974H38.5839C38.4714 54.1884 38.2905 54.4134 38.0411 54.5723C37.7917 54.7312 37.5031 54.8095 37.1706 54.8095C36.8869 54.8095 36.6302 54.7435 36.4003 54.6114C36.168 54.4794 35.9871 54.296 35.8526 54.0588C35.7181 53.8216 35.6521 53.5575 35.6521 53.2592C35.6521 52.9609 35.7206 52.6944 35.8551 52.4572Z" fill="#6B6D6B"/>
<path d="M40.9728 54.1053H39.6451L39.4006 54.7826H38.98L40.0803 51.7554H40.54L41.6355 54.7826H41.2173L40.9728 54.1053ZM40.8603 53.7825L40.3102 52.2445L39.76 53.7825H40.8603Z" fill="#6B6D6B"/>
<path d="M43.9929 51.7383V52.0611H43.164V54.7826H42.7655V52.0611H41.9316V51.7383H43.9929Z" fill="#6B6D6B"/>
<path d="M44.8803 52.0611V53.0783H45.9904V53.4059H44.8803V54.4549H46.12V54.7826H44.4817V51.7334H46.12V52.0611H44.8803Z" fill="#6B6D6B"/>
<path d="M47.1495 54.7068C46.9905 54.6359 46.8658 54.5356 46.7754 54.4109C46.6849 54.2838 46.6384 54.1371 46.636 53.9708H47.059C47.0737 54.1126 47.1324 54.2349 47.2351 54.3302C47.3378 54.428 47.4894 54.4769 47.6874 54.4769C47.8757 54.4769 48.0249 54.4305 48.1349 54.3351C48.2449 54.2398 48.2987 54.1199 48.2987 53.9708C48.2987 53.8534 48.2669 53.7605 48.2034 53.6871C48.1398 53.6138 48.0591 53.56 47.9637 53.5209C47.8684 53.4842 47.7388 53.4426 47.5749 53.3986C47.3744 53.3473 47.2131 53.2935 47.0932 53.2421C46.9734 53.1908 46.8683 53.1076 46.7827 52.9952C46.6971 52.8827 46.6531 52.7311 46.6531 52.5428C46.6531 52.3765 46.6947 52.2298 46.7803 52.1027C46.8658 51.9755 46.9832 51.8753 47.1372 51.8068C47.2889 51.7359 47.4649 51.7016 47.663 51.7016C47.9491 51.7016 48.1814 51.7726 48.3647 51.9168C48.5457 52.0586 48.6484 52.2494 48.6728 52.4841H48.2351C48.2205 52.3667 48.1593 52.264 48.0518 52.176C47.9442 52.088 47.8023 52.044 47.6238 52.044C47.4576 52.044 47.3231 52.088 47.2179 52.1736C47.1128 52.2591 47.0614 52.379 47.0614 52.533C47.0614 52.643 47.0932 52.7335 47.1544 52.8044C47.2179 52.8753 47.2937 52.9267 47.3867 52.9634C47.4796 53 47.6067 53.0416 47.773 53.0881C47.9735 53.1443 48.1349 53.1981 48.2572 53.2519C48.3794 53.3057 48.4846 53.3888 48.5726 53.5013C48.6606 53.6138 48.7046 53.7654 48.7046 53.9586C48.7046 54.1077 48.6655 54.2471 48.5873 54.3767C48.509 54.5087 48.3916 54.6139 48.2376 54.6946C48.0835 54.7753 47.9002 54.8168 47.6923 54.8168C47.4869 54.8119 47.306 54.7777 47.1495 54.7068Z" fill="#6B6D6B"/>
<path d="M52.7905 54.7826L52.392 54.3816C52.2428 54.5356 52.0839 54.6505 51.9151 54.7239C51.7464 54.7973 51.5557 54.8364 51.343 54.8364C51.1327 54.8364 50.9468 54.7973 50.7855 54.7239C50.6241 54.6481 50.4994 54.5405 50.4089 54.4011C50.3209 54.2618 50.2769 54.0979 50.2769 53.9121C50.2769 53.6994 50.338 53.5135 50.4578 53.3497C50.5776 53.1859 50.7561 53.0612 50.9933 52.9682C50.9004 52.8582 50.8319 52.7555 50.7928 52.6626C50.7512 52.5697 50.7317 52.467 50.7317 52.3569C50.7317 52.2298 50.7634 52.1124 50.8295 52.0097C50.8955 51.907 50.9884 51.8263 51.1107 51.7677C51.2329 51.709 51.3748 51.6796 51.5337 51.6796C51.6902 51.6796 51.8271 51.709 51.9445 51.7725C52.0619 51.8337 52.1474 51.9193 52.2061 52.0268C52.2648 52.1369 52.2893 52.2567 52.2844 52.3912H51.8858C51.8882 52.2714 51.8565 52.1784 51.7855 52.11C51.7146 52.0415 51.6266 52.0073 51.5141 52.0073C51.3968 52.0073 51.3038 52.0391 51.2329 52.1051C51.162 52.1711 51.1253 52.2542 51.1253 52.3569C51.1253 52.445 51.1498 52.5281 51.1962 52.6113C51.2452 52.6919 51.3258 52.7922 51.4383 52.912L52.3479 53.8241L52.4262 53.7018L52.7221 53.203H53.15L52.793 53.8241C52.7441 53.9121 52.6854 54.0026 52.6194 54.1004L53.304 54.785H52.7905V54.7826ZM51.7709 54.4011C51.898 54.34 52.0178 54.2446 52.1303 54.1175L51.2354 53.2177C50.8637 53.3595 50.6754 53.5869 50.6754 53.895C50.6754 54.0661 50.7366 54.2104 50.8613 54.3229C50.986 54.4354 51.1449 54.4941 51.343 54.4941C51.5019 54.4941 51.6437 54.4647 51.7709 54.4011Z" fill="#6B6D6B"/>
<path d="M56.6469 54.1053H55.3191L55.0746 54.7826H54.6565L55.7568 51.7554H56.2165L57.312 54.7826H56.8914L56.6469 54.1053ZM56.5344 53.7825L55.9842 52.2445L55.4341 53.7825H56.5344Z" fill="#6B6D6B"/>
<path d="M58.2191 54.7068C58.0601 54.6359 57.9354 54.5356 57.8449 54.4109C57.7545 54.2838 57.708 54.1371 57.7056 53.9708H58.1286C58.1433 54.1126 58.2019 54.2349 58.3046 54.3302C58.4073 54.428 58.5589 54.4769 58.757 54.4769C58.9453 54.4769 59.0944 54.4305 59.2045 54.3351C59.3145 54.2398 59.3683 54.1199 59.3683 53.9708C59.3683 53.8534 59.3365 53.7605 59.2729 53.6871C59.2094 53.6138 59.1287 53.56 59.0333 53.5209C58.9379 53.4842 58.8084 53.4426 58.6445 53.3986C58.444 53.3473 58.2826 53.2935 58.1628 53.2421C58.0406 53.1908 57.9379 53.1076 57.8523 52.9952C57.7667 52.8827 57.7227 52.7311 57.7227 52.5428C57.7227 52.3765 57.7643 52.2298 57.8498 52.1027C57.9354 51.9755 58.0528 51.8753 58.2068 51.8068C58.3609 51.7359 58.5345 51.7016 58.7326 51.7016C59.0186 51.7016 59.2509 51.7726 59.4343 51.9168C59.6153 52.0586 59.718 52.2494 59.7424 52.4841H59.3047C59.2901 52.3667 59.2289 52.264 59.1213 52.176C59.0138 52.088 58.8719 52.044 58.6934 52.044C58.5272 52.044 58.3927 52.088 58.2875 52.1736C58.1824 52.2591 58.131 52.379 58.131 52.533C58.131 52.643 58.1628 52.7335 58.224 52.8044C58.2875 52.8753 58.3633 52.9267 58.4562 52.9634C58.5492 53 58.6763 53.0416 58.8426 53.0881C59.0431 53.1443 59.2045 53.1981 59.3267 53.2519C59.449 53.3057 59.5541 53.3888 59.6422 53.5013C59.7302 53.6138 59.7742 53.7654 59.7742 53.9586C59.7742 54.1077 59.7351 54.2471 59.6568 54.3767C59.5786 54.5087 59.4612 54.6139 59.3072 54.6946C59.1531 54.7753 58.9697 54.8168 58.7619 54.8168C58.5565 54.8119 58.378 54.7777 58.2191 54.7068Z" fill="#6B6D6B"/>
<path d="M60.7813 54.7068C60.6224 54.6359 60.4977 54.5356 60.4072 54.4109C60.3167 54.2838 60.2703 54.1371 60.2678 53.9708H60.6908C60.7055 54.1126 60.7642 54.2349 60.8669 54.3302C60.9696 54.428 61.1212 54.4769 61.3193 54.4769C61.5075 54.4769 61.6567 54.4305 61.7667 54.3351C61.8768 54.2398 61.9306 54.1199 61.9306 53.9708C61.9306 53.8534 61.8988 53.7605 61.8352 53.6871C61.7716 53.6138 61.6909 53.56 61.5956 53.5209C61.5002 53.4842 61.3706 53.4426 61.2068 53.3986C61.0063 53.3473 60.8449 53.2935 60.7251 53.2421C60.6028 53.1908 60.5001 53.1076 60.4145 52.9952C60.329 52.8827 60.2849 52.7311 60.2849 52.5428C60.2849 52.3765 60.3265 52.2298 60.4121 52.1027C60.4977 51.9755 60.615 51.8753 60.7691 51.8068C60.9231 51.7359 61.0967 51.7016 61.2948 51.7016C61.5809 51.7016 61.8132 51.7726 61.9966 51.9168C62.1775 52.0586 62.2802 52.2494 62.3047 52.4841H61.867C61.8523 52.3667 61.7912 52.264 61.6836 52.176C61.576 52.088 61.4342 52.044 61.2557 52.044C61.0894 52.044 60.9549 52.088 60.8498 52.1736C60.7446 52.2591 60.6933 52.379 60.6933 52.533C60.6933 52.643 60.7251 52.7335 60.7862 52.8044C60.8498 52.8753 60.9256 52.9267 61.0185 52.9634C61.1114 53 61.2386 53.0416 61.4048 53.0881C61.6053 53.1443 61.7667 53.1981 61.889 53.2519C62.0112 53.3057 62.1164 53.3888 62.2044 53.5013C62.2924 53.6138 62.3365 53.7654 62.3365 53.9586C62.3365 54.1077 62.2973 54.2471 62.2191 54.3767C62.1408 54.5087 62.0235 54.6139 61.8694 54.6946C61.7154 54.7753 61.532 54.8168 61.3241 54.8168C61.1212 54.8119 60.9403 54.7777 60.7813 54.7068Z" fill="#6B6D6B"/>
<path d="M63.5275 54.6139C63.2952 54.4818 63.1094 54.296 62.9749 54.0588C62.8404 53.8216 62.772 53.5551 62.772 53.2568C62.772 52.9585 62.8404 52.6919 62.9749 52.4548C63.1094 52.2176 63.2952 52.0317 63.5275 51.8997C63.7598 51.7677 64.019 51.7016 64.3002 51.7016C64.5863 51.7016 64.8455 51.7677 65.0778 51.8997C65.3101 52.0317 65.4935 52.2151 65.628 52.4523C65.7625 52.6895 65.8285 52.956 65.8285 53.2568C65.8285 53.5576 65.7625 53.8241 65.628 54.0613C65.4935 54.296 65.3101 54.4818 65.0778 54.6139C64.8455 54.7459 64.5863 54.8119 64.3002 54.8119C64.019 54.8119 63.7598 54.7459 63.5275 54.6139ZM64.8748 54.3205C65.046 54.2202 65.1805 54.0808 65.2759 53.8974C65.3737 53.714 65.4226 53.5013 65.4226 53.2592C65.4226 53.0147 65.3737 52.802 65.2759 52.6186C65.1781 52.4377 65.046 52.2958 64.8773 52.198C64.7086 52.0978 64.5154 52.0489 64.3002 52.0489C64.085 52.0489 63.8919 52.0978 63.7232 52.198C63.5544 52.2983 63.42 52.4377 63.3246 52.6186C63.2268 52.802 63.1779 53.0147 63.1779 53.2592C63.1779 53.5013 63.2268 53.714 63.3246 53.8974C63.4224 54.0808 63.5569 54.2226 63.7256 54.3205C63.8968 54.4207 64.0875 54.4696 64.3002 54.4696C64.513 54.4672 64.7061 54.4183 64.8748 54.3205Z" fill="#6B6D6B"/>
<path d="M66.4056 52.4572C66.5401 52.22 66.7235 52.0342 66.9533 51.8997C67.1856 51.7652 67.4423 51.6992 67.7235 51.6992C68.0561 51.6992 68.3446 51.7799 68.594 51.9388C68.841 52.0978 69.0219 52.3252 69.1344 52.621H68.6576C68.572 52.4376 68.4522 52.2958 68.2933 52.198C68.1343 52.0978 67.9436 52.0489 67.7235 52.0489C67.5108 52.0489 67.3201 52.0978 67.1514 52.198C66.9827 52.2983 66.8506 52.4376 66.7552 52.6186C66.6599 52.802 66.611 53.0147 66.611 53.2592C66.611 53.5013 66.6599 53.714 66.7552 53.895C66.8506 54.0759 66.9827 54.2177 67.1514 54.3156C67.3201 54.4134 67.5108 54.4647 67.7235 54.4647C67.9461 54.4647 68.1343 54.4158 68.2933 54.318C68.4522 54.2202 68.5745 54.0808 68.6576 53.8974H69.1344C69.0219 54.1884 68.841 54.4134 68.594 54.5723C68.3471 54.7312 68.0561 54.8095 67.7235 54.8095C67.4399 54.8095 67.1832 54.7435 66.9533 54.6114C66.721 54.4794 66.5401 54.296 66.4056 54.0588C66.2711 53.8216 66.2051 53.5575 66.2051 53.2592C66.2051 52.9609 66.2735 52.6944 66.4056 52.4572Z" fill="#6B6D6B"/>
<path d="M70.1246 51.7383V54.7826H69.7285V51.7383H70.1246Z" fill="#6B6D6B"/>
<path d="M72.6017 54.1053H71.274L71.0295 54.7826H70.6113L71.7117 51.7554H72.1714L73.2668 54.7826H72.8462L72.6017 54.1053ZM72.4868 53.7825L71.9366 52.2445L71.3865 53.7825H72.4868Z" fill="#6B6D6B"/>
<path d="M75.6189 51.7383V52.0611H74.79V54.7826H74.3914V52.0611H73.5576V51.7383H75.6189Z" fill="#6B6D6B"/>
<path d="M76.5067 52.0611V53.0783H77.6168V53.4059H76.5067V54.4549H77.7464V54.7826H76.1082V51.7334H77.7464V52.0611H76.5067Z" fill="#6B6D6B"/>
<path d="M78.7757 54.7068C78.6168 54.6359 78.4921 54.5356 78.4016 54.4109C78.3111 54.2838 78.2647 54.1371 78.2622 53.9708H78.6852C78.6999 54.1126 78.7586 54.2349 78.8613 54.3302C78.964 54.428 79.1156 54.4769 79.3136 54.4769C79.5019 54.4769 79.6511 54.4305 79.7611 54.3351C79.8712 54.2398 79.9249 54.1199 79.9249 53.9708C79.9249 53.8534 79.8932 53.7605 79.8296 53.6871C79.766 53.6138 79.6853 53.56 79.5899 53.5209C79.4946 53.4842 79.365 53.4426 79.2012 53.3986C79.0007 53.3473 78.8393 53.2935 78.7195 53.2421C78.5972 53.1908 78.4945 53.1076 78.4089 52.9952C78.3233 52.8827 78.2793 52.7311 78.2793 52.5428C78.2793 52.3765 78.3209 52.2298 78.4065 52.1027C78.4921 51.9755 78.6094 51.8753 78.7635 51.8068C78.9175 51.7359 79.0911 51.7016 79.2892 51.7016C79.5753 51.7016 79.8076 51.7726 79.991 51.9168C80.1719 52.0586 80.2746 52.2494 80.2991 52.4841H79.8614C79.8467 52.3667 79.7856 52.264 79.678 52.176C79.5704 52.088 79.4286 52.044 79.2501 52.044C79.0838 52.044 78.9493 52.088 78.8442 52.1736C78.739 52.2591 78.6877 52.379 78.6877 52.533C78.6877 52.643 78.7195 52.7335 78.7806 52.8044C78.8442 52.8753 78.92 52.9267 79.0129 52.9634C79.1058 53 79.233 53.0416 79.3992 53.0881C79.5997 53.1443 79.7611 53.1981 79.8834 53.2519C80.0056 53.3057 80.1108 53.3888 80.1988 53.5013C80.2868 53.6138 80.3308 53.7654 80.3308 53.9586C80.3308 54.1077 80.2917 54.2471 80.2135 54.3767C80.1352 54.5087 80.0179 54.6139 79.8638 54.6946C79.7098 54.7753 79.5264 54.8168 79.3185 54.8168C79.1131 54.8119 78.9346 54.7777 78.7757 54.7068Z" fill="#6B6D6B"/>
<path d="M62.1508 24.2885H61.9771L59.3852 16.9211C59.5515 16.9015 59.6835 16.7573 59.6835 16.5861C59.6835 16.4247 59.5711 16.2902 59.4195 16.256V16.1386C59.4953 16.1093 59.5711 16.0775 59.6444 16.0408C59.8009 15.9626 59.9941 15.811 59.8841 15.6422C59.7104 15.3782 59.4317 15.7058 59.2507 15.7718C58.9867 15.8696 58.7079 15.8623 58.4316 15.833C57.7836 15.7621 57.165 15.4417 56.5439 15.2608C55.3384 14.9111 54.2112 14.6397 52.9568 14.669C52.9128 14.669 52.5289 14.6959 52.2037 14.74C52.2012 14.7253 52.1988 14.7106 52.1939 14.6984C52.3039 14.6397 52.37 14.5615 52.37 14.4734C52.37 14.3879 52.3064 14.3121 52.2037 14.2534C52.2257 14.2216 52.2379 14.1849 52.2379 14.1482C52.2379 14.0529 52.1597 13.9673 52.0374 13.9159C52.1279 13.7594 52.1841 13.554 52.1841 13.3804C52.1841 13.1286 52.0619 13.0259 51.8882 12.9941C52.0765 12.9305 52.2135 12.752 52.2135 12.5417C52.2135 12.2776 52.0007 12.0649 51.7366 12.0649C51.4726 12.0649 51.2598 12.2776 51.2598 12.5417C51.2598 12.752 51.3968 12.9305 51.585 12.9941C51.4139 13.0259 51.2892 13.1286 51.2892 13.3804C51.2892 13.5516 51.3454 13.7594 51.4359 13.9159C51.3136 13.9697 51.2354 14.0529 51.2354 14.1482C51.2354 14.1849 51.2476 14.2216 51.2696 14.2534C51.1669 14.3121 51.1033 14.3879 51.1033 14.4734C51.1033 14.5688 51.184 14.6544 51.3087 14.7131C51.3063 14.7228 51.3038 14.7302 51.3038 14.74C50.9786 14.6959 50.5947 14.669 50.5507 14.669C49.2963 14.6397 48.1691 14.9111 46.9636 15.2608C46.3401 15.4417 45.7239 15.7621 45.0759 15.833C44.7996 15.8648 44.5184 15.8696 44.2568 15.7718C44.0758 15.7034 43.7971 15.3782 43.6235 15.6422C43.5134 15.811 43.7066 15.9626 43.8631 16.0408C43.9389 16.0775 44.0147 16.1117 44.0881 16.1386V16.256C43.9365 16.2902 43.824 16.4247 43.824 16.5861C43.824 16.7597 43.9536 16.9015 44.1223 16.9211L41.5304 24.2885H41.3568C41.2418 24.2885 41.1489 24.3814 41.1489 24.4963C41.1489 24.6063 41.2345 24.6944 41.3397 24.7017C41.4057 25.3741 42.6429 25.9072 44.1614 25.9072C45.6799 25.9072 46.9196 25.3717 46.9832 24.7017C47.0908 24.6944 47.1739 24.6039 47.1739 24.4963C47.1739 24.3814 47.081 24.2885 46.9661 24.2885H46.7924L44.203 16.9211C44.3693 16.9015 44.5013 16.7573 44.5013 16.5861C44.5013 16.4247 44.3888 16.2902 44.2372 16.256V16.19C46.0198 16.7304 47.9417 14.9943 51.3748 15.7938C51.3748 15.7938 51.7293 15.9943 52.1254 15.7938C55.5585 14.9943 57.4804 16.7304 59.263 16.19V16.256C59.1114 16.2902 58.9989 16.4247 58.9989 16.5861C58.9989 16.7597 59.1285 16.9015 59.2972 16.9211L56.7053 24.2885H56.5317C56.4168 24.2885 56.3238 24.3814 56.3238 24.4963C56.3238 24.6063 56.4094 24.6944 56.5146 24.7017C56.5806 25.3741 57.8179 25.9072 59.3363 25.9072C60.8548 25.9072 62.0921 25.3717 62.1581 24.7017C62.2657 24.6944 62.3488 24.6039 62.3488 24.4963C62.3586 24.3814 62.2657 24.2885 62.1508 24.2885ZM44.0905 24.2885H41.6942L44.0905 17.4713V24.2885ZM44.2421 17.4737L46.6384 24.2909H44.2421V17.4737ZM44.3546 16.5861C44.3546 16.6888 44.269 16.7744 44.1663 16.7744C44.0636 16.7744 43.978 16.6888 43.978 16.5861C43.978 16.4834 44.0636 16.3978 44.1663 16.3978C44.269 16.3978 44.3546 16.4809 44.3546 16.5861ZM59.2679 24.2885H56.8716L59.2679 17.4713V24.2885ZM59.1554 16.5861C59.1554 16.4834 59.2385 16.3978 59.3437 16.3978C59.4464 16.3978 59.5319 16.4834 59.5319 16.5861C59.5319 16.6888 59.4464 16.7744 59.3437 16.7744C59.241 16.7744 59.1554 16.6888 59.1554 16.5861ZM59.4195 24.2885V17.4737L61.8158 24.2909H59.4195V24.2885Z" fill="url(#paint8_linear_203_6)"/>
<path fill-rule="evenodd" clip-rule="evenodd" d="M52.3455 35.177C52.7099 33.1377 53.7173 31.3453 55.1159 29.707C54.3286 28.1959 53.7613 26.6187 53.5657 24.9316H53.6659C53.8127 24.9316 53.9325 24.8117 53.9325 24.665V24.2567C53.9325 24.11 53.8127 23.9902 53.6659 23.9902H53.5461V23.6258H53.9789C54.1256 23.6258 54.2455 23.506 54.2455 23.3593V22.9509C54.2455 22.8042 54.1256 22.6844 53.9789 22.6844H53.5461V16.5519C53.1769 16.5739 52.8101 16.6154 52.436 16.6986C52.2208 16.7866 51.9959 16.8331 51.7611 16.8331C51.4701 16.8331 51.233 16.7621 51.0789 16.6986C50.6168 16.5959 50.1669 16.5494 49.7121 16.5372V22.6869H49.2793C49.1325 22.6869 49.0152 22.8067 49.0152 22.9534V23.3617C49.0152 23.5085 49.135 23.6283 49.2793 23.6283H49.7121V23.9926H49.5898C49.4431 23.9926 49.3257 24.1124 49.3257 24.2591V24.6675C49.3257 24.8142 49.4455 24.934 49.5898 24.934H49.6949C49.4944 26.7214 48.9589 28.2839 48.2083 29.7021C49.7658 31.3967 50.607 33.2404 50.9298 35.1916C50.8197 35.2454 50.7415 35.3579 50.7415 35.4899C50.7415 35.6733 50.8906 35.8225 51.074 35.8225C51.2525 35.8225 51.3919 35.6831 51.4041 35.5071H51.409V28.9075C51.1987 28.817 51.0545 28.6091 51.0545 28.3646C51.0545 28.0394 51.3185 27.7753 51.6438 27.7753C51.969 27.7753 52.2331 28.0394 52.2331 28.3646C52.2331 28.6018 52.0937 28.8048 51.8932 28.9001V35.485V35.5022H51.8956C51.9054 35.6758 52.0472 35.8176 52.2257 35.8176C52.4091 35.8176 52.5583 35.6684 52.5583 35.485C52.5583 35.3457 52.4702 35.2259 52.3455 35.177Z" fill="url(#paint9_linear_203_6)"/>
<path d="M66.1831 28.3084C65.2759 28.9417 65.1292 29.6312 65.1047 29.822C64.9605 29.9075 64.826 29.9809 64.7037 30.0494C64.8969 29.729 65.0778 29.4038 65.2441 29.0688C65.5229 28.5016 65.7625 27.9147 65.9655 27.3181C65.9875 27.2521 66.0095 27.186 66.0315 27.12C66.188 26.6285 66.4178 26.1615 66.721 25.7434C66.7406 25.7165 66.7626 25.6871 66.7822 25.6602C69.3252 24.2665 68.1588 21.43 68.1588 21.43C68.1979 22.056 67.5915 22.5353 66.9704 23.6772C66.4423 24.6504 66.6183 25.3326 66.6843 25.5135C66.5547 25.714 66.4325 25.8901 66.3273 26.0368C66.3689 25.8534 66.408 25.67 66.4423 25.4866C66.5621 24.868 66.6306 24.2396 66.6599 23.6112L66.6697 23.3764C66.6746 23.2982 66.677 23.2199 66.6746 23.1417V22.6697C66.6721 22.5133 66.6599 22.3568 66.655 22.1978C66.6501 22.1196 66.6501 22.0413 66.6428 21.9631L66.6208 21.7283C66.6061 21.5719 66.6159 21.4154 66.6452 21.2638L66.8262 20.3664C68.6796 18.1363 66.5523 15.9259 66.5523 15.9259C66.8188 16.4956 66.43 17.1607 66.2736 18.4542C66.1391 19.5521 66.5548 20.1219 66.6819 20.2686C66.6306 20.5278 66.5743 20.7576 66.5279 20.941L66.5083 20.7943C66.4912 20.6378 66.4545 20.4862 66.4252 20.3321L66.3811 20.1023C66.3665 20.024 66.3518 19.9482 66.3322 19.8724C66.2564 19.5692 66.188 19.2611 66.0902 18.9653L66.0217 18.7403L65.9875 18.6278L65.9483 18.5178L65.7894 18.0752C65.6892 17.8185 65.584 17.5642 65.474 17.3099C65.2735 16.8575 65.1488 16.3734 65.1194 15.8794C65.1121 15.7645 65.1047 15.652 65.0925 15.542C66.0902 12.8205 63.3442 11.4512 63.3442 11.4512C63.7868 11.8986 63.645 12.6567 63.9286 13.9257C64.1707 15.0065 64.7526 15.4026 64.9214 15.498C64.9752 15.8672 65.0045 16.1777 65.0192 16.3929C65.0143 16.3856 65.0118 16.3782 65.0069 16.3685L64.8969 16.1631C64.8602 16.0946 64.8162 16.0286 64.7771 15.9626L64.535 15.5616L64.2734 15.1728C64.2294 15.1092 64.1878 15.0432 64.1413 14.9796L64.002 14.7913C63.8577 14.5908 63.7061 14.3976 63.5472 14.2094C63.3271 13.9306 63.0263 13.5296 62.7647 13.2386C62.6424 13.1017 62.5348 12.9525 62.4566 12.7862C61.3147 10.3777 58.5223 11.055 58.5223 11.055C59.1482 11.0942 59.5492 11.7544 60.6056 12.5148C61.4418 13.1139 62.102 13.0797 62.3441 13.0381C62.3735 13.0479 62.4077 13.0577 62.437 13.0674L62.7574 13.4024C63.1755 13.8621 63.5741 14.3365 63.9237 14.85L64.0582 15.0383C64.1022 15.1019 64.1413 15.1679 64.1829 15.2339L64.4323 15.6251L64.5375 15.8085C64.2587 15.5738 63.98 15.3684 63.7036 15.1899C62.1974 12.7129 59.4148 14.004 59.4148 14.004C60.0383 13.9379 60.5444 14.5199 61.7133 15.0896C62.7084 15.5738 63.3809 15.3659 63.5594 15.295C63.9579 15.5298 64.2905 15.7572 64.4812 15.8941C64.601 15.9821 64.7037 16.0922 64.7722 16.2266V16.2291L64.8773 16.4369C65.1659 16.9847 65.3982 17.5593 65.6085 18.1388L65.7527 18.5789L65.7894 18.689L65.8212 18.8014L65.8823 19.024C65.9703 19.3198 66.0315 19.623 66.0975 19.9238C66.1146 19.9996 66.1293 20.0754 66.1415 20.1512V20.1561C65.9532 19.8675 65.7576 19.6035 65.5547 19.3638C64.8407 16.5543 61.8013 16.9749 61.8013 16.9749C62.4175 17.0947 62.7305 17.7989 63.6816 18.6865C64.491 19.4421 65.1952 19.4396 65.3884 19.4225C65.606 19.6597 65.7845 19.8724 65.9166 20.0363C66.0999 20.2637 66.2198 20.5375 66.2467 20.8285C66.2467 20.831 66.2467 20.831 66.2467 20.8334L66.298 21.2931L66.3102 21.408L66.3176 21.523L66.3322 21.7528L66.3469 21.9826C66.3518 22.0584 66.3518 22.1367 66.3542 22.2125C66.3567 22.3665 66.3616 22.5206 66.3616 22.6722L66.3494 23.1319C66.3494 23.2077 66.3445 23.2859 66.3371 23.3617L66.32 23.5916C66.2956 23.9241 66.2589 24.2542 66.2124 24.5843C66.1464 24.308 66.0706 24.044 65.985 23.797C66.32 20.9165 63.332 20.227 63.332 20.227C63.865 20.5595 63.9066 21.3298 64.4788 22.4961C64.9654 23.4913 65.6256 23.7407 65.809 23.7921C65.8799 23.9706 65.941 24.1369 65.9924 24.2836C66.1195 24.643 66.1464 25.0318 66.0633 25.4059C66.0633 25.4084 66.0633 25.4108 66.0608 25.4108C65.9288 26.0099 65.7674 26.6016 65.5547 27.1738C65.3444 27.7484 65.095 28.3084 64.8138 28.8488C64.7306 29.0053 64.6426 29.1593 64.5521 29.3134C64.6035 28.9881 64.6328 28.6752 64.645 28.3768C66.0119 25.8216 63.4836 24.0806 63.4836 24.0806C63.8577 24.5843 63.6132 25.3155 63.7183 26.6114C63.8063 27.7142 64.3296 28.1886 64.4812 28.3059C64.4812 28.3475 64.4812 28.3891 64.4812 28.4306C64.4763 29.1324 64.2612 29.8195 63.8552 30.3917C63.8528 30.3941 63.8504 30.3966 63.8504 30.4015C63.4982 30.9003 63.1021 31.3649 62.6864 31.8099C62.5789 31.9175 62.4786 32.0324 62.3686 32.1376L62.0385 32.453C62.0336 32.4481 62.0336 32.4506 62.0287 32.4457C62.1289 32.2672 62.2194 32.0911 62.3001 31.9151C64.5521 30.0885 62.8943 27.5064 62.8943 27.5064C63.0434 28.1152 62.5348 28.6947 62.1289 29.932C61.7842 30.9834 62.08 31.6216 62.1754 31.7903C62.1094 31.9493 62.0458 32.096 61.9847 32.2256C61.838 32.5435 61.6228 32.8271 61.3465 33.0423C61.344 33.0423 61.344 33.0447 61.3416 33.0447C60.8672 33.4237 60.3708 33.7783 59.8476 34.0839C59.5444 34.2649 59.2338 34.4312 58.9159 34.5901C59.048 34.4556 59.1702 34.3187 59.2827 34.1818C61.4394 33.1866 60.6447 30.8 60.6447 30.8C60.6398 31.3135 60.119 31.6705 59.5468 32.5704C59.0602 33.3357 59.1654 33.903 59.2094 34.0546C59.1385 34.1475 59.0724 34.2331 59.0089 34.3114C58.8035 34.5705 58.5369 34.7759 58.2337 34.9055C58.2313 34.9055 58.2313 34.908 58.2288 34.908C57.6713 35.1427 57.0992 35.3383 56.5172 35.4997L56.5099 35.5022H56.5074C56.3509 35.5462 56.2336 35.688 56.2287 35.8518C56.2213 36.133 56.4805 36.3115 56.725 36.2382C57.3363 36.0523 57.9354 35.8274 58.5174 35.5657C59.0993 35.3017 59.6593 34.9936 60.1972 34.6561C60.5224 34.4532 60.8354 34.2331 61.1411 34.0008C61.5543 33.6854 62.0507 33.4971 62.5691 33.4531C65.2759 34.4923 66.6868 31.7659 66.6868 31.7659C66.2344 32.2011 65.4764 32.0495 64.2025 32.3136C63.1192 32.5386 62.7133 33.1156 62.6155 33.2819C62.3539 33.3162 62.124 33.3382 61.9358 33.3504C62.1069 33.1988 62.2757 33.0423 62.4419 32.8858L62.7769 32.5484C62.8894 32.4383 62.9921 32.3161 63.0997 32.1987C63.5227 31.7243 63.9213 31.2304 64.2734 30.7022C64.2807 30.6925 64.2881 30.6802 64.2954 30.6704C64.469 30.4113 64.7037 30.2034 64.98 30.064C65.0241 30.042 65.0705 30.0176 65.1145 29.9931C68.0121 29.8855 68.237 26.8241 68.237 26.8241C68.0048 27.4061 67.2516 27.565 66.1831 28.3084Z" fill="url(#paint10_linear_203_6)"/>
<path d="M37.4322 28.3084C38.3393 28.9417 38.486 29.6312 38.5105 29.822C38.6548 29.9075 38.7892 29.9809 38.9115 30.0494C38.7183 29.729 38.5374 29.4038 38.3711 29.0688C38.0924 28.5016 37.8527 27.9147 37.6498 27.3181C37.6278 27.2521 37.6058 27.186 37.5838 27.12C37.4248 26.6285 37.1974 26.1615 36.8942 25.7434C36.8746 25.7165 36.8526 25.6871 36.8331 25.6602C34.2901 24.2665 35.4564 21.43 35.4564 21.43C35.4173 22.056 36.0237 22.5353 36.6448 23.6772C37.173 24.6504 36.9969 25.3326 36.9309 25.5135C37.0605 25.714 37.1827 25.8901 37.2879 26.0368C37.2463 25.8534 37.2072 25.67 37.173 25.4866C37.0531 24.868 36.9847 24.2396 36.9553 23.6112L36.9456 23.3764C36.9407 23.2982 36.9382 23.2199 36.9407 23.1417V22.6697C36.9431 22.5133 36.9553 22.3568 36.9602 22.1978C36.9651 22.1196 36.9651 22.0413 36.9725 21.9631L36.9945 21.7283C37.0091 21.5719 36.9994 21.4154 36.97 21.2638L36.7891 20.3664C34.9356 18.1363 37.0629 15.9259 37.0629 15.9259C36.7964 16.4956 37.1852 17.1607 37.3417 18.4542C37.4762 19.5521 37.0605 20.1219 36.9333 20.2686C36.9847 20.5278 37.0409 20.7576 37.0874 20.941L37.1069 20.7943C37.1241 20.6378 37.1607 20.4862 37.1901 20.3321L37.2341 20.1023C37.2488 20.024 37.2634 19.9482 37.283 19.8724C37.3588 19.5692 37.4273 19.2611 37.5251 18.9653L37.5935 18.7403L37.6278 18.6278L37.6669 18.5178L37.8258 18.0752C37.9261 17.8185 38.0312 17.5642 38.1413 17.3099C38.3418 16.8575 38.4665 16.3734 38.4958 15.8794C38.5032 15.7645 38.5105 15.652 38.5227 15.542C37.5251 12.8205 40.271 11.4512 40.271 11.4512C39.8285 11.8986 39.9703 12.6567 39.6866 13.9257C39.4446 15.0065 38.8626 15.4026 38.6939 15.498C38.6401 15.8672 38.6132 16.1777 38.5961 16.3929C38.601 16.3856 38.6034 16.3782 38.6083 16.3685L38.7183 16.1631C38.755 16.0946 38.799 16.0286 38.8381 15.9626L39.0802 15.5616L39.3419 15.1728C39.3859 15.1092 39.4274 15.0432 39.4739 14.9796L39.6133 14.7913C39.7575 14.5908 39.9091 14.3976 40.0681 14.2094C40.2881 13.9306 40.5889 13.5296 40.8505 13.2386C40.9728 13.1017 41.0804 12.9525 41.1586 12.7862C42.3006 10.3777 45.093 11.055 45.093 11.055C44.467 11.0942 44.066 11.7544 43.0097 12.5148C42.1734 13.1139 41.5132 13.0797 41.2711 13.0381C41.2418 13.0479 41.2075 13.0577 41.1782 13.0674L40.8579 13.4024C40.4398 13.8621 40.0412 14.3365 39.6915 14.85L39.557 15.0383C39.513 15.1019 39.4739 15.1679 39.4323 15.2339L39.1829 15.6251L39.0778 15.8085C39.3565 15.5738 39.6353 15.3684 39.9116 15.1899C41.4178 12.7129 44.2005 14.004 44.2005 14.004C43.5769 13.9379 43.0708 14.5199 41.902 15.0896C40.9068 15.5738 40.2344 15.3659 40.0559 15.295C39.6573 15.5298 39.3247 15.7572 39.134 15.8941C39.0142 15.9821 38.9115 16.0922 38.843 16.2266V16.2291L38.7379 16.4369C38.4494 16.9847 38.2171 17.5593 38.0068 18.1388L37.8625 18.5789L37.8258 18.689L37.7965 18.8014L37.7354 19.024C37.6473 19.3198 37.5862 19.623 37.5202 19.9238C37.5031 19.9996 37.4884 20.0754 37.4762 20.1512V20.1561C37.6644 19.8675 37.8601 19.6035 38.063 19.3638C38.777 16.5543 41.8164 16.9749 41.8164 16.9749C41.2002 17.0947 40.8872 17.7989 39.936 18.6865C39.1267 19.4421 38.4225 19.4396 38.2293 19.4225C38.0117 19.6597 37.8332 19.8724 37.7011 20.0363C37.5177 20.2637 37.3979 20.5375 37.371 20.8285C37.371 20.831 37.371 20.831 37.371 20.8334L37.3197 21.2931L37.3075 21.408L37.3001 21.523L37.2854 21.7528L37.2708 21.9826C37.2659 22.0584 37.2659 22.1367 37.2634 22.2125C37.2561 22.3641 37.2512 22.5157 37.2512 22.6697L37.2634 23.1294C37.2634 23.2052 37.2683 23.2835 37.2757 23.3593L37.2928 23.5891C37.3172 23.9217 37.3539 24.2518 37.4004 24.5819C37.4664 24.3056 37.5422 24.0415 37.6278 23.7945C37.2928 20.9141 40.2808 20.2245 40.2808 20.2245C39.7478 20.5571 39.7062 21.3273 39.134 22.4937C38.6474 23.4889 37.9872 23.7383 37.8038 23.7897C37.7329 23.9682 37.6718 24.1344 37.6204 24.2811C37.4933 24.6406 37.4664 25.0294 37.5495 25.4035C37.5495 25.4059 37.5495 25.4084 37.552 25.4084C37.684 26.0074 37.8454 26.5992 38.0581 27.1714C38.2684 27.746 38.5178 28.3059 38.799 28.8463C38.8822 29.0028 38.9702 29.1569 39.0607 29.3109C39.0093 28.9857 38.98 28.6727 38.9677 28.3744C37.6009 25.8192 40.1292 24.0782 40.1292 24.0782C39.7551 24.5819 39.9996 25.313 39.8945 26.609C39.8064 27.7118 39.2832 28.1861 39.1316 28.3035C39.1316 28.3451 39.1316 28.3866 39.1316 28.4282C39.1365 29.13 39.3516 29.8171 39.7575 30.3892C39.76 30.3917 39.7624 30.3941 39.7624 30.399C40.1145 30.8979 40.5107 31.3624 40.9263 31.8075C41.0339 31.9151 41.1342 32.03 41.2442 32.1351L41.5743 32.4506C41.5792 32.4457 41.5768 32.4481 41.5841 32.4432C41.4839 32.2647 41.3934 32.0887 41.3127 31.9126C39.0607 30.086 40.7185 27.5039 40.7185 27.5039C40.5693 28.1128 41.0779 28.6923 41.4839 29.9295C41.8286 30.981 41.5328 31.6192 41.4374 31.7879C41.5034 31.9468 41.567 32.0936 41.6281 32.2231C41.7748 32.541 41.99 32.8247 42.2663 33.0398C42.2688 33.0398 42.2688 33.0423 42.2712 33.0423C42.7456 33.4213 43.242 33.7759 43.7652 34.0815C44.0684 34.2624 44.379 34.4287 44.6968 34.5877C44.5648 34.4532 44.4425 34.3162 44.3301 34.1793C42.1734 33.1841 42.9681 30.7976 42.9681 30.7976C42.973 31.3111 43.4938 31.6681 44.066 32.5679C44.5526 33.3333 44.4474 33.9006 44.4034 34.0522C44.4743 34.1451 44.5404 34.2307 44.6039 34.3089C44.8093 34.5681 45.0759 34.7735 45.3791 34.9031C45.3815 34.9031 45.3815 34.9055 45.3839 34.9055C45.9415 35.1403 46.5136 35.3359 47.0956 35.4973L47.1029 35.4997H47.1054C47.2619 35.5437 47.3792 35.6856 47.3841 35.8494C47.3915 36.1306 47.1323 36.3091 46.8877 36.2357C46.2764 36.0499 45.6774 35.8249 45.0954 35.5633C44.5135 35.2992 43.9535 34.9911 43.4156 34.6537C43.0903 34.4507 42.7774 34.2307 42.4717 33.9984C42.0585 33.6829 41.5621 33.4947 41.0437 33.4506C38.3369 34.4898 36.926 31.7634 36.926 31.7634C37.3784 32.1987 38.1364 32.0471 39.4103 32.3112C40.4935 32.5361 40.8995 33.1132 40.9973 33.2795C41.2589 33.3137 41.4887 33.3357 41.677 33.3479C41.5059 33.1963 41.3371 33.0398 41.1709 32.8834L40.8359 32.5459C40.7234 32.4359 40.6207 32.3136 40.5131 32.1963C40.0901 31.7219 39.6915 31.228 39.3394 30.6998C39.3321 30.69 39.3247 30.6778 39.3174 30.668C39.1438 30.4088 38.9091 30.201 38.6327 30.0616C38.5863 30.0396 38.5423 30.0151 38.4983 29.9907C35.5909 29.8904 35.3635 26.829 35.3635 26.829C35.6105 27.4061 36.366 27.565 37.4322 28.3084Z" fill="url(#paint11_linear_203_6)"/>
<defs>
<linearGradient id="paint0_linear_203_6" x1="18.4985" y1="27.4037" x2="18.4985" y2="52.4371" gradientUnits="userSpaceOnUse">
<stop stop-color="#FAE894"/>
<stop offset="0.8939" stop-color="#977A1C"/>
</linearGradient>
<linearGradient id="paint1_linear_203_6" x1="27.6663" y1="27.4037" x2="27.6663" y2="52.4371" gradientUnits="userSpaceOnUse">
<stop stop-color="#FAE894"/>
<stop offset="0.8939" stop-color="#977A1C"/>
</linearGradient>
<linearGradient id="paint2_linear_203_6" x1="36.4214" y1="27.4037" x2="36.4214" y2="52.4371" gradientUnits="userSpaceOnUse">
<stop stop-color="#FAE894"/>
<stop offset="0.8939" stop-color="#977A1C"/>
</linearGradient>
<linearGradient id="paint3_linear_203_6" x1="47.9123" y1="27.4037" x2="47.9123" y2="52.4371" gradientUnits="userSpaceOnUse">
<stop stop-color="#FAE894"/>
<stop offset="0.8939" stop-color="#977A1C"/>
</linearGradient>
<linearGradient id="paint4_linear_203_6" x1="56.3795" y1="27.4037" x2="56.3795" y2="52.4371" gradientUnits="userSpaceOnUse">
<stop stop-color="#FAE894"/>
<stop offset="0.8939" stop-color="#977A1C"/>
</linearGradient>
<linearGradient id="paint5_linear_203_6" x1="65.7881" y1="27.4037" x2="65.7881" y2="52.4371" gradientUnits="userSpaceOnUse">
<stop stop-color="#FAE894"/>
<stop offset="0.8939" stop-color="#977A1C"/>
</linearGradient>
<linearGradient id="paint6_linear_203_6" x1="75.6368" y1="27.4037" x2="75.6368" y2="52.4371" gradientUnits="userSpaceOnUse">
<stop stop-color="#FAE894"/>
<stop offset="0.8939" stop-color="#977A1C"/>
</linearGradient>
<linearGradient id="paint7_linear_203_6" x1="84.8961" y1="27.4037" x2="84.8961" y2="52.4371" gradientUnits="userSpaceOnUse">
<stop stop-color="#FAE894"/>
<stop offset="0.8939" stop-color="#977A1C"/>
</linearGradient>
<linearGradient id="paint8_linear_203_6" x1="31.5699" y1="2.66345" x2="66.5857" y2="35.06" gradientUnits="userSpaceOnUse">
<stop stop-color="#FAE894"/>
<stop offset="0.6341" stop-color="#977A1C"/>
<stop offset="1" stop-color="#FAE894"/>
</linearGradient>
<linearGradient id="paint9_linear_203_6" x1="29.3788" y1="5.03176" x2="64.3946" y2="37.4283" gradientUnits="userSpaceOnUse">
<stop stop-color="#FAE894"/>
<stop offset="0.6341" stop-color="#977A1C"/>
<stop offset="1" stop-color="#FAE894"/>
</linearGradient>
<linearGradient id="paint10_linear_203_6" x1="34.1231" y1="-0.0959752" x2="69.1389" y2="32.3006" gradientUnits="userSpaceOnUse">
<stop stop-color="#FAE894"/>
<stop offset="0.6341" stop-color="#977A1C"/>
<stop offset="1" stop-color="#FAE894"/>
</linearGradient>
<linearGradient id="paint11_linear_203_6" x1="26.5054" y1="8.13736" x2="61.5212" y2="40.5339" gradientUnits="userSpaceOnUse">
<stop stop-color="#FAE894"/>
<stop offset="0.6341" stop-color="#977A1C"/>
<stop offset="1" stop-color="#FAE894"/>
</linearGradient>
</defs>
</svg>
