<svg width="92" height="67" viewBox="0 0 92 67" fill="none" xmlns="http://www.w3.org/2000/svg">
<rect width="92" height="67" fill="white"/>
<path d="M11.6139 44.8355V47.5105C11.6139 48.0876 11.6775 48.4471 11.8046 48.5864C11.9758 48.7845 12.235 48.8847 12.5847 48.8847H12.9368V49.1342H9V48.8847H9.34477C9.73356 48.8847 10.0099 48.7576 10.1786 48.5057C10.2691 48.3664 10.3131 48.0338 10.3131 47.5105V41.576C10.3131 40.999 10.2519 40.6395 10.1297 40.5001C9.95363 40.3021 9.69199 40.2018 9.34477 40.2018H9V39.9524H12.367C13.1886 39.9524 13.8366 40.038 14.311 40.2067C14.7853 40.3754 15.1839 40.6615 15.5091 41.0625C15.8343 41.4636 15.9982 41.9404 15.9982 42.4905C15.9982 43.2412 15.7512 43.8501 15.2573 44.3196C14.7633 44.789 14.064 45.0238 13.1617 45.0238C12.9392 45.0238 12.702 45.0091 12.4428 44.9773C12.1837 44.9455 11.9073 44.8966 11.6139 44.8355ZM11.6139 44.4491C11.8535 44.4956 12.0663 44.5274 12.2497 44.5518C12.4355 44.5739 12.592 44.5861 12.724 44.5861C13.1935 44.5861 13.5994 44.4051 13.9393 44.0408C14.2792 43.6789 14.4504 43.207 14.4504 42.6275C14.4504 42.2289 14.3697 41.8621 14.2058 41.5198C14.042 41.1799 13.8122 40.9232 13.5138 40.7544C13.2155 40.5857 12.8781 40.5001 12.4966 40.5001C12.2668 40.5001 11.9709 40.5442 11.609 40.6297V44.4491H11.6139Z" fill="url(#paint0_linear_29_12)"/>
<path d="M20.6294 44.0408L24.016 47.4078C24.571 47.9629 25.0454 48.3419 25.4391 48.5424C25.8328 48.7429 26.224 48.8578 26.6177 48.8847V49.1342H22.2481V48.8847C22.5097 48.8847 22.698 48.8407 22.8129 48.7527C22.9279 48.6647 22.9865 48.5669 22.9865 48.4593C22.9865 48.3517 22.9645 48.2539 22.923 48.1683C22.8814 48.0827 22.7396 47.9213 22.4999 47.6866L19.331 44.5518V47.5105C19.331 47.9751 19.3603 48.2832 19.419 48.4324C19.4655 48.5449 19.5584 48.6427 19.7026 48.7234C19.8958 48.8309 20.1012 48.8872 20.3188 48.8872H20.6318V49.1366H16.7146V48.8872H17.0398C17.4188 48.8872 17.6951 48.7771 17.8663 48.5546C17.9739 48.4104 18.0277 48.0632 18.0277 47.5105V41.576C18.0277 41.1114 17.9983 40.8009 17.9396 40.6493C17.8956 40.5417 17.8027 40.4463 17.6609 40.3657C17.4628 40.2581 17.255 40.2043 17.0374 40.2043H16.7122V39.9549H20.6269V40.2043H20.3139C20.1012 40.2043 19.8958 40.2556 19.6977 40.3608C19.5584 40.4341 19.4606 40.5417 19.4068 40.686C19.353 40.8302 19.3261 41.1286 19.3261 41.5809V44.3929C19.4165 44.3073 19.7246 44.0212 20.2528 43.5322C21.5952 42.3047 22.4046 41.4831 22.6833 41.0723C22.8056 40.8914 22.8667 40.7349 22.8667 40.598C22.8667 40.4953 22.8203 40.4023 22.7249 40.3241C22.6295 40.2458 22.4706 40.2067 22.2432 40.2067H22.0329V39.9573H25.4073V40.2067C25.2092 40.2116 25.0283 40.2385 24.8645 40.2874C24.7006 40.3363 24.5026 40.4341 24.2678 40.5759C24.0331 40.7178 23.7446 40.9476 23.3998 41.263C23.2995 41.3535 22.8423 41.8157 22.0256 42.6519L20.6294 44.0408Z" fill="url(#paint1_linear_29_12)"/>
<path d="M32.8628 39.7397V42.916H32.6134C32.5327 42.3071 32.386 41.8206 32.1757 41.4611C31.9654 41.0992 31.6671 40.8131 31.2783 40.6004C30.8895 40.3877 30.4885 40.2825 30.0728 40.2825C29.6033 40.2825 29.2145 40.4268 28.9064 40.7129C28.5983 40.999 28.4467 41.3266 28.4467 41.691C28.4467 41.9697 28.5445 42.2265 28.7377 42.4563C29.0165 42.7937 29.684 43.2461 30.7354 43.8109C31.5937 44.2706 32.1781 44.6252 32.4935 44.8722C32.8065 45.1191 33.0486 45.4077 33.2173 45.7427C33.386 46.0776 33.4716 46.4273 33.4716 46.7916C33.4716 47.4861 33.2027 48.0876 32.6623 48.5913C32.1219 49.095 31.4274 49.3469 30.579 49.3469C30.3124 49.3469 30.0606 49.3273 29.8258 49.2857C29.6865 49.2637 29.3955 49.1806 28.9553 49.0388C28.5152 48.897 28.2365 48.8261 28.1191 48.8261C28.0066 48.8261 27.9161 48.8603 27.8526 48.9287C27.7865 48.9972 27.7376 49.1366 27.7058 49.3493H27.4564V46.1999H27.7058C27.8232 46.8601 27.9822 47.3516 28.1802 47.6793C28.3783 48.0069 28.6839 48.2783 29.0923 48.496C29.5006 48.7136 29.9481 48.8212 30.4371 48.8212C31.002 48.8212 31.447 48.672 31.7747 48.3737C32.1023 48.0754 32.2661 47.7233 32.2661 47.3174C32.2661 47.0924 32.205 46.8626 32.0803 46.6327C31.9556 46.4029 31.7624 46.1877 31.5008 45.9896C31.3247 45.8527 30.843 45.5666 30.0581 45.1265C29.2732 44.6863 28.7133 44.3342 28.3807 44.0726C28.0482 43.8109 27.7963 43.5224 27.6252 43.2045C27.454 42.8891 27.3684 42.5419 27.3684 42.1604C27.3684 41.5002 27.6203 40.9329 28.1264 40.4561C28.6326 39.9793 29.2757 39.7421 30.0557 39.7421C30.5423 39.7421 31.0607 39.8619 31.6059 40.1016C31.8578 40.2141 32.0363 40.2703 32.1414 40.2703C32.2588 40.2703 32.3542 40.2361 32.43 40.1651C32.5033 40.0942 32.5645 39.9549 32.6085 39.7421H32.8628V39.7397Z" fill="url(#paint2_linear_29_12)"/>
<path d="M45.6389 46.596L45.8614 46.6425L45.0765 49.1342H37.9634V48.8847H38.3082C38.6969 48.8847 38.9732 48.7576 39.142 48.5057C39.2373 48.3615 39.2838 48.0265 39.2838 47.5032V41.576C39.2838 41.0014 39.2202 40.6444 39.0931 40.5001C38.917 40.3021 38.6554 40.2018 38.3082 40.2018H37.9634V39.9524H42.1227V40.2018C41.6336 40.1969 41.2937 40.241 41.0957 40.3363C40.9001 40.4317 40.7656 40.5515 40.6922 40.6958C40.6189 40.84 40.5846 41.1848 40.5846 41.7325V47.5032C40.5846 47.8773 40.6213 48.1365 40.6922 48.2759C40.746 48.3712 40.8292 48.4422 40.9416 48.4862C41.0541 48.5326 41.4062 48.5546 41.998 48.5546H42.6679C43.3722 48.5546 43.8661 48.5033 44.1522 48.3981C44.4383 48.293 44.6975 48.1096 44.9322 47.8455C45.1694 47.5814 45.4017 47.1658 45.6389 46.596Z" fill="url(#paint3_linear_29_12)"/>
<path d="M49.0597 40.4512V44.0824H51.0795C51.6027 44.0824 51.9524 44.0041 52.1284 43.8452C52.3632 43.6373 52.4952 43.2706 52.5221 42.7473H52.7715V45.9432H52.5221C52.4586 45.4957 52.395 45.2096 52.3314 45.0825C52.2507 44.9235 52.1162 44.8013 51.9328 44.7108C51.747 44.6203 51.4634 44.5763 51.0795 44.5763H49.0597V47.6035C49.0597 48.0094 49.0768 48.2563 49.1135 48.3443C49.1502 48.4324 49.2138 48.5033 49.3042 48.5546C49.3947 48.606 49.5659 48.6329 49.8177 48.6329H51.3753C51.8937 48.6329 52.2727 48.5962 52.5075 48.5253C52.7422 48.4519 52.9696 48.3101 53.1848 48.0998C53.4635 47.8211 53.7521 47.3981 54.0455 46.8332H54.3169L53.5247 49.1366H46.4458V48.8872H46.771C46.9886 48.8872 47.194 48.8358 47.3872 48.7307C47.5315 48.6573 47.6293 48.5497 47.6806 48.4055C47.732 48.2612 47.7589 47.9653 47.7589 47.5179V41.5516C47.7589 40.9696 47.7002 40.6102 47.5828 40.4757C47.4214 40.2947 47.15 40.2043 46.771 40.2043H46.4458V39.9549H53.5247L53.6274 41.9673H53.3633C53.2679 41.4831 53.1628 41.153 53.0478 40.9721C52.9329 40.7911 52.7618 40.6542 52.5368 40.5588C52.3559 40.4904 52.038 40.4561 51.5807 40.4561H49.0597V40.4512Z" fill="url(#paint4_linear_29_12)"/>
<path d="M63.1467 39.7397L63.3839 42.6397H63.1467C62.9071 41.9159 62.599 41.3731 62.22 41.0063C61.6747 40.4781 60.9705 40.2141 60.1147 40.2141C58.9459 40.2141 58.0558 40.6762 57.447 41.6029C56.9359 42.3829 56.6816 43.3146 56.6816 44.3929C56.6816 45.2683 56.8503 46.0679 57.1902 46.7916C57.5301 47.5154 57.9727 48.0436 58.5204 48.381C59.0681 48.716 59.633 48.8847 60.21 48.8847C60.5475 48.8847 60.8751 48.8407 61.193 48.7551C61.5084 48.6696 61.8141 48.5424 62.1075 48.3761V45.7206C62.1075 45.2609 62.0733 44.9577 62.0024 44.8159C61.9315 44.6741 61.8239 44.5665 61.6772 44.4907C61.5305 44.4174 61.2713 44.3782 60.902 44.3782V44.1215H64.4574V44.3782H64.2886C63.9365 44.3782 63.6945 44.4956 63.5649 44.7303C63.4744 44.8966 63.4279 45.2267 63.4279 45.7206V48.5326C62.9095 48.8114 62.3961 49.0168 61.8899 49.1488C61.3837 49.2784 60.8213 49.3444 60.2027 49.3444C58.4275 49.3444 57.0802 48.7747 56.1583 47.6377C55.4664 46.7843 55.1216 45.7989 55.1216 44.6839C55.1216 43.8745 55.3148 43.1018 55.7035 42.3609C56.1632 41.4807 56.7965 40.8033 57.601 40.329C58.2734 39.9353 59.0681 39.7397 59.9851 39.7397C60.3201 39.7397 60.6233 39.7666 60.8971 39.8204C61.171 39.8742 61.5574 39.994 62.0586 40.1798C62.3105 40.2752 62.4816 40.3216 62.5672 40.3216C62.6528 40.3216 62.7262 40.2825 62.7873 40.2043C62.8484 40.126 62.8851 39.9695 62.8998 39.7397H63.1467Z" fill="url(#paint5_linear_29_12)"/>
<path d="M70.9982 46.0605H67.4429L66.8194 47.5105C66.6653 47.8675 66.5895 48.1341 66.5895 48.3101C66.5895 48.4495 66.6555 48.5742 66.79 48.6794C66.9221 48.7845 67.2106 48.8554 67.6532 48.8872V49.1366H64.7605V48.8872C65.1444 48.8187 65.3914 48.7307 65.5063 48.6231C65.7361 48.4055 65.9929 47.9654 66.2716 47.3027L69.5017 39.7421H69.7389L72.9373 47.3834C73.194 47.9971 73.4287 48.3957 73.639 48.5791C73.8493 48.7625 74.1403 48.8652 74.5169 48.8872V49.1366H70.8931V48.8872C71.2598 48.8701 71.5068 48.8089 71.634 48.7038C71.7636 48.6011 71.8271 48.474 71.8271 48.3248C71.8271 48.1267 71.7367 47.8113 71.5557 47.3834L70.9982 46.0605ZM70.8075 45.5593L69.2499 41.8475L67.6507 45.5593H70.8075Z" fill="url(#paint6_linear_29_12)"/>
<path d="M82.6227 46.596L82.8453 46.6425L82.0604 49.1342H74.9473V48.8847H75.292C75.6808 48.8847 75.9571 48.7576 76.1258 48.5057C76.2212 48.3615 76.2677 48.0265 76.2677 47.5032V41.576C76.2677 41.0014 76.2041 40.6444 76.0769 40.5001C75.9009 40.3021 75.6393 40.2018 75.292 40.2018H74.9473V39.9524H79.1065V40.2018C78.6175 40.1969 78.2776 40.241 78.0796 40.3363C77.884 40.4317 77.7495 40.5515 77.6761 40.6958C77.6027 40.84 77.5685 41.1848 77.5685 41.7325V47.5032C77.5685 47.8773 77.6052 48.1365 77.6761 48.2759C77.7299 48.3712 77.813 48.4422 77.9255 48.4862C78.038 48.5326 78.3901 48.5546 78.9818 48.5546H79.6518C80.356 48.5546 80.85 48.5033 81.1361 48.3981C81.4197 48.2954 81.6813 48.1096 81.9161 47.8455C82.1508 47.5814 82.3856 47.1658 82.6227 46.596Z" fill="url(#paint7_linear_29_12)"/>
<path d="M19.1818 54.1053H17.8541L17.6095 54.7826H17.189L18.2893 51.7554H18.749L19.8445 54.7826H19.4263L19.1818 54.1053ZM19.0693 53.7825L18.5192 52.2445L17.969 53.7825H19.0693Z" fill="#6B6D6B"/>
<path d="M22.1381 51.9241C22.3801 52.0488 22.5684 52.2249 22.698 52.4547C22.8276 52.6846 22.8936 52.956 22.8936 53.2665C22.8936 53.5771 22.8276 53.8485 22.698 54.0759C22.5684 54.3058 22.3826 54.4794 22.1381 54.5992C21.896 54.719 21.6075 54.7801 21.2749 54.7801H20.3262V51.7359H21.2749C21.6075 51.7383 21.8935 51.7994 22.1381 51.9241ZM22.1747 54.1419C22.3826 53.9341 22.4853 53.6407 22.4853 53.2665C22.4853 52.8875 22.3801 52.5917 22.1723 52.3789C21.9645 52.1662 21.6637 52.0611 21.2749 52.0611H20.7247V54.4549H21.2749C21.6686 54.4549 21.9669 54.3498 22.1747 54.1419Z" fill="#6B6D6B"/>
<path d="M25.9305 51.7383L24.7813 54.7826H24.3216L23.1724 51.7383H23.5954L24.5515 54.3644L25.5075 51.7383H25.9305Z" fill="#6B6D6B"/>
<path d="M26.9746 54.6139C26.7423 54.4818 26.5564 54.296 26.4219 54.0588C26.2875 53.8216 26.219 53.5551 26.219 53.2568C26.219 52.9585 26.2875 52.6919 26.4219 52.4548C26.5564 52.2176 26.7423 52.0317 26.9746 51.8997C27.2069 51.7677 27.466 51.7016 27.7472 51.7016C28.0333 51.7016 28.2925 51.7677 28.5248 51.8997C28.7571 52.0317 28.9405 52.2151 29.075 52.4523C29.2095 52.6895 29.2755 52.956 29.2755 53.2568C29.2755 53.5576 29.2095 53.8241 29.075 54.0613C28.9405 54.296 28.7571 54.4818 28.5248 54.6139C28.2925 54.7459 28.0333 54.8119 27.7472 54.8119C27.466 54.8119 27.2093 54.7459 26.9746 54.6139ZM28.3219 54.3205C28.493 54.2202 28.6251 54.0808 28.7229 53.8974C28.8207 53.714 28.8696 53.5013 28.8696 53.2592C28.8696 53.0147 28.8207 52.802 28.7229 52.6186C28.6251 52.4377 28.493 52.2958 28.3243 52.198C28.1556 52.0978 27.9624 52.0489 27.7472 52.0489C27.5321 52.0489 27.3389 52.0978 27.1702 52.198C27.0015 52.2983 26.867 52.4377 26.7716 52.6186C26.6738 52.802 26.6249 53.0147 26.6249 53.2592C26.6249 53.5013 26.6738 53.714 26.7716 53.8974C26.8694 54.0808 27.0039 54.2226 27.1726 54.3205C27.3413 54.4183 27.5345 54.4696 27.7472 54.4696C27.96 54.4672 28.1531 54.4183 28.3219 54.3205Z" fill="#6B6D6B"/>
<path d="M29.8551 52.4572C29.9895 52.22 30.1729 52.0342 30.4028 51.8997C30.6326 51.7652 30.8918 51.6992 31.173 51.6992C31.5056 51.6992 31.7941 51.7799 32.0435 51.9388C32.2905 52.0978 32.4714 52.3252 32.5863 52.621H32.1071C32.0215 52.4376 31.9017 52.2958 31.7427 52.198C31.5838 52.0978 31.3931 52.0489 31.173 52.0489C30.9603 52.0489 30.7696 52.0978 30.6008 52.198C30.4321 52.2983 30.3001 52.4376 30.2023 52.6186C30.1069 52.802 30.058 53.0147 30.058 53.2592C30.058 53.5013 30.1069 53.714 30.2023 53.895C30.2976 54.0759 30.4321 54.2177 30.6008 54.3156C30.7696 54.4134 30.9603 54.4647 31.173 54.4647C31.3931 54.4647 31.5838 54.4158 31.7427 54.318C31.9017 54.2202 32.0239 54.0808 32.1071 53.8974H32.5839C32.4714 54.1884 32.2905 54.4134 32.0411 54.5723C31.7917 54.7312 31.5031 54.8095 31.1706 54.8095C30.8869 54.8095 30.6302 54.7435 30.4003 54.6114C30.168 54.4794 29.9871 54.296 29.8526 54.0588C29.7181 53.8216 29.6521 53.5575 29.6521 53.2592C29.6521 52.9609 29.7206 52.6944 29.8551 52.4572Z" fill="#6B6D6B"/>
<path d="M34.9728 54.1053H33.6451L33.4006 54.7826H32.98L34.0803 51.7554H34.54L35.6355 54.7826H35.2173L34.9728 54.1053ZM34.8603 53.7825L34.3102 52.2445L33.76 53.7825H34.8603Z" fill="#6B6D6B"/>
<path d="M37.9929 51.7383V52.0611H37.164V54.7826H36.7655V52.0611H35.9316V51.7383H37.9929Z" fill="#6B6D6B"/>
<path d="M38.8803 52.0611V53.0783H39.9904V53.4059H38.8803V54.4549H40.12V54.7826H38.4817V51.7334H40.12V52.0611H38.8803Z" fill="#6B6D6B"/>
<path d="M41.1495 54.7068C40.9905 54.6359 40.8658 54.5356 40.7754 54.4109C40.6849 54.2838 40.6384 54.1371 40.636 53.9708H41.059C41.0737 54.1126 41.1324 54.2349 41.2351 54.3302C41.3378 54.428 41.4894 54.4769 41.6874 54.4769C41.8757 54.4769 42.0249 54.4305 42.1349 54.3351C42.2449 54.2398 42.2987 54.1199 42.2987 53.9708C42.2987 53.8534 42.2669 53.7605 42.2034 53.6871C42.1398 53.6138 42.0591 53.56 41.9637 53.5209C41.8684 53.4842 41.7388 53.4426 41.5749 53.3986C41.3744 53.3473 41.2131 53.2935 41.0932 53.2421C40.9734 53.1908 40.8683 53.1076 40.7827 52.9952C40.6971 52.8827 40.6531 52.7311 40.6531 52.5428C40.6531 52.3765 40.6947 52.2298 40.7803 52.1027C40.8658 51.9755 40.9832 51.8753 41.1372 51.8068C41.2889 51.7359 41.4649 51.7016 41.663 51.7016C41.9491 51.7016 42.1814 51.7726 42.3647 51.9168C42.5457 52.0586 42.6484 52.2494 42.6728 52.4841H42.2351C42.2205 52.3667 42.1593 52.264 42.0518 52.176C41.9442 52.088 41.8023 52.044 41.6238 52.044C41.4576 52.044 41.3231 52.088 41.2179 52.1736C41.1128 52.2591 41.0614 52.379 41.0614 52.533C41.0614 52.643 41.0932 52.7335 41.1544 52.8044C41.2179 52.8753 41.2937 52.9267 41.3867 52.9634C41.4796 53 41.6067 53.0416 41.773 53.0881C41.9735 53.1443 42.1349 53.1981 42.2572 53.2519C42.3794 53.3057 42.4846 53.3888 42.5726 53.5013C42.6606 53.6138 42.7046 53.7654 42.7046 53.9586C42.7046 54.1077 42.6655 54.2471 42.5873 54.3767C42.509 54.5087 42.3916 54.6139 42.2376 54.6946C42.0835 54.7753 41.9002 54.8168 41.6923 54.8168C41.4869 54.8119 41.306 54.7777 41.1495 54.7068Z" fill="#6B6D6B"/>
<path d="M46.7905 54.7826L46.392 54.3816C46.2428 54.5356 46.0839 54.6505 45.9151 54.7239C45.7464 54.7973 45.5557 54.8364 45.343 54.8364C45.1327 54.8364 44.9468 54.7973 44.7855 54.7239C44.6241 54.6481 44.4994 54.5405 44.4089 54.4011C44.3209 54.2618 44.2769 54.0979 44.2769 53.9121C44.2769 53.6994 44.338 53.5135 44.4578 53.3497C44.5776 53.1859 44.7561 53.0612 44.9933 52.9682C44.9004 52.8582 44.8319 52.7555 44.7928 52.6626C44.7512 52.5697 44.7317 52.467 44.7317 52.3569C44.7317 52.2298 44.7634 52.1124 44.8295 52.0097C44.8955 51.907 44.9884 51.8263 45.1107 51.7677C45.2329 51.709 45.3748 51.6796 45.5337 51.6796C45.6902 51.6796 45.8271 51.709 45.9445 51.7725C46.0619 51.8337 46.1474 51.9193 46.2061 52.0268C46.2648 52.1369 46.2893 52.2567 46.2844 52.3912H45.8858C45.8882 52.2714 45.8565 52.1784 45.7855 52.11C45.7146 52.0415 45.6266 52.0073 45.5141 52.0073C45.3968 52.0073 45.3038 52.0391 45.2329 52.1051C45.162 52.1711 45.1253 52.2542 45.1253 52.3569C45.1253 52.445 45.1498 52.5281 45.1962 52.6113C45.2452 52.6919 45.3258 52.7922 45.4383 52.912L46.3479 53.8241L46.4262 53.7018L46.7221 53.203H47.15L46.793 53.8241C46.7441 53.9121 46.6854 54.0026 46.6194 54.1004L47.304 54.785H46.7905V54.7826ZM45.7709 54.4011C45.898 54.34 46.0178 54.2446 46.1303 54.1175L45.2354 53.2177C44.8637 53.3595 44.6754 53.5869 44.6754 53.895C44.6754 54.0661 44.7366 54.2104 44.8613 54.3229C44.986 54.4354 45.1449 54.4941 45.343 54.4941C45.5019 54.4941 45.6437 54.4647 45.7709 54.4011Z" fill="#6B6D6B"/>
<path d="M50.6469 54.1053H49.3191L49.0746 54.7826H48.6565L49.7568 51.7554H50.2165L51.312 54.7826H50.8914L50.6469 54.1053ZM50.5344 53.7825L49.9842 52.2445L49.4341 53.7825H50.5344Z" fill="#6B6D6B"/>
<path d="M52.2191 54.7068C52.0601 54.6359 51.9354 54.5356 51.8449 54.4109C51.7545 54.2838 51.708 54.1371 51.7056 53.9708H52.1286C52.1433 54.1126 52.2019 54.2349 52.3046 54.3302C52.4073 54.428 52.5589 54.4769 52.757 54.4769C52.9453 54.4769 53.0944 54.4305 53.2045 54.3351C53.3145 54.2398 53.3683 54.1199 53.3683 53.9708C53.3683 53.8534 53.3365 53.7605 53.2729 53.6871C53.2094 53.6138 53.1287 53.56 53.0333 53.5209C52.9379 53.4842 52.8084 53.4426 52.6445 53.3986C52.444 53.3473 52.2826 53.2935 52.1628 53.2421C52.0406 53.1908 51.9379 53.1076 51.8523 52.9952C51.7667 52.8827 51.7227 52.7311 51.7227 52.5428C51.7227 52.3765 51.7643 52.2298 51.8498 52.1027C51.9354 51.9755 52.0528 51.8753 52.2068 51.8068C52.3609 51.7359 52.5345 51.7016 52.7326 51.7016C53.0186 51.7016 53.2509 51.7726 53.4343 51.9168C53.6153 52.0586 53.718 52.2494 53.7424 52.4841H53.3047C53.2901 52.3667 53.2289 52.264 53.1213 52.176C53.0138 52.088 52.8719 52.044 52.6934 52.044C52.5272 52.044 52.3927 52.088 52.2875 52.1736C52.1824 52.2591 52.131 52.379 52.131 52.533C52.131 52.643 52.1628 52.7335 52.224 52.8044C52.2875 52.8753 52.3633 52.9267 52.4562 52.9634C52.5492 53 52.6763 53.0416 52.8426 53.0881C53.0431 53.1443 53.2045 53.1981 53.3267 53.2519C53.449 53.3057 53.5541 53.3888 53.6422 53.5013C53.7302 53.6138 53.7742 53.7654 53.7742 53.9586C53.7742 54.1077 53.7351 54.2471 53.6568 54.3767C53.5786 54.5087 53.4612 54.6139 53.3072 54.6946C53.1531 54.7753 52.9697 54.8168 52.7619 54.8168C52.5565 54.8119 52.378 54.7777 52.2191 54.7068Z" fill="#6B6D6B"/>
<path d="M54.7813 54.7068C54.6224 54.6359 54.4977 54.5356 54.4072 54.4109C54.3167 54.2838 54.2703 54.1371 54.2678 53.9708H54.6908C54.7055 54.1126 54.7642 54.2349 54.8669 54.3302C54.9696 54.428 55.1212 54.4769 55.3193 54.4769C55.5075 54.4769 55.6567 54.4305 55.7667 54.3351C55.8768 54.2398 55.9306 54.1199 55.9306 53.9708C55.9306 53.8534 55.8988 53.7605 55.8352 53.6871C55.7716 53.6138 55.6909 53.56 55.5956 53.5209C55.5002 53.4842 55.3706 53.4426 55.2068 53.3986C55.0063 53.3473 54.8449 53.2935 54.7251 53.2421C54.6028 53.1908 54.5001 53.1076 54.4145 52.9952C54.329 52.8827 54.2849 52.7311 54.2849 52.5428C54.2849 52.3765 54.3265 52.2298 54.4121 52.1027C54.4977 51.9755 54.615 51.8753 54.7691 51.8068C54.9231 51.7359 55.0967 51.7016 55.2948 51.7016C55.5809 51.7016 55.8132 51.7726 55.9966 51.9168C56.1775 52.0586 56.2802 52.2494 56.3047 52.4841H55.867C55.8523 52.3667 55.7912 52.264 55.6836 52.176C55.576 52.088 55.4342 52.044 55.2557 52.044C55.0894 52.044 54.9549 52.088 54.8498 52.1736C54.7446 52.2591 54.6933 52.379 54.6933 52.533C54.6933 52.643 54.7251 52.7335 54.7862 52.8044C54.8498 52.8753 54.9256 52.9267 55.0185 52.9634C55.1114 53 55.2386 53.0416 55.4048 53.0881C55.6053 53.1443 55.7667 53.1981 55.889 53.2519C56.0112 53.3057 56.1164 53.3888 56.2044 53.5013C56.2924 53.6138 56.3365 53.7654 56.3365 53.9586C56.3365 54.1077 56.2973 54.2471 56.2191 54.3767C56.1408 54.5087 56.0235 54.6139 55.8694 54.6946C55.7154 54.7753 55.532 54.8168 55.3241 54.8168C55.1212 54.8119 54.9403 54.7777 54.7813 54.7068Z" fill="#6B6D6B"/>
<path d="M57.5275 54.6139C57.2952 54.4818 57.1094 54.296 56.9749 54.0588C56.8404 53.8216 56.772 53.5551 56.772 53.2568C56.772 52.9585 56.8404 52.6919 56.9749 52.4548C57.1094 52.2176 57.2952 52.0317 57.5275 51.8997C57.7598 51.7677 58.019 51.7016 58.3002 51.7016C58.5863 51.7016 58.8455 51.7677 59.0778 51.8997C59.3101 52.0317 59.4935 52.2151 59.628 52.4523C59.7625 52.6895 59.8285 52.956 59.8285 53.2568C59.8285 53.5576 59.7625 53.8241 59.628 54.0613C59.4935 54.296 59.3101 54.4818 59.0778 54.6139C58.8455 54.7459 58.5863 54.8119 58.3002 54.8119C58.019 54.8119 57.7598 54.7459 57.5275 54.6139ZM58.8748 54.3205C59.046 54.2202 59.1805 54.0808 59.2759 53.8974C59.3737 53.714 59.4226 53.5013 59.4226 53.2592C59.4226 53.0147 59.3737 52.802 59.2759 52.6186C59.1781 52.4377 59.046 52.2958 58.8773 52.198C58.7086 52.0978 58.5154 52.0489 58.3002 52.0489C58.085 52.0489 57.8919 52.0978 57.7232 52.198C57.5544 52.2983 57.42 52.4377 57.3246 52.6186C57.2268 52.802 57.1779 53.0147 57.1779 53.2592C57.1779 53.5013 57.2268 53.714 57.3246 53.8974C57.4224 54.0808 57.5569 54.2226 57.7256 54.3205C57.8968 54.4207 58.0875 54.4696 58.3002 54.4696C58.513 54.4672 58.7061 54.4183 58.8748 54.3205Z" fill="#6B6D6B"/>
<path d="M60.4056 52.4572C60.5401 52.22 60.7235 52.0342 60.9533 51.8997C61.1856 51.7652 61.4423 51.6992 61.7235 51.6992C62.0561 51.6992 62.3446 51.7799 62.594 51.9388C62.841 52.0978 63.0219 52.3252 63.1344 52.621H62.6576C62.572 52.4376 62.4522 52.2958 62.2933 52.198C62.1343 52.0978 61.9436 52.0489 61.7235 52.0489C61.5108 52.0489 61.3201 52.0978 61.1514 52.198C60.9827 52.2983 60.8506 52.4376 60.7552 52.6186C60.6599 52.802 60.611 53.0147 60.611 53.2592C60.611 53.5013 60.6599 53.714 60.7552 53.895C60.8506 54.0759 60.9827 54.2177 61.1514 54.3156C61.3201 54.4134 61.5108 54.4647 61.7235 54.4647C61.9461 54.4647 62.1343 54.4158 62.2933 54.318C62.4522 54.2202 62.5745 54.0808 62.6576 53.8974H63.1344C63.0219 54.1884 62.841 54.4134 62.594 54.5723C62.3471 54.7312 62.0561 54.8095 61.7235 54.8095C61.4399 54.8095 61.1832 54.7435 60.9533 54.6114C60.721 54.4794 60.5401 54.296 60.4056 54.0588C60.2711 53.8216 60.2051 53.5575 60.2051 53.2592C60.2051 52.9609 60.2735 52.6944 60.4056 52.4572Z" fill="#6B6D6B"/>
<path d="M64.1246 51.7383V54.7826H63.7285V51.7383H64.1246Z" fill="#6B6D6B"/>
<path d="M66.6017 54.1053H65.274L65.0295 54.7826H64.6113L65.7117 51.7554H66.1714L67.2668 54.7826H66.8462L66.6017 54.1053ZM66.4868 53.7825L65.9366 52.2445L65.3865 53.7825H66.4868Z" fill="#6B6D6B"/>
<path d="M69.6189 51.7383V52.0611H68.79V54.7826H68.3914V52.0611H67.5576V51.7383H69.6189Z" fill="#6B6D6B"/>
<path d="M70.5067 52.0611V53.0783H71.6168V53.4059H70.5067V54.4549H71.7464V54.7826H70.1082V51.7334H71.7464V52.0611H70.5067Z" fill="#6B6D6B"/>
<path d="M72.7757 54.7068C72.6168 54.6359 72.4921 54.5356 72.4016 54.4109C72.3111 54.2838 72.2647 54.1371 72.2622 53.9708H72.6852C72.6999 54.1126 72.7586 54.2349 72.8613 54.3302C72.964 54.428 73.1156 54.4769 73.3136 54.4769C73.5019 54.4769 73.6511 54.4305 73.7611 54.3351C73.8712 54.2398 73.9249 54.1199 73.9249 53.9708C73.9249 53.8534 73.8932 53.7605 73.8296 53.6871C73.766 53.6138 73.6853 53.56 73.5899 53.5209C73.4946 53.4842 73.365 53.4426 73.2012 53.3986C73.0007 53.3473 72.8393 53.2935 72.7195 53.2421C72.5972 53.1908 72.4945 53.1076 72.4089 52.9952C72.3233 52.8827 72.2793 52.7311 72.2793 52.5428C72.2793 52.3765 72.3209 52.2298 72.4065 52.1027C72.4921 51.9755 72.6094 51.8753 72.7635 51.8068C72.9175 51.7359 73.0911 51.7016 73.2892 51.7016C73.5753 51.7016 73.8076 51.7726 73.991 51.9168C74.1719 52.0586 74.2746 52.2494 74.2991 52.4841H73.8614C73.8467 52.3667 73.7856 52.264 73.678 52.176C73.5704 52.088 73.4286 52.044 73.2501 52.044C73.0838 52.044 72.9493 52.088 72.8442 52.1736C72.739 52.2591 72.6877 52.379 72.6877 52.533C72.6877 52.643 72.7195 52.7335 72.7806 52.8044C72.8442 52.8753 72.92 52.9267 73.0129 52.9634C73.1058 53 73.233 53.0416 73.3992 53.0881C73.5997 53.1443 73.7611 53.1981 73.8834 53.2519C74.0056 53.3057 74.1108 53.3888 74.1988 53.5013C74.2868 53.6138 74.3308 53.7654 74.3308 53.9586C74.3308 54.1077 74.2917 54.2471 74.2135 54.3767C74.1352 54.5087 74.0179 54.6139 73.8638 54.6946C73.7098 54.7753 73.5264 54.8168 73.3185 54.8168C73.1131 54.8119 72.9346 54.7777 72.7757 54.7068Z" fill="#6B6D6B"/>
<path d="M56.1508 24.2885H55.9771L53.3852 16.9211C53.5515 16.9015 53.6835 16.7573 53.6835 16.5861C53.6835 16.4247 53.5711 16.2902 53.4195 16.256V16.1386C53.4953 16.1093 53.5711 16.0775 53.6444 16.0408C53.8009 15.9626 53.9941 15.811 53.8841 15.6422C53.7104 15.3782 53.4317 15.7058 53.2507 15.7718C52.9867 15.8696 52.7079 15.8623 52.4316 15.833C51.7836 15.7621 51.165 15.4417 50.5439 15.2608C49.3384 14.9111 48.2112 14.6397 46.9568 14.669C46.9128 14.669 46.5289 14.6959 46.2037 14.74C46.2012 14.7253 46.1988 14.7106 46.1939 14.6984C46.3039 14.6397 46.37 14.5615 46.37 14.4734C46.37 14.3879 46.3064 14.3121 46.2037 14.2534C46.2257 14.2216 46.2379 14.1849 46.2379 14.1482C46.2379 14.0529 46.1597 13.9673 46.0374 13.9159C46.1279 13.7594 46.1841 13.554 46.1841 13.3804C46.1841 13.1286 46.0619 13.0259 45.8882 12.9941C46.0765 12.9305 46.2135 12.752 46.2135 12.5417C46.2135 12.2776 46.0007 12.0649 45.7366 12.0649C45.4726 12.0649 45.2598 12.2776 45.2598 12.5417C45.2598 12.752 45.3968 12.9305 45.585 12.9941C45.4139 13.0259 45.2892 13.1286 45.2892 13.3804C45.2892 13.5516 45.3454 13.7594 45.4359 13.9159C45.3136 13.9697 45.2354 14.0529 45.2354 14.1482C45.2354 14.1849 45.2476 14.2216 45.2696 14.2534C45.1669 14.3121 45.1033 14.3879 45.1033 14.4734C45.1033 14.5688 45.184 14.6544 45.3087 14.7131C45.3063 14.7228 45.3038 14.7302 45.3038 14.74C44.9786 14.6959 44.5947 14.669 44.5507 14.669C43.2963 14.6397 42.1691 14.9111 40.9636 15.2608C40.3401 15.4417 39.7239 15.7621 39.0759 15.833C38.7996 15.8648 38.5184 15.8696 38.2568 15.7718C38.0758 15.7034 37.7971 15.3782 37.6235 15.6422C37.5134 15.811 37.7066 15.9626 37.8631 16.0408C37.9389 16.0775 38.0147 16.1117 38.0881 16.1386V16.256C37.9365 16.2902 37.824 16.4247 37.824 16.5861C37.824 16.7597 37.9536 16.9015 38.1223 16.9211L35.5304 24.2885H35.3568C35.2418 24.2885 35.1489 24.3814 35.1489 24.4963C35.1489 24.6063 35.2345 24.6944 35.3397 24.7017C35.4057 25.3741 36.6429 25.9072 38.1614 25.9072C39.6799 25.9072 40.9196 25.3717 40.9832 24.7017C41.0908 24.6944 41.1739 24.6039 41.1739 24.4963C41.1739 24.3814 41.081 24.2885 40.9661 24.2885H40.7924L38.203 16.9211C38.3693 16.9015 38.5013 16.7573 38.5013 16.5861C38.5013 16.4247 38.3888 16.2902 38.2372 16.256V16.19C40.0198 16.7304 41.9417 14.9943 45.3748 15.7938C45.3748 15.7938 45.7293 15.9943 46.1254 15.7938C49.5585 14.9943 51.4804 16.7304 53.263 16.19V16.256C53.1114 16.2902 52.9989 16.4247 52.9989 16.5861C52.9989 16.7597 53.1285 16.9015 53.2972 16.9211L50.7053 24.2885H50.5317C50.4168 24.2885 50.3238 24.3814 50.3238 24.4963C50.3238 24.6063 50.4094 24.6944 50.5146 24.7017C50.5806 25.3741 51.8179 25.9072 53.3363 25.9072C54.8548 25.9072 56.0921 25.3717 56.1581 24.7017C56.2657 24.6944 56.3488 24.6039 56.3488 24.4963C56.3586 24.3814 56.2657 24.2885 56.1508 24.2885ZM38.0905 24.2885H35.6942L38.0905 17.4713V24.2885ZM38.2421 17.4737L40.6384 24.2909H38.2421V17.4737ZM38.3546 16.5861C38.3546 16.6888 38.269 16.7744 38.1663 16.7744C38.0636 16.7744 37.978 16.6888 37.978 16.5861C37.978 16.4834 38.0636 16.3978 38.1663 16.3978C38.269 16.3978 38.3546 16.4809 38.3546 16.5861ZM53.2679 24.2885H50.8716L53.2679 17.4713V24.2885ZM53.1554 16.5861C53.1554 16.4834 53.2385 16.3978 53.3437 16.3978C53.4464 16.3978 53.5319 16.4834 53.5319 16.5861C53.5319 16.6888 53.4464 16.7744 53.3437 16.7744C53.241 16.7744 53.1554 16.6888 53.1554 16.5861ZM53.4195 24.2885V17.4737L55.8158 24.2909H53.4195V24.2885Z" fill="url(#paint8_linear_29_12)"/>
<path fill-rule="evenodd" clip-rule="evenodd" d="M46.3455 35.177C46.7099 33.1377 47.7173 31.3453 49.1159 29.707C48.3286 28.1959 47.7613 26.6187 47.5657 24.9316H47.6659C47.8127 24.9316 47.9325 24.8117 47.9325 24.665V24.2567C47.9325 24.11 47.8127 23.9902 47.6659 23.9902H47.5461V23.6258H47.9789C48.1256 23.6258 48.2455 23.506 48.2455 23.3593V22.9509C48.2455 22.8042 48.1256 22.6844 47.9789 22.6844H47.5461V16.5519C47.1769 16.5739 46.8101 16.6154 46.436 16.6986C46.2208 16.7866 45.9959 16.8331 45.7611 16.8331C45.4701 16.8331 45.233 16.7621 45.0789 16.6986C44.6168 16.5959 44.1669 16.5494 43.7121 16.5372V22.6869H43.2793C43.1325 22.6869 43.0152 22.8067 43.0152 22.9534V23.3617C43.0152 23.5085 43.135 23.6283 43.2793 23.6283H43.7121V23.9926H43.5898C43.4431 23.9926 43.3257 24.1124 43.3257 24.2591V24.6675C43.3257 24.8142 43.4455 24.934 43.5898 24.934H43.6949C43.4944 26.7214 42.9589 28.2839 42.2083 29.7021C43.7658 31.3967 44.607 33.2404 44.9298 35.1916C44.8197 35.2454 44.7415 35.3579 44.7415 35.4899C44.7415 35.6733 44.8906 35.8225 45.074 35.8225C45.2525 35.8225 45.3919 35.6831 45.4041 35.5071H45.409V28.9075C45.1987 28.817 45.0545 28.6091 45.0545 28.3646C45.0545 28.0394 45.3185 27.7753 45.6438 27.7753C45.969 27.7753 46.2331 28.0394 46.2331 28.3646C46.2331 28.6018 46.0937 28.8048 45.8932 28.9001V35.485V35.5022H45.8956C45.9054 35.6758 46.0472 35.8176 46.2257 35.8176C46.4091 35.8176 46.5583 35.6684 46.5583 35.485C46.5583 35.3457 46.4702 35.2259 46.3455 35.177Z" fill="url(#paint9_linear_29_12)"/>
<path d="M60.1831 28.3084C59.2759 28.9417 59.1292 29.6312 59.1047 29.822C58.9605 29.9075 58.826 29.9809 58.7037 30.0494C58.8969 29.729 59.0778 29.4038 59.2441 29.0688C59.5229 28.5016 59.7625 27.9147 59.9655 27.3181C59.9875 27.2521 60.0095 27.186 60.0315 27.12C60.188 26.6285 60.4178 26.1615 60.721 25.7434C60.7406 25.7165 60.7626 25.6871 60.7822 25.6602C63.3252 24.2665 62.1588 21.43 62.1588 21.43C62.1979 22.056 61.5915 22.5353 60.9704 23.6772C60.4423 24.6504 60.6183 25.3326 60.6843 25.5135C60.5547 25.714 60.4325 25.8901 60.3273 26.0368C60.3689 25.8534 60.408 25.67 60.4423 25.4866C60.5621 24.868 60.6306 24.2396 60.6599 23.6112L60.6697 23.3764C60.6746 23.2982 60.677 23.2199 60.6746 23.1417V22.6697C60.6721 22.5133 60.6599 22.3568 60.655 22.1978C60.6501 22.1196 60.6501 22.0413 60.6428 21.9631L60.6208 21.7283C60.6061 21.5719 60.6159 21.4154 60.6452 21.2638L60.8262 20.3664C62.6796 18.1363 60.5523 15.9259 60.5523 15.9259C60.8188 16.4956 60.43 17.1607 60.2736 18.4542C60.1391 19.5521 60.5548 20.1219 60.6819 20.2686C60.6306 20.5278 60.5743 20.7576 60.5279 20.941L60.5083 20.7943C60.4912 20.6378 60.4545 20.4862 60.4252 20.3321L60.3811 20.1023C60.3665 20.024 60.3518 19.9482 60.3322 19.8724C60.2564 19.5692 60.188 19.2611 60.0902 18.9653L60.0217 18.7403L59.9875 18.6278L59.9483 18.5178L59.7894 18.0752C59.6892 17.8185 59.584 17.5642 59.474 17.3099C59.2735 16.8575 59.1488 16.3734 59.1194 15.8794C59.1121 15.7645 59.1047 15.652 59.0925 15.542C60.0902 12.8205 57.3442 11.4512 57.3442 11.4512C57.7868 11.8986 57.645 12.6567 57.9286 13.9257C58.1707 15.0065 58.7526 15.4026 58.9214 15.498C58.9752 15.8672 59.0045 16.1777 59.0192 16.3929C59.0143 16.3856 59.0118 16.3782 59.0069 16.3685L58.8969 16.1631C58.8602 16.0946 58.8162 16.0286 58.7771 15.9626L58.535 15.5616L58.2734 15.1728C58.2294 15.1092 58.1878 15.0432 58.1413 14.9796L58.002 14.7913C57.8577 14.5908 57.7061 14.3976 57.5472 14.2094C57.3271 13.9306 57.0263 13.5296 56.7647 13.2386C56.6424 13.1017 56.5348 12.9525 56.4566 12.7862C55.3147 10.3777 52.5223 11.055 52.5223 11.055C53.1482 11.0942 53.5492 11.7544 54.6056 12.5148C55.4418 13.1139 56.102 13.0797 56.3441 13.0381C56.3735 13.0479 56.4077 13.0577 56.437 13.0674L56.7574 13.4024C57.1755 13.8621 57.5741 14.3365 57.9237 14.85L58.0582 15.0383C58.1022 15.1019 58.1413 15.1679 58.1829 15.2339L58.4323 15.6251L58.5375 15.8085C58.2587 15.5738 57.98 15.3684 57.7036 15.1899C56.1974 12.7129 53.4148 14.004 53.4148 14.004C54.0383 13.9379 54.5444 14.5199 55.7133 15.0896C56.7084 15.5738 57.3809 15.3659 57.5594 15.295C57.9579 15.5298 58.2905 15.7572 58.4812 15.8941C58.601 15.9821 58.7037 16.0922 58.7722 16.2266V16.2291L58.8773 16.4369C59.1659 16.9847 59.3982 17.5593 59.6085 18.1388L59.7527 18.5789L59.7894 18.689L59.8212 18.8014L59.8823 19.024C59.9703 19.3198 60.0315 19.623 60.0975 19.9238C60.1146 19.9996 60.1293 20.0754 60.1415 20.1512V20.1561C59.9532 19.8675 59.7576 19.6035 59.5547 19.3638C58.8407 16.5543 55.8013 16.9749 55.8013 16.9749C56.4175 17.0947 56.7305 17.7989 57.6816 18.6865C58.491 19.4421 59.1952 19.4396 59.3884 19.4225C59.606 19.6597 59.7845 19.8724 59.9166 20.0363C60.0999 20.2637 60.2198 20.5375 60.2467 20.8285C60.2467 20.831 60.2467 20.831 60.2467 20.8334L60.298 21.2931L60.3102 21.408L60.3176 21.523L60.3322 21.7528L60.3469 21.9826C60.3518 22.0584 60.3518 22.1367 60.3542 22.2125C60.3567 22.3665 60.3616 22.5206 60.3616 22.6722L60.3494 23.1319C60.3494 23.2077 60.3445 23.2859 60.3371 23.3617L60.32 23.5916C60.2956 23.9241 60.2589 24.2542 60.2124 24.5843C60.1464 24.308 60.0706 24.044 59.985 23.797C60.32 20.9165 57.332 20.227 57.332 20.227C57.865 20.5595 57.9066 21.3298 58.4788 22.4961C58.9654 23.4913 59.6256 23.7407 59.809 23.7921C59.8799 23.9706 59.941 24.1369 59.9924 24.2836C60.1195 24.643 60.1464 25.0318 60.0633 25.4059C60.0633 25.4084 60.0633 25.4108 60.0608 25.4108C59.9288 26.0099 59.7674 26.6016 59.5547 27.1738C59.3444 27.7484 59.095 28.3084 58.8138 28.8488C58.7306 29.0053 58.6426 29.1593 58.5521 29.3134C58.6035 28.9881 58.6328 28.6752 58.645 28.3768C60.0119 25.8216 57.4836 24.0806 57.4836 24.0806C57.8577 24.5843 57.6132 25.3155 57.7183 26.6114C57.8063 27.7142 58.3296 28.1886 58.4812 28.3059C58.4812 28.3475 58.4812 28.3891 58.4812 28.4306C58.4763 29.1324 58.2612 29.8195 57.8552 30.3917C57.8528 30.3941 57.8504 30.3966 57.8504 30.4015C57.4982 30.9003 57.1021 31.3649 56.6864 31.8099C56.5789 31.9175 56.4786 32.0324 56.3686 32.1376L56.0385 32.453C56.0336 32.4481 56.0336 32.4506 56.0287 32.4457C56.1289 32.2672 56.2194 32.0911 56.3001 31.9151C58.5521 30.0885 56.8943 27.5064 56.8943 27.5064C57.0434 28.1152 56.5348 28.6947 56.1289 29.932C55.7842 30.9834 56.08 31.6216 56.1754 31.7903C56.1094 31.9493 56.0458 32.096 55.9847 32.2256C55.838 32.5435 55.6228 32.8271 55.3465 33.0423C55.344 33.0423 55.344 33.0447 55.3416 33.0447C54.8672 33.4237 54.3708 33.7783 53.8476 34.0839C53.5444 34.2649 53.2338 34.4312 52.9159 34.5901C53.048 34.4556 53.1702 34.3187 53.2827 34.1818C55.4394 33.1866 54.6447 30.8 54.6447 30.8C54.6398 31.3135 54.119 31.6705 53.5468 32.5704C53.0602 33.3357 53.1654 33.903 53.2094 34.0546C53.1385 34.1475 53.0724 34.2331 53.0089 34.3114C52.8035 34.5705 52.5369 34.7759 52.2337 34.9055C52.2313 34.9055 52.2313 34.908 52.2288 34.908C51.6713 35.1427 51.0992 35.3383 50.5172 35.4997L50.5099 35.5022H50.5074C50.3509 35.5462 50.2336 35.688 50.2287 35.8518C50.2213 36.133 50.4805 36.3115 50.725 36.2382C51.3363 36.0523 51.9354 35.8274 52.5174 35.5657C53.0993 35.3017 53.6593 34.9936 54.1972 34.6561C54.5224 34.4532 54.8354 34.2331 55.1411 34.0008C55.5543 33.6854 56.0507 33.4971 56.5691 33.4531C59.2759 34.4923 60.6868 31.7659 60.6868 31.7659C60.2344 32.2011 59.4764 32.0495 58.2025 32.3136C57.1192 32.5386 56.7133 33.1156 56.6155 33.2819C56.3539 33.3162 56.124 33.3382 55.9358 33.3504C56.1069 33.1988 56.2757 33.0423 56.4419 32.8858L56.7769 32.5484C56.8894 32.4383 56.9921 32.3161 57.0997 32.1987C57.5227 31.7243 57.9213 31.2304 58.2734 30.7022C58.2807 30.6925 58.2881 30.6802 58.2954 30.6704C58.469 30.4113 58.7037 30.2034 58.98 30.064C59.0241 30.042 59.0705 30.0176 59.1145 29.9931C62.0121 29.8855 62.237 26.8241 62.237 26.8241C62.0048 27.4061 61.2516 27.565 60.1831 28.3084Z" fill="url(#paint10_linear_29_12)"/>
<path d="M31.4322 28.3084C32.3393 28.9417 32.486 29.6312 32.5105 29.822C32.6548 29.9075 32.7892 29.9809 32.9115 30.0494C32.7183 29.729 32.5374 29.4038 32.3711 29.0688C32.0924 28.5016 31.8527 27.9147 31.6498 27.3181C31.6278 27.2521 31.6058 27.186 31.5838 27.12C31.4248 26.6285 31.1974 26.1615 30.8942 25.7434C30.8746 25.7165 30.8526 25.6871 30.8331 25.6602C28.2901 24.2665 29.4564 21.43 29.4564 21.43C29.4173 22.056 30.0237 22.5353 30.6448 23.6772C31.173 24.6504 30.9969 25.3326 30.9309 25.5135C31.0605 25.714 31.1827 25.8901 31.2879 26.0368C31.2463 25.8534 31.2072 25.67 31.173 25.4866C31.0531 24.868 30.9847 24.2396 30.9553 23.6112L30.9456 23.3764C30.9407 23.2982 30.9382 23.2199 30.9407 23.1417V22.6697C30.9431 22.5133 30.9553 22.3568 30.9602 22.1978C30.9651 22.1196 30.9651 22.0413 30.9725 21.9631L30.9945 21.7283C31.0091 21.5719 30.9994 21.4154 30.97 21.2638L30.7891 20.3664C28.9356 18.1363 31.0629 15.9259 31.0629 15.9259C30.7964 16.4956 31.1852 17.1607 31.3417 18.4542C31.4762 19.5521 31.0605 20.1219 30.9333 20.2686C30.9847 20.5278 31.0409 20.7576 31.0874 20.941L31.1069 20.7943C31.1241 20.6378 31.1607 20.4862 31.1901 20.3321L31.2341 20.1023C31.2488 20.024 31.2634 19.9482 31.283 19.8724C31.3588 19.5692 31.4273 19.2611 31.5251 18.9653L31.5935 18.7403L31.6278 18.6278L31.6669 18.5178L31.8258 18.0752C31.9261 17.8185 32.0312 17.5642 32.1413 17.3099C32.3418 16.8575 32.4665 16.3734 32.4958 15.8794C32.5032 15.7645 32.5105 15.652 32.5227 15.542C31.5251 12.8205 34.271 11.4512 34.271 11.4512C33.8285 11.8986 33.9703 12.6567 33.6866 13.9257C33.4446 15.0065 32.8626 15.4026 32.6939 15.498C32.6401 15.8672 32.6132 16.1777 32.5961 16.3929C32.601 16.3856 32.6034 16.3782 32.6083 16.3685L32.7183 16.1631C32.755 16.0946 32.799 16.0286 32.8381 15.9626L33.0802 15.5616L33.3419 15.1728C33.3859 15.1092 33.4274 15.0432 33.4739 14.9796L33.6133 14.7913C33.7575 14.5908 33.9091 14.3976 34.0681 14.2094C34.2881 13.9306 34.5889 13.5296 34.8505 13.2386C34.9728 13.1017 35.0804 12.9525 35.1586 12.7862C36.3006 10.3777 39.093 11.055 39.093 11.055C38.467 11.0942 38.066 11.7544 37.0097 12.5148C36.1734 13.1139 35.5132 13.0797 35.2711 13.0381C35.2418 13.0479 35.2075 13.0577 35.1782 13.0674L34.8579 13.4024C34.4398 13.8621 34.0412 14.3365 33.6915 14.85L33.557 15.0383C33.513 15.1019 33.4739 15.1679 33.4323 15.2339L33.1829 15.6251L33.0778 15.8085C33.3565 15.5738 33.6353 15.3684 33.9116 15.1899C35.4178 12.7129 38.2005 14.004 38.2005 14.004C37.5769 13.9379 37.0708 14.5199 35.902 15.0896C34.9068 15.5738 34.2344 15.3659 34.0559 15.295C33.6573 15.5298 33.3247 15.7572 33.134 15.8941C33.0142 15.9821 32.9115 16.0922 32.843 16.2266V16.2291L32.7379 16.4369C32.4494 16.9847 32.2171 17.5593 32.0068 18.1388L31.8625 18.5789L31.8258 18.689L31.7965 18.8014L31.7354 19.024C31.6473 19.3198 31.5862 19.623 31.5202 19.9238C31.5031 19.9996 31.4884 20.0754 31.4762 20.1512V20.1561C31.6644 19.8675 31.8601 19.6035 32.063 19.3638C32.777 16.5543 35.8164 16.9749 35.8164 16.9749C35.2002 17.0947 34.8872 17.7989 33.936 18.6865C33.1267 19.4421 32.4225 19.4396 32.2293 19.4225C32.0117 19.6597 31.8332 19.8724 31.7011 20.0363C31.5177 20.2637 31.3979 20.5375 31.371 20.8285C31.371 20.831 31.371 20.831 31.371 20.8334L31.3197 21.2931L31.3075 21.408L31.3001 21.523L31.2854 21.7528L31.2708 21.9826C31.2659 22.0584 31.2659 22.1367 31.2634 22.2125C31.2561 22.3641 31.2512 22.5157 31.2512 22.6697L31.2634 23.1294C31.2634 23.2052 31.2683 23.2835 31.2757 23.3593L31.2928 23.5891C31.3172 23.9217 31.3539 24.2518 31.4004 24.5819C31.4664 24.3056 31.5422 24.0415 31.6278 23.7945C31.2928 20.9141 34.2808 20.2245 34.2808 20.2245C33.7478 20.5571 33.7062 21.3273 33.134 22.4937C32.6474 23.4889 31.9872 23.7383 31.8038 23.7897C31.7329 23.9682 31.6718 24.1344 31.6204 24.2811C31.4933 24.6406 31.4664 25.0294 31.5495 25.4035C31.5495 25.4059 31.5495 25.4084 31.552 25.4084C31.684 26.0074 31.8454 26.5992 32.0581 27.1714C32.2684 27.746 32.5178 28.3059 32.799 28.8463C32.8822 29.0028 32.9702 29.1569 33.0607 29.3109C33.0093 28.9857 32.98 28.6727 32.9677 28.3744C31.6009 25.8192 34.1292 24.0782 34.1292 24.0782C33.7551 24.5819 33.9996 25.313 33.8945 26.609C33.8064 27.7118 33.2832 28.1861 33.1316 28.3035C33.1316 28.3451 33.1316 28.3866 33.1316 28.4282C33.1365 29.13 33.3516 29.8171 33.7575 30.3892C33.76 30.3917 33.7624 30.3941 33.7624 30.399C34.1145 30.8979 34.5107 31.3624 34.9263 31.8075C35.0339 31.9151 35.1342 32.03 35.2442 32.1351L35.5743 32.4506C35.5792 32.4457 35.5768 32.4481 35.5841 32.4432C35.4839 32.2647 35.3934 32.0887 35.3127 31.9126C33.0607 30.086 34.7185 27.5039 34.7185 27.5039C34.5693 28.1128 35.0779 28.6923 35.4839 29.9295C35.8286 30.981 35.5328 31.6192 35.4374 31.7879C35.5034 31.9468 35.567 32.0936 35.6281 32.2231C35.7748 32.541 35.99 32.8247 36.2663 33.0398C36.2688 33.0398 36.2688 33.0423 36.2712 33.0423C36.7456 33.4213 37.242 33.7759 37.7652 34.0815C38.0684 34.2624 38.379 34.4287 38.6968 34.5877C38.5648 34.4532 38.4425 34.3162 38.3301 34.1793C36.1734 33.1841 36.9681 30.7976 36.9681 30.7976C36.973 31.3111 37.4938 31.6681 38.066 32.5679C38.5526 33.3333 38.4474 33.9006 38.4034 34.0522C38.4743 34.1451 38.5404 34.2307 38.6039 34.3089C38.8093 34.5681 39.0759 34.7735 39.3791 34.9031C39.3815 34.9031 39.3815 34.9055 39.3839 34.9055C39.9415 35.1403 40.5136 35.3359 41.0956 35.4973L41.1029 35.4997H41.1054C41.2619 35.5437 41.3792 35.6856 41.3841 35.8494C41.3915 36.1306 41.1323 36.3091 40.8877 36.2357C40.2764 36.0499 39.6774 35.8249 39.0954 35.5633C38.5135 35.2992 37.9535 34.9911 37.4156 34.6537C37.0903 34.4507 36.7774 34.2307 36.4717 33.9984C36.0585 33.6829 35.5621 33.4947 35.0437 33.4506C32.3369 34.4898 30.926 31.7634 30.926 31.7634C31.3784 32.1987 32.1364 32.0471 33.4103 32.3112C34.4935 32.5361 34.8995 33.1132 34.9973 33.2795C35.2589 33.3137 35.4887 33.3357 35.677 33.3479C35.5059 33.1963 35.3371 33.0398 35.1709 32.8834L34.8359 32.5459C34.7234 32.4359 34.6207 32.3136 34.5131 32.1963C34.0901 31.7219 33.6915 31.228 33.3394 30.6998C33.3321 30.69 33.3247 30.6778 33.3174 30.668C33.1438 30.4088 32.9091 30.201 32.6327 30.0616C32.5863 30.0396 32.5423 30.0151 32.4983 29.9907C29.5909 29.8904 29.3635 26.829 29.3635 26.829C29.6105 27.4061 30.366 27.565 31.4322 28.3084Z" fill="url(#paint11_linear_29_12)"/>
<defs>
<linearGradient id="paint0_linear_29_12" x1="12.4985" y1="27.4037" x2="12.4985" y2="52.4371" gradientUnits="userSpaceOnUse">
<stop stop-color="#FAE894"/>
<stop offset="0.8939" stop-color="#977A1C"/>
</linearGradient>
<linearGradient id="paint1_linear_29_12" x1="21.6663" y1="27.4037" x2="21.6663" y2="52.4371" gradientUnits="userSpaceOnUse">
<stop stop-color="#FAE894"/>
<stop offset="0.8939" stop-color="#977A1C"/>
</linearGradient>
<linearGradient id="paint2_linear_29_12" x1="30.4214" y1="27.4037" x2="30.4214" y2="52.4371" gradientUnits="userSpaceOnUse">
<stop stop-color="#FAE894"/>
<stop offset="0.8939" stop-color="#977A1C"/>
</linearGradient>
<linearGradient id="paint3_linear_29_12" x1="41.9123" y1="27.4037" x2="41.9123" y2="52.4371" gradientUnits="userSpaceOnUse">
<stop stop-color="#FAE894"/>
<stop offset="0.8939" stop-color="#977A1C"/>
</linearGradient>
<linearGradient id="paint4_linear_29_12" x1="50.3795" y1="27.4037" x2="50.3795" y2="52.4371" gradientUnits="userSpaceOnUse">
<stop stop-color="#FAE894"/>
<stop offset="0.8939" stop-color="#977A1C"/>
</linearGradient>
<linearGradient id="paint5_linear_29_12" x1="59.7881" y1="27.4037" x2="59.7881" y2="52.4371" gradientUnits="userSpaceOnUse">
<stop stop-color="#FAE894"/>
<stop offset="0.8939" stop-color="#977A1C"/>
</linearGradient>
<linearGradient id="paint6_linear_29_12" x1="69.6368" y1="27.4037" x2="69.6368" y2="52.4371" gradientUnits="userSpaceOnUse">
<stop stop-color="#FAE894"/>
<stop offset="0.8939" stop-color="#977A1C"/>
</linearGradient>
<linearGradient id="paint7_linear_29_12" x1="78.8961" y1="27.4037" x2="78.8961" y2="52.4371" gradientUnits="userSpaceOnUse">
<stop stop-color="#FAE894"/>
<stop offset="0.8939" stop-color="#977A1C"/>
</linearGradient>
<linearGradient id="paint8_linear_29_12" x1="25.5699" y1="2.66345" x2="60.5857" y2="35.06" gradientUnits="userSpaceOnUse">
<stop stop-color="#FAE894"/>
<stop offset="0.6341" stop-color="#977A1C"/>
<stop offset="1" stop-color="#FAE894"/>
</linearGradient>
<linearGradient id="paint9_linear_29_12" x1="23.3788" y1="5.03176" x2="58.3946" y2="37.4283" gradientUnits="userSpaceOnUse">
<stop stop-color="#FAE894"/>
<stop offset="0.6341" stop-color="#977A1C"/>
<stop offset="1" stop-color="#FAE894"/>
</linearGradient>
<linearGradient id="paint10_linear_29_12" x1="28.1231" y1="-0.0959752" x2="63.1389" y2="32.3006" gradientUnits="userSpaceOnUse">
<stop stop-color="#FAE894"/>
<stop offset="0.6341" stop-color="#977A1C"/>
<stop offset="1" stop-color="#FAE894"/>
</linearGradient>
<linearGradient id="paint11_linear_29_12" x1="20.5054" y1="8.13736" x2="55.5212" y2="40.5339" gradientUnits="userSpaceOnUse">
<stop stop-color="#FAE894"/>
<stop offset="0.6341" stop-color="#977A1C"/>
<stop offset="1" stop-color="#FAE894"/>
</linearGradient>
</defs>
</svg>
